<svg width="66" height="47" viewBox="0 0 66 47" fill="none" xmlns="http://www.w3.org/2000/svg">
    <g clip-path="url(#clip0_1_680)">
        <g clip-path="url(#clip1_1_680)">
            <g clip-path="url(#clip2_1_680)">
                <path fill-rule="evenodd" clip-rule="evenodd"
                    d="M0.910339 4.56598C0.910339 2.90786 2.28769 1.56348 3.98457 1.56348H61.941C63.6388 1.56348 65.0152 2.90341 65.0152 4.56598V41.7467C65.0152 43.4049 63.6379 44.7493 61.941 44.7493H3.98457C2.28678 44.7493 0.910339 43.4093 0.910339 41.7467V4.56598Z"
                    fill="white" />
                <mask id="mask0_1_680" style="mask-type:luminance" maskUnits="userSpaceOnUse" x="0"
                    y="0" width="66" height="46">
                    <path d="M65.9255 45.6387H0V0.674316H65.9255V45.6387Z" fill="white" />
                </mask>
                <g mask="url(#mask0_1_680)">
                    <path fill-rule="evenodd" clip-rule="evenodd"
                        d="M3.98453 2.45318C2.79153 2.45318 1.82064 3.4011 1.82064 4.56603V41.7468C1.82064 42.912 2.79153 43.8599 3.98453 43.8599H61.941C63.134 43.8599 64.1048 42.912 64.1048 41.7468V4.56603C64.1048 3.4011 63.134 2.45318 61.941 2.45318H3.98453ZM3.98453 45.6387C1.78742 45.6387 -4.57764e-05 43.8928 -4.57764e-05 41.7468V4.56603C-4.57764e-05 2.42027 1.78742 0.674316 3.98453 0.674316H61.941C64.1383 0.674316 65.9255 2.42027 65.9255 4.56603V41.7468C65.9255 43.8928 64.1383 45.6387 61.941 45.6387H3.98453Z"
                        fill="#484848" />
                </g>
                <path fill-rule="evenodd" clip-rule="evenodd"
                    d="M17.2895 16.1913C19.8525 16.1913 21.9302 14.1861 21.9302 11.7124C21.9302 9.23863 19.8525 7.2334 17.2895 7.2334C14.7264 7.2334 12.6488 9.23863 12.6488 11.7124C12.6488 14.1861 14.7264 16.1913 17.2895 16.1913Z"
                    fill="white" />
                <path fill-rule="evenodd" clip-rule="evenodd"
                    d="M17.2895 8.12262C15.2325 8.12262 13.5591 9.73271 13.5591 11.7121C13.5591 13.6914 15.2325 15.3017 17.2895 15.3017C19.3464 15.3017 21.0201 13.6914 21.0201 11.7121C21.0201 9.73271 19.3464 8.12262 17.2895 8.12262ZM17.2895 17.0805C14.2287 17.0805 11.7384 14.6722 11.7384 11.7121C11.7384 8.75189 14.2287 6.34375 17.2895 6.34375C20.3503 6.34375 22.8407 8.75189 22.8407 11.7121C22.8407 14.6722 20.3503 17.0805 17.2895 17.0805Z"
                    fill="#484848" />
                <path fill-rule="evenodd" clip-rule="evenodd"
                    d="M48 33.2969C48 32.3045 48.8268 31.5 49.848 31.5H58.3194C59.3399 31.5 60.1672 32.3049 60.1672 33.2969V38.4262C60.1672 39.4186 59.3406 40.2231 58.3194 40.2231H49.848C48.8273 40.2231 48 39.4182 48 38.4262V33.2969Z"
                    fill="#3782F7" />
                <path fill-rule="evenodd" clip-rule="evenodd"
                    d="M10.613 16.7848C13.5176 16.7848 15.8725 14.512 15.8725 11.7085C15.8725 8.90505 13.5176 6.63232 10.613 6.63232C7.70827 6.63232 5.35344 8.90505 5.35344 11.7085C5.35344 14.512 7.70827 16.7848 10.613 16.7848Z"
                    fill="#3782F7" />
                <path fill-rule="evenodd" clip-rule="evenodd"
                    d="M14.8424 25.1275H6.66277C6.16003 25.1275 5.75243 24.7293 5.75243 24.2381C5.75243 23.7469 6.16003 23.3486 6.66277 23.3486H14.8424C15.3452 23.3486 15.7528 23.7469 15.7528 24.2381C15.7528 24.7293 15.3452 25.1275 14.8424 25.1275Z"
                    fill="#484848" />
                <path fill-rule="evenodd" clip-rule="evenodd"
                    d="M11.5916 34.539H5.67431C5.36002 34.539 5.10535 34.2902 5.10535 33.9831C5.10535 33.6761 5.36002 33.4272 5.67431 33.4272H11.5916C11.9059 33.4272 12.1605 33.6761 12.1605 33.9831C12.1605 34.2902 11.9059 34.539 11.5916 34.539Z"
                    fill="#484848" />
                <path fill-rule="evenodd" clip-rule="evenodd"
                    d="M24.2115 34.539H16.0318C15.7175 34.539 15.4628 34.2902 15.4628 33.9831C15.4628 33.6761 15.7175 33.4272 16.0318 33.4272H24.2115C24.5258 33.4272 24.7805 33.6761 24.7805 33.9831C24.7805 34.2902 24.5258 34.539 24.2115 34.539Z"
                    fill="#484848" />
                <path fill-rule="evenodd" clip-rule="evenodd"
                    d="M20.8535 38.2593H5.67437C5.36008 38.2593 5.10541 38.0104 5.10541 37.7034C5.10541 37.3963 5.36008 37.1475 5.67437 37.1475H20.8535C21.1678 37.1475 21.4224 37.3963 21.4224 37.7034C21.4224 38.0104 21.1678 38.2593 20.8535 38.2593Z"
                    fill="#484848" />
                <path fill-rule="evenodd" clip-rule="evenodd"
                    d="M29.2395 25.1275H21.0598C20.5571 25.1275 20.1495 24.7293 20.1495 24.2381C20.1495 23.7469 20.5571 23.3486 21.0598 23.3486H29.2395C29.7422 23.3486 30.1498 23.7469 30.1498 24.2381C30.1498 24.7293 29.7422 25.1275 29.2395 25.1275Z"
                    fill="#484848" />
                <path fill-rule="evenodd" clip-rule="evenodd"
                    d="M43.6365 25.1275H35.4569C34.9541 25.1275 34.5465 24.7293 34.5465 24.2381C34.5465 23.7469 34.9541 23.3486 35.4569 23.3486H43.6365C44.1393 23.3486 44.5469 23.7469 44.5469 24.2381C44.5469 24.7293 44.1393 25.1275 43.6365 25.1275Z"
                    fill="#484848" />
                <path fill-rule="evenodd" clip-rule="evenodd"
                    d="M58.2174 25.1275H49.6699C49.1672 25.1275 48.7596 24.7293 48.7596 24.2381C48.7596 23.7469 49.1672 23.3486 49.6699 23.3486H58.2174C58.7201 23.3486 59.1277 23.7469 59.1277 24.2381C59.1277 24.7293 58.7201 25.1275 58.2174 25.1275Z"
                    fill="#484848" />
            </g>
        </g>
    </g>
    <defs>
        <clipPath id="clip0_1_680">
            <rect width="66" height="46" fill="white" transform="translate(0 0.5)" />
        </clipPath>
        <clipPath id="clip1_1_680">
            <rect width="66" height="46" fill="white" transform="translate(0 0.5)" />
        </clipPath>
        <clipPath id="clip2_1_680">
            <rect width="66" height="46" fill="white" transform="translate(0 0.5)" />
        </clipPath>
    </defs>
</svg>