<svg width="56" height="50" viewBox="0 0 56 50" fill="none" xmlns="http://www.w3.org/2000/svg">
<g clip-path="url(#clip0_1_713)">
<g clip-path="url(#clip1_1_713)">
<g clip-path="url(#clip2_1_713)">
<path d="M53.1568 1.5H2.8432C1.82523 1.5 1 2.32523 1 3.3432V9.37832C1 10.3963 1.82523 11.2215 2.8432 11.2215H53.1568C54.1748 11.2215 55 10.3963 55 9.37832V3.3432C55 2.32523 54.1748 1.5 53.1568 1.5Z" stroke="#484848" stroke-width="1.3824"/>
<path fill-rule="evenodd" clip-rule="evenodd" d="M3 11.2217H52.0909V47.5487C52.0909 48.2273 51.5408 48.7775 50.8621 48.7775H4.2288C3.55015 48.7775 3 48.2273 3 47.5487V11.2217Z" stroke="#484848" stroke-width="1.3824"/>
<path fill-rule="evenodd" clip-rule="evenodd" d="M23 22.0202L24.6366 20.3695L26.2727 22.0202L27.9091 20.3695L29.5454 22.0202L31.1819 20.3695L32.8182 22.0202V10.5H23V22.0202Z" fill="#4E89E5"/>
<path d="M32.8182 0.799805H23V11.2215H32.8182V0.799805Z" fill="#4C8CF1"/>
<path fill-rule="evenodd" clip-rule="evenodd" d="M26.8726 44.4475H8.45479C8.20366 44.4475 8 44.2316 8 43.9657V33.9822C8 33.7159 8.20366 33.5 8.45479 33.5H26.8726C27.1237 33.5 27.3272 33.7159 27.3272 33.9822V43.9657C27.3272 44.2316 27.1237 44.4475 26.8726 44.4475Z" fill="white" stroke="#484848" stroke-width="1.2288"/>
<path fill-rule="evenodd" clip-rule="evenodd" d="M12.5472 39.0805C12.2688 39.0805 12.0209 38.9531 11.8594 38.7533C11.7389 38.6045 11.6667 38.4155 11.6667 38.2096C11.6667 37.7285 12.0608 37.3389 12.5472 37.3389C13.0335 37.3389 13.4277 37.7285 13.4277 38.2096C13.4277 38.6908 13.0335 39.0805 12.5472 39.0805ZM12.5472 35.9302C11.2745 35.9302 10.2425 36.9507 10.2425 38.2096C10.2425 38.6711 10.3874 39.096 10.6258 39.4552L12.5472 42.0061L14.4743 39.4552C14.7114 39.0967 14.8517 38.6698 14.8517 38.2096C14.8517 36.9507 13.8201 35.9302 12.5472 35.9302Z" fill="#484848"/>
<path fill-rule="evenodd" clip-rule="evenodd" d="M17.1985 37.1454H23.347C23.6825 37.1454 23.9545 36.8733 23.9545 36.5378C23.9545 36.2022 23.6825 35.9302 23.347 35.9302H17.1985C16.8629 35.9302 16.5909 36.2022 16.5909 36.5378C16.5909 36.8733 16.8629 37.1454 17.1985 37.1454Z" fill="#484848"/>
<path fill-rule="evenodd" clip-rule="evenodd" d="M17.1985 39.576H21.506C21.8416 39.576 22.1136 39.304 22.1136 38.9684C22.1136 38.6329 21.8416 38.3608 21.506 38.3608H17.1985C16.8629 38.3608 16.5909 38.6329 16.5909 38.9684C16.5909 39.304 16.8629 39.576 17.1985 39.576Z" fill="#484848"/>
<path fill-rule="evenodd" clip-rule="evenodd" d="M17.1985 42.0062H22.1197C22.4552 42.0062 22.7273 41.7342 22.7273 41.3986C22.7273 41.063 22.4552 40.791 22.1197 40.791H17.1985C16.8629 40.791 16.5909 41.063 16.5909 41.3986C16.5909 41.7342 16.8629 42.0062 17.1985 42.0062Z" fill="#484848"/>
</g>
</g>
</g>
<defs>
<clipPath id="clip0_1_713">
<rect width="56" height="49" fill="white" transform="translate(0 0.5)"/>
</clipPath>
<clipPath id="clip1_1_713">
<rect width="56" height="49" fill="white" transform="translate(0 0.5)"/>
</clipPath>
<clipPath id="clip2_1_713">
<rect width="56" height="49" fill="white" transform="translate(0 0.5)"/>
</clipPath>
</defs>
</svg>
