<svg xmlns="http://www.w3.org/2000/svg" xmlns:xlink="http://www.w3.org/1999/xlink" width="500" zoomAndPan="magnify" viewBox="0 0 375 374.999991" height="500" preserveAspectRatio="xMidYMid meet" version="1.0"><defs><clipPath id="4ff255d8fa"><path d="M 72 182 L 183 182 L 183 271 L 72 271 Z M 72 182 " clip-rule="nonzero"/></clipPath><clipPath id="bf373ac185"><path d="M 178.1875 182.699219 L 159.804688 182.699219 C 159.503906 182.699219 159.207031 182.726562 158.910156 182.789062 C 158.613281 182.847656 158.324219 182.933594 158.046875 183.050781 C 157.769531 183.164062 157.503906 183.304688 157.253906 183.472656 C 157 183.640625 156.769531 183.832031 156.554688 184.046875 C 156.34375 184.257812 156.152344 184.492188 155.984375 184.742188 C 155.816406 184.992188 155.675781 185.257812 155.558594 185.535156 C 155.445312 185.816406 155.355469 186.101562 155.296875 186.398438 C 155.238281 186.695312 155.210938 186.992188 155.210938 187.296875 C 155.210938 187.597656 155.238281 187.894531 155.296875 188.191406 C 155.355469 188.488281 155.445312 188.773438 155.558594 189.054688 C 155.675781 189.332031 155.816406 189.597656 155.984375 189.847656 C 156.152344 190.097656 156.34375 190.332031 156.554688 190.542969 C 156.769531 190.757812 157 190.949219 157.253906 191.117188 C 157.503906 191.285156 157.769531 191.425781 158.046875 191.539062 C 158.324219 191.65625 158.613281 191.742188 158.910156 191.800781 C 159.207031 191.863281 159.503906 191.890625 159.804688 191.890625 L 164.402344 191.890625 L 164.402344 224.0625 C 164.402344 225.265625 164.34375 226.46875 164.226562 227.664062 C 164.105469 228.863281 163.929688 230.054688 163.695312 231.234375 C 163.460938 232.414062 163.167969 233.582031 162.820312 234.734375 C 162.46875 235.886719 162.0625 237.019531 161.601562 238.132812 C 161.140625 239.246094 160.628906 240.332031 160.058594 241.394531 C 159.492188 242.457031 158.875 243.488281 158.207031 244.488281 C 157.535156 245.488281 156.820312 246.457031 156.054688 247.386719 C 155.292969 248.316406 154.484375 249.207031 153.632812 250.058594 C 152.78125 250.910156 151.890625 251.71875 150.960938 252.484375 C 150.027344 253.246094 149.0625 253.964844 148.0625 254.632812 C 147.058594 255.300781 146.027344 255.917969 144.96875 256.488281 C 143.90625 257.054688 142.816406 257.570312 141.707031 258.03125 C 140.59375 258.492188 139.460938 258.894531 138.308594 259.246094 C 137.15625 259.59375 135.988281 259.886719 134.808594 260.121094 C 133.625 260.355469 132.4375 260.535156 131.238281 260.652344 C 130.039062 260.769531 128.839844 260.828125 127.636719 260.828125 C 126.429688 260.828125 125.230469 260.769531 124.03125 260.652344 C 122.832031 260.535156 121.644531 260.355469 120.460938 260.121094 C 119.28125 259.886719 118.113281 259.59375 116.960938 259.246094 C 115.808594 258.894531 114.675781 258.492188 113.566406 258.03125 C 112.453125 257.570312 111.367188 257.054688 110.304688 256.488281 C 109.242188 255.917969 108.210938 255.300781 107.207031 254.632812 C 106.207031 253.964844 105.242188 253.246094 104.308594 252.484375 C 103.378906 251.71875 102.488281 250.910156 101.636719 250.058594 C 100.785156 249.207031 99.976562 248.316406 99.214844 247.386719 C 98.449219 246.457031 97.734375 245.488281 97.066406 244.488281 C 96.394531 243.488281 95.777344 242.457031 95.210938 241.394531 C 94.640625 240.332031 94.128906 239.246094 93.667969 238.132812 C 93.207031 237.019531 92.800781 235.886719 92.453125 234.734375 C 92.101562 233.582031 91.808594 232.414062 91.574219 231.234375 C 91.339844 230.054688 91.164062 228.863281 91.046875 227.664062 C 90.925781 226.46875 90.867188 225.265625 90.867188 224.0625 L 90.867188 191.890625 L 95.464844 191.890625 C 95.765625 191.890625 96.066406 191.863281 96.359375 191.800781 C 96.65625 191.742188 96.945312 191.65625 97.222656 191.539062 C 97.5 191.425781 97.765625 191.285156 98.015625 191.117188 C 98.269531 190.949219 98.5 190.757812 98.714844 190.542969 C 98.925781 190.332031 99.117188 190.097656 99.285156 189.847656 C 99.453125 189.597656 99.59375 189.332031 99.710938 189.054688 C 99.824219 188.773438 99.914062 188.488281 99.972656 188.191406 C 100.03125 187.894531 100.058594 187.597656 100.058594 187.296875 C 100.058594 186.992188 100.03125 186.695312 99.972656 186.398438 C 99.914062 186.101562 99.824219 185.816406 99.710938 185.535156 C 99.59375 185.257812 99.453125 184.992188 99.285156 184.742188 C 99.117188 184.492188 98.925781 184.257812 98.714844 184.046875 C 98.5 183.832031 98.269531 183.640625 98.015625 183.472656 C 97.765625 183.304688 97.5 183.164062 97.222656 183.050781 C 96.945312 182.933594 96.65625 182.847656 96.359375 182.789062 C 96.066406 182.726562 95.765625 182.699219 95.464844 182.699219 L 77.082031 182.699219 C 76.777344 182.699219 76.480469 182.726562 76.183594 182.789062 C 75.886719 182.847656 75.601562 182.933594 75.320312 183.050781 C 75.042969 183.164062 74.777344 183.304688 74.527344 183.472656 C 74.277344 183.640625 74.042969 183.832031 73.832031 184.046875 C 73.617188 184.257812 73.425781 184.492188 73.257812 184.742188 C 73.09375 184.992188 72.949219 185.257812 72.835938 185.535156 C 72.71875 185.816406 72.632812 186.101562 72.574219 186.398438 C 72.515625 186.695312 72.484375 186.992188 72.484375 187.296875 C 72.484375 187.597656 72.515625 187.894531 72.574219 188.191406 C 72.632812 188.488281 72.71875 188.773438 72.835938 189.054688 C 72.949219 189.332031 73.09375 189.597656 73.257812 189.847656 C 73.425781 190.097656 73.617188 190.332031 73.832031 190.542969 C 74.042969 190.757812 74.277344 190.949219 74.527344 191.117188 C 74.777344 191.285156 75.042969 191.425781 75.320312 191.539062 C 75.601562 191.65625 75.886719 191.742188 76.183594 191.800781 C 76.480469 191.863281 76.777344 191.890625 77.082031 191.890625 L 81.675781 191.890625 L 81.675781 224.0625 C 81.675781 225.566406 81.75 227.070312 81.898438 228.566406 C 82.046875 230.0625 82.265625 231.550781 82.558594 233.027344 C 82.851562 234.503906 83.21875 235.960938 83.65625 237.402344 C 84.09375 238.84375 84.597656 240.257812 85.175781 241.648438 C 85.75 243.039062 86.394531 244.398438 87.101562 245.726562 C 87.8125 247.054688 88.585938 248.34375 89.421875 249.59375 C 90.257812 250.847656 91.152344 252.054688 92.109375 253.21875 C 93.0625 254.382812 94.074219 255.496094 95.136719 256.558594 C 96.203125 257.625 97.316406 258.632812 98.480469 259.589844 C 99.644531 260.542969 100.851562 261.4375 102.101562 262.273438 C 103.351562 263.109375 104.644531 263.882812 105.96875 264.59375 C 107.296875 265.304688 108.65625 265.945312 110.046875 266.523438 C 111.4375 267.097656 112.855469 267.605469 114.292969 268.042969 C 115.734375 268.476562 117.191406 268.84375 118.667969 269.136719 C 120.144531 269.429688 121.632812 269.652344 123.128906 269.800781 C 124.628906 269.945312 126.128906 270.019531 127.636719 270.019531 C 129.140625 270.019531 130.640625 269.945312 132.140625 269.800781 C 133.636719 269.652344 135.125 269.429688 136.601562 269.136719 C 138.078125 268.84375 139.535156 268.476562 140.976562 268.042969 C 142.417969 267.605469 143.832031 267.097656 145.222656 266.523438 C 146.613281 265.945312 147.972656 265.304688 149.300781 264.59375 C 150.628906 263.882812 151.917969 263.109375 153.167969 262.273438 C 154.417969 261.4375 155.628906 260.542969 156.789062 259.589844 C 157.953125 258.632812 159.066406 257.625 160.132812 256.558594 C 161.195312 255.496094 162.207031 254.382812 163.160156 253.21875 C 164.117188 252.054688 165.011719 250.847656 165.847656 249.59375 C 166.683594 248.34375 167.457031 247.054688 168.167969 245.726562 C 168.875 244.398438 169.519531 243.039062 170.09375 241.648438 C 170.671875 240.257812 171.175781 238.84375 171.613281 237.402344 C 172.050781 235.960938 172.417969 234.503906 172.710938 233.027344 C 173.003906 231.550781 173.226562 230.0625 173.371094 228.566406 C 173.519531 227.070312 173.59375 225.566406 173.59375 224.0625 L 173.59375 191.890625 L 178.1875 191.890625 C 178.492188 191.890625 178.789062 191.863281 179.085938 191.800781 C 179.382812 191.742188 179.667969 191.65625 179.949219 191.539062 C 180.226562 191.425781 180.492188 191.285156 180.742188 191.117188 C 180.992188 190.949219 181.226562 190.757812 181.4375 190.542969 C 181.652344 190.332031 181.84375 190.097656 182.011719 189.847656 C 182.179688 189.597656 182.320312 189.332031 182.433594 189.054688 C 182.550781 188.773438 182.636719 188.488281 182.695312 188.191406 C 182.753906 187.894531 182.785156 187.597656 182.785156 187.296875 C 182.785156 186.992188 182.753906 186.695312 182.695312 186.398438 C 182.636719 186.101562 182.550781 185.816406 182.433594 185.535156 C 182.320312 185.257812 182.179688 184.992188 182.011719 184.742188 C 181.84375 184.492188 181.652344 184.257812 181.4375 184.046875 C 181.226562 183.832031 180.992188 183.640625 180.742188 183.472656 C 180.492188 183.304688 180.226562 183.164062 179.949219 183.050781 C 179.667969 182.933594 179.382812 182.847656 179.085938 182.789062 C 178.789062 182.726562 178.492188 182.699219 178.1875 182.699219 Z M 178.1875 182.699219 " clip-rule="nonzero"/></clipPath><linearGradient x1="51.442507" gradientTransform="matrix(0.574481, 0, 0, 0.574481, 40.313992, 40.227819)" y1="395.442492" x2="223.442512" gradientUnits="userSpaceOnUse" y2="223.442483" id="e0bc06944f"><stop stop-opacity="1" stop-color="rgb(0%, 43.119812%, 64.422607%)" offset="0"/><stop stop-opacity="1" stop-color="rgb(0%, 43.281555%, 64.512634%)" offset="0.0078125"/><stop stop-opacity="1" stop-color="rgb(0%, 43.608093%, 64.69574%)" offset="0.015625"/><stop stop-opacity="1" stop-color="rgb(0%, 43.933105%, 64.877319%)" offset="0.0234375"/><stop stop-opacity="1" stop-color="rgb(0%, 44.258118%, 65.060425%)" offset="0.03125"/><stop stop-opacity="1" stop-color="rgb(0%, 44.584656%, 65.24353%)" offset="0.0390625"/><stop stop-opacity="1" stop-color="rgb(0%, 44.909668%, 65.42511%)" offset="0.046875"/><stop stop-opacity="1" stop-color="rgb(0%, 45.23468%, 65.608215%)" offset="0.0546875"/><stop stop-opacity="1" stop-color="rgb(0%, 45.561218%, 65.789795%)" offset="0.0625"/><stop stop-opacity="1" stop-color="rgb(0%, 45.88623%, 65.9729%)" offset="0.0703125"/><stop stop-opacity="1" stop-color="rgb(0%, 46.211243%, 66.15448%)" offset="0.078125"/><stop stop-opacity="1" stop-color="rgb(0%, 46.537781%, 66.337585%)" offset="0.0859375"/><stop stop-opacity="1" stop-color="rgb(0%, 46.862793%, 66.519165%)" offset="0.09375"/><stop stop-opacity="1" stop-color="rgb(0%, 47.187805%, 66.702271%)" offset="0.101562"/><stop stop-opacity="1" stop-color="rgb(0%, 47.514343%, 66.88385%)" offset="0.109375"/><stop stop-opacity="1" stop-color="rgb(0%, 47.839355%, 67.066956%)" offset="0.117187"/><stop stop-opacity="1" stop-color="rgb(0%, 48.164368%, 67.250061%)" offset="0.125"/><stop stop-opacity="1" stop-color="rgb(0%, 48.490906%, 67.431641%)" offset="0.132813"/><stop stop-opacity="1" stop-color="rgb(0%, 48.815918%, 67.614746%)" offset="0.140625"/><stop stop-opacity="1" stop-color="rgb(0%, 49.14093%, 67.796326%)" offset="0.148437"/><stop stop-opacity="1" stop-color="rgb(0%, 49.467468%, 67.979431%)" offset="0.15625"/><stop stop-opacity="1" stop-color="rgb(0%, 49.79248%, 68.161011%)" offset="0.164062"/><stop stop-opacity="1" stop-color="rgb(0%, 50.117493%, 68.344116%)" offset="0.171875"/><stop stop-opacity="1" stop-color="rgb(0%, 50.444031%, 68.525696%)" offset="0.179688"/><stop stop-opacity="1" stop-color="rgb(0%, 50.769043%, 68.708801%)" offset="0.1875"/><stop stop-opacity="1" stop-color="rgb(0%, 51.094055%, 68.890381%)" offset="0.195312"/><stop stop-opacity="1" stop-color="rgb(0%, 51.420593%, 69.073486%)" offset="0.203125"/><stop stop-opacity="1" stop-color="rgb(0%, 51.745605%, 69.256592%)" offset="0.210937"/><stop stop-opacity="1" stop-color="rgb(0%, 52.070618%, 69.438171%)" offset="0.21875"/><stop stop-opacity="1" stop-color="rgb(0%, 52.397156%, 69.621277%)" offset="0.226563"/><stop stop-opacity="1" stop-color="rgb(0%, 52.722168%, 69.802856%)" offset="0.234375"/><stop stop-opacity="1" stop-color="rgb(0%, 53.04718%, 69.985962%)" offset="0.242188"/><stop stop-opacity="1" stop-color="rgb(0%, 53.373718%, 70.167542%)" offset="0.25"/><stop stop-opacity="1" stop-color="rgb(0%, 53.69873%, 70.350647%)" offset="0.257812"/><stop stop-opacity="1" stop-color="rgb(0%, 54.023743%, 70.532227%)" offset="0.265625"/><stop stop-opacity="1" stop-color="rgb(0%, 54.350281%, 70.715332%)" offset="0.273437"/><stop stop-opacity="1" stop-color="rgb(0%, 54.675293%, 70.898438%)" offset="0.28125"/><stop stop-opacity="1" stop-color="rgb(0%, 55.000305%, 71.080017%)" offset="0.289063"/><stop stop-opacity="1" stop-color="rgb(0%, 55.325317%, 71.263123%)" offset="0.296875"/><stop stop-opacity="1" stop-color="rgb(0%, 55.651855%, 71.444702%)" offset="0.304688"/><stop stop-opacity="1" stop-color="rgb(0%, 55.976868%, 71.627808%)" offset="0.3125"/><stop stop-opacity="1" stop-color="rgb(0%, 56.30188%, 71.809387%)" offset="0.320313"/><stop stop-opacity="1" stop-color="rgb(0%, 56.628418%, 71.992493%)" offset="0.328125"/><stop stop-opacity="1" stop-color="rgb(0%, 56.95343%, 72.174072%)" offset="0.335938"/><stop stop-opacity="1" stop-color="rgb(0%, 57.278442%, 72.357178%)" offset="0.34375"/><stop stop-opacity="1" stop-color="rgb(0%, 57.60498%, 72.538757%)" offset="0.351562"/><stop stop-opacity="1" stop-color="rgb(0%, 57.929993%, 72.721863%)" offset="0.359375"/><stop stop-opacity="1" stop-color="rgb(0%, 58.255005%, 72.904968%)" offset="0.367187"/><stop stop-opacity="1" stop-color="rgb(0%, 58.581543%, 73.086548%)" offset="0.375"/><stop stop-opacity="1" stop-color="rgb(0%, 58.906555%, 73.269653%)" offset="0.382813"/><stop stop-opacity="1" stop-color="rgb(0%, 59.231567%, 73.451233%)" offset="0.390625"/><stop stop-opacity="1" stop-color="rgb(0%, 59.558105%, 73.634338%)" offset="0.398438"/><stop stop-opacity="1" stop-color="rgb(0%, 59.883118%, 73.815918%)" offset="0.40625"/><stop stop-opacity="1" stop-color="rgb(0%, 60.20813%, 73.999023%)" offset="0.414063"/><stop stop-opacity="1" stop-color="rgb(0%, 60.534668%, 74.180603%)" offset="0.421875"/><stop stop-opacity="1" stop-color="rgb(0%, 60.85968%, 74.363708%)" offset="0.429688"/><stop stop-opacity="1" stop-color="rgb(0%, 61.184692%, 74.545288%)" offset="0.4375"/><stop stop-opacity="1" stop-color="rgb(0%, 61.51123%, 74.728394%)" offset="0.44186"/><stop stop-opacity="1" stop-color="rgb(0%, 61.6745%, 74.819946%)" offset="0.445312"/><stop stop-opacity="1" stop-color="rgb(0%, 61.836243%, 74.911499%)" offset="0.453125"/><stop stop-opacity="1" stop-color="rgb(0%, 62.161255%, 75.093079%)" offset="0.460937"/><stop stop-opacity="1" stop-color="rgb(0%, 62.487793%, 75.276184%)" offset="0.46875"/><stop stop-opacity="1" stop-color="rgb(0%, 62.812805%, 75.457764%)" offset="0.476563"/><stop stop-opacity="1" stop-color="rgb(0%, 63.137817%, 75.640869%)" offset="0.484375"/><stop stop-opacity="1" stop-color="rgb(0%, 63.464355%, 75.822449%)" offset="0.492188"/><stop stop-opacity="1" stop-color="rgb(0%, 63.789368%, 76.005554%)" offset="0.5"/><stop stop-opacity="1" stop-color="rgb(0%, 64.11438%, 76.187134%)" offset="0.507812"/><stop stop-opacity="1" stop-color="rgb(0%, 64.440918%, 76.370239%)" offset="0.515625"/><stop stop-opacity="1" stop-color="rgb(0%, 64.76593%, 76.551819%)" offset="0.523438"/><stop stop-opacity="1" stop-color="rgb(0%, 65.090942%, 76.734924%)" offset="0.53125"/><stop stop-opacity="1" stop-color="rgb(0%, 65.41748%, 76.91803%)" offset="0.539062"/><stop stop-opacity="1" stop-color="rgb(0%, 65.742493%, 77.099609%)" offset="0.546875"/><stop stop-opacity="1" stop-color="rgb(0%, 66.067505%, 77.282715%)" offset="0.554687"/><stop stop-opacity="1" stop-color="rgb(0%, 66.392517%, 77.464294%)" offset="0.55814"/><stop stop-opacity="1" stop-color="rgb(0%, 66.555786%, 77.555847%)" offset="0.5625"/><stop stop-opacity="1" stop-color="rgb(0%, 66.719055%, 77.6474%)" offset="0.570313"/><stop stop-opacity="1" stop-color="rgb(0%, 67.044067%, 77.828979%)" offset="0.578125"/><stop stop-opacity="1" stop-color="rgb(0%, 67.36908%, 78.012085%)" offset="0.585938"/><stop stop-opacity="1" stop-color="rgb(0%, 67.695618%, 78.193665%)" offset="0.59375"/><stop stop-opacity="1" stop-color="rgb(0%, 68.02063%, 78.37677%)" offset="0.601563"/><stop stop-opacity="1" stop-color="rgb(0%, 68.345642%, 78.55835%)" offset="0.609375"/><stop stop-opacity="1" stop-color="rgb(0%, 68.67218%, 78.741455%)" offset="0.617188"/><stop stop-opacity="1" stop-color="rgb(0%, 68.997192%, 78.924561%)" offset="0.625"/><stop stop-opacity="1" stop-color="rgb(0%, 69.322205%, 79.10614%)" offset="0.632812"/><stop stop-opacity="1" stop-color="rgb(0%, 69.648743%, 79.289246%)" offset="0.640625"/><stop stop-opacity="1" stop-color="rgb(0%, 69.973755%, 79.470825%)" offset="0.648437"/><stop stop-opacity="1" stop-color="rgb(0%, 70.298767%, 79.653931%)" offset="0.65625"/><stop stop-opacity="1" stop-color="rgb(0%, 70.625305%, 79.83551%)" offset="0.664063"/><stop stop-opacity="1" stop-color="rgb(0%, 70.950317%, 80.018616%)" offset="0.671875"/><stop stop-opacity="1" stop-color="rgb(0%, 71.27533%, 80.200195%)" offset="0.679688"/><stop stop-opacity="1" stop-color="rgb(0%, 71.601868%, 80.383301%)" offset="0.6875"/><stop stop-opacity="1" stop-color="rgb(0%, 71.92688%, 80.566406%)" offset="0.695313"/><stop stop-opacity="1" stop-color="rgb(0%, 72.251892%, 80.747986%)" offset="0.703125"/><stop stop-opacity="1" stop-color="rgb(0%, 72.57843%, 80.931091%)" offset="0.710938"/><stop stop-opacity="1" stop-color="rgb(0%, 72.903442%, 81.112671%)" offset="0.71875"/><stop stop-opacity="1" stop-color="rgb(0%, 73.228455%, 81.295776%)" offset="0.726562"/><stop stop-opacity="1" stop-color="rgb(0%, 73.554993%, 81.477356%)" offset="0.734375"/><stop stop-opacity="1" stop-color="rgb(0%, 73.880005%, 81.660461%)" offset="0.742187"/><stop stop-opacity="1" stop-color="rgb(0%, 74.205017%, 81.842041%)" offset="0.75"/><stop stop-opacity="1" stop-color="rgb(0%, 74.531555%, 82.025146%)" offset="0.757813"/><stop stop-opacity="1" stop-color="rgb(0%, 74.856567%, 82.206726%)" offset="0.765625"/><stop stop-opacity="1" stop-color="rgb(0%, 75.18158%, 82.389832%)" offset="0.773438"/><stop stop-opacity="1" stop-color="rgb(0%, 75.508118%, 82.572937%)" offset="0.78125"/><stop stop-opacity="1" stop-color="rgb(0%, 75.83313%, 82.754517%)" offset="0.789063"/><stop stop-opacity="1" stop-color="rgb(0%, 76.158142%, 82.937622%)" offset="0.796875"/><stop stop-opacity="1" stop-color="rgb(0%, 76.48468%, 83.119202%)" offset="0.804688"/><stop stop-opacity="1" stop-color="rgb(0%, 76.809692%, 83.302307%)" offset="0.8125"/><stop stop-opacity="1" stop-color="rgb(0%, 77.134705%, 83.483887%)" offset="0.820312"/><stop stop-opacity="1" stop-color="rgb(0%, 77.461243%, 83.666992%)" offset="0.828125"/><stop stop-opacity="1" stop-color="rgb(0%, 77.786255%, 83.848572%)" offset="0.835937"/><stop stop-opacity="1" stop-color="rgb(0%, 78.111267%, 84.031677%)" offset="0.84375"/><stop stop-opacity="1" stop-color="rgb(0%, 78.436279%, 84.213257%)" offset="0.851563"/><stop stop-opacity="1" stop-color="rgb(0%, 78.762817%, 84.396362%)" offset="0.859375"/><stop stop-opacity="1" stop-color="rgb(0%, 79.08783%, 84.579468%)" offset="0.867188"/><stop stop-opacity="1" stop-color="rgb(0%, 79.412842%, 84.761047%)" offset="0.875"/><stop stop-opacity="1" stop-color="rgb(0%, 79.73938%, 84.944153%)" offset="0.882813"/><stop stop-opacity="1" stop-color="rgb(0%, 80.064392%, 85.125732%)" offset="0.890625"/><stop stop-opacity="1" stop-color="rgb(0%, 80.389404%, 85.308838%)" offset="0.898438"/><stop stop-opacity="1" stop-color="rgb(0%, 80.715942%, 85.490417%)" offset="0.90625"/><stop stop-opacity="1" stop-color="rgb(0%, 81.040955%, 85.673523%)" offset="0.914062"/><stop stop-opacity="1" stop-color="rgb(0%, 81.365967%, 85.855103%)" offset="0.921875"/><stop stop-opacity="1" stop-color="rgb(0%, 81.692505%, 86.038208%)" offset="0.929687"/><stop stop-opacity="1" stop-color="rgb(0%, 82.017517%, 86.219788%)" offset="0.9375"/><stop stop-opacity="1" stop-color="rgb(0%, 82.342529%, 86.402893%)" offset="0.945313"/><stop stop-opacity="1" stop-color="rgb(0%, 82.669067%, 86.585999%)" offset="0.953125"/><stop stop-opacity="1" stop-color="rgb(0%, 82.99408%, 86.767578%)" offset="0.960938"/><stop stop-opacity="1" stop-color="rgb(0%, 83.319092%, 86.950684%)" offset="0.96875"/><stop stop-opacity="1" stop-color="rgb(0%, 83.64563%, 87.132263%)" offset="0.976563"/><stop stop-opacity="1" stop-color="rgb(0%, 83.970642%, 87.315369%)" offset="0.984375"/><stop stop-opacity="1" stop-color="rgb(0%, 84.034729%, 87.481689%)" offset="1"/></linearGradient><clipPath id="1a77bd3719"><path d="M 44.910156 44.910156 L 329.910156 44.910156 L 329.910156 329.910156 L 44.910156 329.910156 Z M 44.910156 44.910156 " clip-rule="nonzero"/></clipPath><clipPath id="889eef1477"><path d="M 320.65625 122.746094 C 320.640625 122.453125 320.601562 122.164062 320.535156 121.878906 C 320.464844 121.59375 320.371094 121.320312 320.25 121.050781 C 320.128906 120.785156 319.984375 120.53125 319.8125 120.292969 C 319.644531 120.054688 319.453125 119.832031 319.242188 119.628906 C 319.03125 119.425781 318.800781 119.246094 318.554688 119.089844 C 318.308594 118.929688 318.046875 118.796875 317.777344 118.6875 C 317.503906 118.578125 317.222656 118.496094 316.9375 118.441406 C 316.648438 118.382812 316.359375 118.355469 316.066406 118.355469 L 279.296875 118.355469 L 279.296875 95.378906 C 279.296875 93.722656 279.21875 92.070312 279.054688 90.421875 C 278.890625 88.773438 278.648438 87.140625 278.328125 85.515625 C 278.003906 83.890625 277.601562 82.289062 277.121094 80.703125 C 276.640625 79.117188 276.082031 77.5625 275.449219 76.03125 C 274.816406 74.503906 274.109375 73.007812 273.328125 71.546875 C 272.546875 70.085938 271.699219 68.667969 270.777344 67.292969 C 269.859375 65.914062 268.875 64.585938 267.824219 63.308594 C 266.773438 62.027344 265.660156 60.800781 264.492188 59.628906 C 263.320312 58.460938 262.09375 57.347656 260.816406 56.300781 C 259.535156 55.25 258.207031 54.261719 256.832031 53.34375 C 255.453125 52.421875 254.035156 51.574219 252.574219 50.792969 C 251.113281 50.011719 249.621094 49.304688 248.089844 48.671875 C 246.558594 48.039062 245.003906 47.480469 243.417969 47 C 241.835938 46.519531 240.230469 46.117188 238.605469 45.796875 C 236.984375 45.472656 235.347656 45.230469 233.699219 45.066406 C 232.050781 44.90625 230.398438 44.824219 228.742188 44.824219 C 227.089844 44.824219 225.4375 44.90625 223.789062 45.066406 C 222.140625 45.230469 220.503906 45.472656 218.882812 45.796875 C 217.257812 46.117188 215.652344 46.519531 214.070312 47 C 212.484375 47.480469 210.925781 48.039062 209.398438 48.671875 C 207.867188 49.304688 206.371094 50.011719 204.914062 50.792969 C 203.453125 51.574219 202.035156 52.421875 200.65625 53.34375 C 199.28125 54.261719 197.953125 55.25 196.671875 56.300781 C 195.390625 57.347656 194.167969 58.460938 192.996094 59.628906 C 191.824219 60.800781 190.714844 62.027344 189.664062 63.308594 C 188.613281 64.585938 187.628906 65.914062 186.710938 67.292969 C 185.789062 68.667969 184.9375 70.085938 184.160156 71.546875 C 183.378906 73.007812 182.671875 74.503906 182.039062 76.03125 C 181.402344 77.5625 180.847656 79.117188 180.367188 80.703125 C 179.886719 82.289062 179.484375 83.890625 179.160156 85.515625 C 178.835938 87.140625 178.59375 88.773438 178.433594 90.421875 C 178.269531 92.070312 178.1875 93.722656 178.1875 95.378906 L 178.1875 118.355469 L 141.421875 118.355469 C 141.128906 118.355469 140.835938 118.386719 140.550781 118.441406 C 140.261719 118.496094 139.980469 118.582031 139.707031 118.691406 C 139.433594 118.800781 139.175781 118.933594 138.929688 119.09375 C 138.679688 119.253906 138.453125 119.4375 138.238281 119.640625 C 138.027344 119.84375 137.835938 120.066406 137.667969 120.304688 C 137.5 120.546875 137.355469 120.800781 137.234375 121.066406 C 137.113281 121.335938 137.019531 121.613281 136.953125 121.898438 C 136.882812 122.1875 136.84375 122.476562 136.832031 122.769531 L 135.339844 159.71875 L 49.503906 159.71875 C 49.203125 159.71875 48.90625 159.75 48.609375 159.808594 C 48.3125 159.867188 48.027344 159.953125 47.746094 160.070312 C 47.46875 160.183594 47.203125 160.328125 46.953125 160.496094 C 46.703125 160.660156 46.46875 160.851562 46.257812 161.066406 C 46.042969 161.277344 45.851562 161.511719 45.683594 161.761719 C 45.515625 162.011719 45.375 162.277344 45.257812 162.558594 C 45.144531 162.835938 45.058594 163.125 45 163.417969 C 44.9375 163.714844 44.910156 164.015625 44.910156 164.316406 L 44.910156 313.679688 C 44.910156 314.207031 44.9375 314.734375 44.988281 315.257812 C 45.042969 315.78125 45.117188 316.300781 45.222656 316.816406 C 45.324219 317.335938 45.453125 317.84375 45.605469 318.347656 C 45.757812 318.851562 45.9375 319.347656 46.140625 319.832031 C 46.339844 320.320312 46.566406 320.796875 46.8125 321.261719 C 47.0625 321.722656 47.332031 322.175781 47.625 322.613281 C 47.917969 323.050781 48.230469 323.472656 48.566406 323.878906 C 48.902344 324.289062 49.253906 324.675781 49.625 325.050781 C 50 325.421875 50.386719 325.773438 50.796875 326.109375 C 51.203125 326.445312 51.625 326.757812 52.0625 327.050781 C 52.5 327.34375 52.953125 327.613281 53.417969 327.863281 C 53.878906 328.109375 54.355469 328.335938 54.84375 328.535156 C 55.328125 328.738281 55.824219 328.917969 56.328125 329.070312 C 56.832031 329.222656 57.34375 329.351562 57.859375 329.453125 C 58.375 329.558594 58.894531 329.636719 59.417969 329.6875 C 59.941406 329.738281 60.46875 329.765625 60.996094 329.765625 L 325.257812 329.765625 C 325.566406 329.765625 325.875 329.734375 326.179688 329.671875 C 326.484375 329.609375 326.777344 329.519531 327.0625 329.394531 C 327.347656 329.273438 327.617188 329.125 327.875 328.949219 C 328.128906 328.769531 328.363281 328.570312 328.578125 328.347656 C 328.792969 328.121094 328.980469 327.878906 329.148438 327.613281 C 329.3125 327.351562 329.449219 327.074219 329.558594 326.785156 C 329.667969 326.492188 329.746094 326.195312 329.792969 325.886719 C 329.84375 325.582031 329.859375 325.273438 329.847656 324.964844 Z M 187.382812 95.378906 C 187.382812 94.023438 187.449219 92.671875 187.582031 91.324219 C 187.714844 89.976562 187.910156 88.636719 188.175781 87.308594 C 188.441406 85.980469 188.769531 84.667969 189.164062 83.371094 C 189.554688 82.074219 190.011719 80.800781 190.53125 79.550781 C 191.046875 78.296875 191.625 77.074219 192.265625 75.878906 C 192.902344 74.683594 193.597656 73.523438 194.351562 72.398438 C 195.105469 71.273438 195.910156 70.183594 196.769531 69.136719 C 197.628906 68.089844 198.539062 67.089844 199.496094 66.128906 C 200.453125 65.171875 201.457031 64.261719 202.503906 63.402344 C 203.550781 62.542969 204.636719 61.738281 205.765625 60.984375 C 206.890625 60.234375 208.050781 59.539062 209.246094 58.898438 C 210.441406 58.261719 211.664062 57.683594 212.914062 57.164062 C 214.167969 56.644531 215.441406 56.191406 216.738281 55.796875 C 218.03125 55.402344 219.34375 55.074219 220.675781 54.808594 C 222.003906 54.546875 223.339844 54.347656 224.691406 54.214844 C 226.039062 54.082031 227.390625 54.015625 228.742188 54.015625 C 230.097656 54.015625 231.449219 54.082031 232.796875 54.214844 C 234.144531 54.347656 235.484375 54.546875 236.8125 54.808594 C 238.140625 55.074219 239.453125 55.402344 240.75 55.796875 C 242.046875 56.191406 243.320312 56.644531 244.574219 57.164062 C 245.824219 57.683594 247.046875 58.261719 248.242188 58.898438 C 249.4375 59.539062 250.597656 60.234375 251.722656 60.984375 C 252.851562 61.738281 253.9375 62.542969 254.984375 63.402344 C 256.03125 64.261719 257.035156 65.171875 257.992188 66.128906 C 258.949219 67.089844 259.859375 68.089844 260.71875 69.136719 C 261.578125 70.183594 262.382812 71.273438 263.136719 72.398438 C 263.886719 73.523438 264.582031 74.683594 265.222656 75.878906 C 265.859375 77.074219 266.4375 78.296875 266.957031 79.550781 C 267.476562 80.800781 267.933594 82.074219 268.324219 83.371094 C 268.71875 84.667969 269.046875 85.980469 269.3125 87.308594 C 269.574219 88.636719 269.773438 89.976562 269.90625 91.324219 C 270.039062 92.671875 270.105469 94.023438 270.105469 95.378906 L 270.105469 118.355469 L 187.382812 118.355469 Z M 201.167969 313.679688 C 201.167969 314.132812 201.125 314.582031 201.035156 315.023438 C 200.945312 315.46875 200.816406 315.898438 200.640625 316.316406 C 200.46875 316.734375 200.257812 317.132812 200.003906 317.507812 C 199.753906 317.886719 199.46875 318.234375 199.148438 318.554688 C 198.828125 318.875 198.480469 319.160156 198.105469 319.410156 C 197.726562 319.664062 197.332031 319.875 196.914062 320.046875 C 196.492188 320.222656 196.0625 320.351562 195.621094 320.441406 C 195.175781 320.53125 194.726562 320.574219 194.273438 320.574219 L 60.996094 320.574219 C 60.542969 320.574219 60.09375 320.53125 59.652344 320.441406 C 59.207031 320.351562 58.777344 320.222656 58.359375 320.046875 C 57.941406 319.875 57.542969 319.664062 57.167969 319.410156 C 56.789062 319.160156 56.441406 318.875 56.121094 318.554688 C 55.800781 318.234375 55.515625 317.886719 55.265625 317.507812 C 55.011719 317.132812 54.800781 316.734375 54.628906 316.316406 C 54.453125 315.898438 54.324219 315.46875 54.234375 315.023438 C 54.144531 314.582031 54.101562 314.132812 54.101562 313.679688 L 54.101562 168.910156 L 201.167969 168.910156 Z M 208.804688 320.574219 C 209.84375 318.394531 210.363281 316.097656 210.359375 313.679688 L 210.359375 164.316406 C 210.359375 164.015625 210.332031 163.714844 210.273438 163.417969 C 210.214844 163.125 210.125 162.835938 210.011719 162.558594 C 209.894531 162.277344 209.753906 162.011719 209.585938 161.761719 C 209.417969 161.511719 209.226562 161.277344 209.015625 161.066406 C 208.800781 160.851562 208.570312 160.660156 208.316406 160.496094 C 208.066406 160.328125 207.800781 160.183594 207.523438 160.070312 C 207.246094 159.953125 206.957031 159.867188 206.660156 159.808594 C 206.363281 159.75 206.066406 159.71875 205.765625 159.71875 L 144.535156 159.71875 L 145.835938 127.550781 L 178.1875 127.550781 L 178.1875 136.742188 L 173.59375 136.742188 C 173.292969 136.742188 172.992188 136.769531 172.695312 136.828125 C 172.402344 136.886719 172.113281 136.976562 171.835938 137.089844 C 171.554688 137.207031 171.292969 137.347656 171.039062 137.515625 C 170.789062 137.683594 170.558594 137.875 170.34375 138.085938 C 170.128906 138.300781 169.941406 138.53125 169.773438 138.78125 C 169.605469 139.035156 169.464844 139.300781 169.347656 139.578125 C 169.230469 139.855469 169.144531 140.144531 169.085938 140.441406 C 169.027344 140.734375 168.996094 141.035156 168.996094 141.335938 C 168.996094 141.636719 169.027344 141.9375 169.085938 142.234375 C 169.144531 142.527344 169.230469 142.816406 169.347656 143.09375 C 169.464844 143.375 169.605469 143.640625 169.773438 143.890625 C 169.941406 144.140625 170.128906 144.371094 170.34375 144.585938 C 170.558594 144.800781 170.789062 144.988281 171.039062 145.15625 C 171.292969 145.324219 171.554688 145.46875 171.835938 145.582031 C 172.113281 145.699219 172.402344 145.785156 172.695312 145.84375 C 172.992188 145.902344 173.292969 145.933594 173.59375 145.933594 L 191.976562 145.933594 C 192.277344 145.933594 192.578125 145.902344 192.875 145.84375 C 193.167969 145.785156 193.457031 145.699219 193.734375 145.582031 C 194.015625 145.46875 194.28125 145.324219 194.53125 145.15625 C 194.78125 144.988281 195.011719 144.800781 195.226562 144.585938 C 195.441406 144.371094 195.628906 144.140625 195.796875 143.890625 C 195.964844 143.640625 196.109375 143.375 196.222656 143.09375 C 196.339844 142.816406 196.425781 142.527344 196.484375 142.234375 C 196.542969 141.9375 196.574219 141.636719 196.574219 141.335938 C 196.574219 141.035156 196.542969 140.734375 196.484375 140.441406 C 196.425781 140.144531 196.339844 139.855469 196.222656 139.578125 C 196.109375 139.300781 195.964844 139.035156 195.796875 138.78125 C 195.628906 138.53125 195.441406 138.300781 195.226562 138.085938 C 195.011719 137.875 194.78125 137.683594 194.53125 137.515625 C 194.28125 137.347656 194.015625 137.207031 193.734375 137.089844 C 193.457031 136.976562 193.167969 136.886719 192.875 136.828125 C 192.578125 136.769531 192.277344 136.742188 191.976562 136.742188 L 187.382812 136.742188 L 187.382812 127.550781 L 270.105469 127.550781 L 270.105469 136.742188 L 265.511719 136.742188 C 265.207031 136.742188 264.910156 136.769531 264.613281 136.828125 C 264.316406 136.886719 264.03125 136.976562 263.75 137.089844 C 263.472656 137.207031 263.207031 137.347656 262.957031 137.515625 C 262.707031 137.683594 262.472656 137.875 262.261719 138.085938 C 262.046875 138.300781 261.855469 138.53125 261.6875 138.78125 C 261.523438 139.035156 261.378906 139.300781 261.265625 139.578125 C 261.148438 139.855469 261.0625 140.144531 261.003906 140.441406 C 260.945312 140.734375 260.914062 141.035156 260.914062 141.335938 C 260.914062 141.636719 260.945312 141.9375 261.003906 142.234375 C 261.0625 142.527344 261.148438 142.816406 261.265625 143.09375 C 261.378906 143.375 261.523438 143.640625 261.6875 143.890625 C 261.855469 144.140625 262.046875 144.371094 262.261719 144.585938 C 262.472656 144.800781 262.707031 144.988281 262.957031 145.15625 C 263.207031 145.324219 263.472656 145.46875 263.75 145.582031 C 264.03125 145.699219 264.316406 145.785156 264.613281 145.84375 C 264.910156 145.902344 265.207031 145.933594 265.511719 145.933594 L 283.894531 145.933594 C 284.195312 145.933594 284.496094 145.902344 284.789062 145.84375 C 285.085938 145.785156 285.375 145.699219 285.652344 145.582031 C 285.929688 145.46875 286.195312 145.324219 286.445312 145.15625 C 286.699219 144.988281 286.929688 144.800781 287.144531 144.585938 C 287.355469 144.371094 287.546875 144.140625 287.714844 143.890625 C 287.882812 143.640625 288.023438 143.375 288.140625 143.09375 C 288.253906 142.816406 288.34375 142.527344 288.402344 142.234375 C 288.460938 141.9375 288.488281 141.636719 288.488281 141.335938 C 288.488281 141.035156 288.460938 140.734375 288.402344 140.441406 C 288.34375 140.144531 288.253906 139.855469 288.140625 139.578125 C 288.023438 139.300781 287.882812 139.035156 287.714844 138.78125 C 287.546875 138.53125 287.355469 138.300781 287.144531 138.085938 C 286.929688 137.875 286.699219 137.683594 286.445312 137.515625 C 286.195312 137.347656 285.929688 137.207031 285.652344 137.089844 C 285.375 136.976562 285.085938 136.886719 284.789062 136.828125 C 284.496094 136.769531 284.195312 136.742188 283.894531 136.742188 L 279.296875 136.742188 L 279.296875 127.550781 L 311.675781 127.550781 L 320.449219 320.574219 Z M 208.804688 320.574219 " clip-rule="nonzero"/></clipPath><linearGradient x1="57.999513" gradientTransform="matrix(0.574481, 0, 0, 0.574481, 40.313992, 40.227819)" y1="553.999499" x2="553.931678" gradientUnits="userSpaceOnUse" y2="58.067325" id="041abb15f7"><stop stop-opacity="1" stop-color="rgb(0%, 24.710083%, 54.104614%)" offset="0"/><stop stop-opacity="1" stop-color="rgb(0%, 25.178528%, 54.367065%)" offset="0.00390625"/><stop stop-opacity="1" stop-color="rgb(0%, 25.648499%, 54.631042%)" offset="0.0078125"/><stop stop-opacity="1" stop-color="rgb(0%, 26.116943%, 54.893494%)" offset="0.0117188"/><stop stop-opacity="1" stop-color="rgb(0%, 26.586914%, 55.157471%)" offset="0.015625"/><stop stop-opacity="1" stop-color="rgb(0%, 27.055359%, 55.419922%)" offset="0.0195313"/><stop stop-opacity="1" stop-color="rgb(0%, 27.52533%, 55.683899%)" offset="0.0234375"/><stop stop-opacity="1" stop-color="rgb(0%, 27.993774%, 55.94635%)" offset="0.0273438"/><stop stop-opacity="1" stop-color="rgb(0%, 28.463745%, 56.208801%)" offset="0.03125"/><stop stop-opacity="1" stop-color="rgb(0%, 28.93219%, 56.471252%)" offset="0.0351562"/><stop stop-opacity="1" stop-color="rgb(0%, 29.402161%, 56.735229%)" offset="0.0390625"/><stop stop-opacity="1" stop-color="rgb(0%, 29.870605%, 56.997681%)" offset="0.0429688"/><stop stop-opacity="1" stop-color="rgb(0%, 30.340576%, 57.261658%)" offset="0.046875"/><stop stop-opacity="1" stop-color="rgb(0%, 30.810547%, 57.524109%)" offset="0.0507812"/><stop stop-opacity="1" stop-color="rgb(0%, 31.280518%, 57.78656%)" offset="0.0546875"/><stop stop-opacity="1" stop-color="rgb(0%, 31.748962%, 58.049011%)" offset="0.0585938"/><stop stop-opacity="1" stop-color="rgb(0%, 32.218933%, 58.312988%)" offset="0.0625"/><stop stop-opacity="1" stop-color="rgb(0%, 32.687378%, 58.575439%)" offset="0.0664063"/><stop stop-opacity="1" stop-color="rgb(0%, 33.157349%, 58.839417%)" offset="0.0703125"/><stop stop-opacity="1" stop-color="rgb(0%, 33.625793%, 59.101868%)" offset="0.0742188"/><stop stop-opacity="1" stop-color="rgb(0%, 34.095764%, 59.364319%)" offset="0.078125"/><stop stop-opacity="1" stop-color="rgb(0%, 34.564209%, 59.62677%)" offset="0.0820313"/><stop stop-opacity="1" stop-color="rgb(0%, 35.03418%, 59.890747%)" offset="0.0859375"/><stop stop-opacity="1" stop-color="rgb(0%, 35.502625%, 60.153198%)" offset="0.0898438"/><stop stop-opacity="1" stop-color="rgb(0%, 35.972595%, 60.417175%)" offset="0.09375"/><stop stop-opacity="1" stop-color="rgb(0%, 36.44104%, 60.679626%)" offset="0.0976563"/><stop stop-opacity="1" stop-color="rgb(0%, 36.911011%, 60.942078%)" offset="0.101563"/><stop stop-opacity="1" stop-color="rgb(0%, 37.379456%, 61.204529%)" offset="0.105469"/><stop stop-opacity="1" stop-color="rgb(0%, 37.849426%, 61.468506%)" offset="0.109375"/><stop stop-opacity="1" stop-color="rgb(0%, 38.317871%, 61.730957%)" offset="0.113281"/><stop stop-opacity="1" stop-color="rgb(0%, 38.787842%, 61.994934%)" offset="0.117188"/><stop stop-opacity="1" stop-color="rgb(0%, 39.256287%, 62.257385%)" offset="0.121094"/><stop stop-opacity="1" stop-color="rgb(0%, 39.726257%, 62.521362%)" offset="0.125"/><stop stop-opacity="1" stop-color="rgb(0%, 40.194702%, 62.783813%)" offset="0.128906"/><stop stop-opacity="1" stop-color="rgb(0%, 40.664673%, 63.046265%)" offset="0.132813"/><stop stop-opacity="1" stop-color="rgb(0%, 41.133118%, 63.308716%)" offset="0.136719"/><stop stop-opacity="1" stop-color="rgb(0%, 41.603088%, 63.572693%)" offset="0.140625"/><stop stop-opacity="1" stop-color="rgb(0%, 42.073059%, 63.835144%)" offset="0.144531"/><stop stop-opacity="1" stop-color="rgb(0%, 42.54303%, 64.099121%)" offset="0.148438"/><stop stop-opacity="1" stop-color="rgb(0%, 43.011475%, 64.361572%)" offset="0.152344"/><stop stop-opacity="1" stop-color="rgb(0%, 43.481445%, 64.624023%)" offset="0.15625"/><stop stop-opacity="1" stop-color="rgb(0%, 43.94989%, 64.886475%)" offset="0.160156"/><stop stop-opacity="1" stop-color="rgb(0%, 44.419861%, 65.150452%)" offset="0.164063"/><stop stop-opacity="1" stop-color="rgb(0%, 44.888306%, 65.412903%)" offset="0.167969"/><stop stop-opacity="1" stop-color="rgb(0%, 45.358276%, 65.67688%)" offset="0.171875"/><stop stop-opacity="1" stop-color="rgb(0%, 45.826721%, 65.939331%)" offset="0.175781"/><stop stop-opacity="1" stop-color="rgb(0%, 46.296692%, 66.201782%)" offset="0.179688"/><stop stop-opacity="1" stop-color="rgb(0%, 46.765137%, 66.464233%)" offset="0.183594"/><stop stop-opacity="1" stop-color="rgb(0%, 47.235107%, 66.72821%)" offset="0.1875"/><stop stop-opacity="1" stop-color="rgb(0%, 47.703552%, 66.990662%)" offset="0.191406"/><stop stop-opacity="1" stop-color="rgb(0%, 48.173523%, 67.254639%)" offset="0.195313"/><stop stop-opacity="1" stop-color="rgb(0%, 48.641968%, 67.51709%)" offset="0.199219"/><stop stop-opacity="1" stop-color="rgb(0%, 49.111938%, 67.779541%)" offset="0.203125"/><stop stop-opacity="1" stop-color="rgb(0%, 49.580383%, 68.041992%)" offset="0.207031"/><stop stop-opacity="1" stop-color="rgb(0%, 50.050354%, 68.305969%)" offset="0.210938"/><stop stop-opacity="1" stop-color="rgb(0%, 50.518799%, 68.56842%)" offset="0.214844"/><stop stop-opacity="1" stop-color="rgb(0%, 50.98877%, 68.832397%)" offset="0.21875"/><stop stop-opacity="1" stop-color="rgb(0%, 51.457214%, 69.094849%)" offset="0.222656"/><stop stop-opacity="1" stop-color="rgb(0%, 51.927185%, 69.358826%)" offset="0.226563"/><stop stop-opacity="1" stop-color="rgb(0%, 52.39563%, 69.621277%)" offset="0.230469"/><stop stop-opacity="1" stop-color="rgb(0%, 52.865601%, 69.883728%)" offset="0.234375"/><stop stop-opacity="1" stop-color="rgb(0%, 53.335571%, 70.146179%)" offset="0.238281"/><stop stop-opacity="1" stop-color="rgb(0%, 53.805542%, 70.410156%)" offset="0.242188"/><stop stop-opacity="1" stop-color="rgb(0%, 54.273987%, 70.672607%)" offset="0.246094"/><stop stop-opacity="1" stop-color="rgb(0%, 54.743958%, 70.936584%)" offset="0.25"/><stop stop-opacity="1" stop-color="rgb(0%, 55.212402%, 71.199036%)" offset="0.253906"/><stop stop-opacity="1" stop-color="rgb(0%, 55.682373%, 71.461487%)" offset="0.257812"/><stop stop-opacity="1" stop-color="rgb(0%, 56.150818%, 71.723938%)" offset="0.261719"/><stop stop-opacity="1" stop-color="rgb(0%, 56.620789%, 71.987915%)" offset="0.265625"/><stop stop-opacity="1" stop-color="rgb(0%, 57.089233%, 72.250366%)" offset="0.269531"/><stop stop-opacity="1" stop-color="rgb(0%, 57.559204%, 72.514343%)" offset="0.273438"/><stop stop-opacity="1" stop-color="rgb(0%, 58.027649%, 72.776794%)" offset="0.277344"/><stop stop-opacity="1" stop-color="rgb(0%, 58.49762%, 73.039246%)" offset="0.28125"/><stop stop-opacity="1" stop-color="rgb(0%, 58.966064%, 73.301697%)" offset="0.285156"/><stop stop-opacity="1" stop-color="rgb(0%, 59.436035%, 73.565674%)" offset="0.289062"/><stop stop-opacity="1" stop-color="rgb(0%, 59.90448%, 73.828125%)" offset="0.292969"/><stop stop-opacity="1" stop-color="rgb(0%, 60.374451%, 74.092102%)" offset="0.296875"/><stop stop-opacity="1" stop-color="rgb(0%, 60.842896%, 74.354553%)" offset="0.300781"/><stop stop-opacity="1" stop-color="rgb(0%, 61.312866%, 74.617004%)" offset="0.304688"/><stop stop-opacity="1" stop-color="rgb(0%, 61.781311%, 74.879456%)" offset="0.308594"/><stop stop-opacity="1" stop-color="rgb(0%, 62.251282%, 75.143433%)" offset="0.3125"/><stop stop-opacity="1" stop-color="rgb(0%, 62.719727%, 75.405884%)" offset="0.316406"/><stop stop-opacity="1" stop-color="rgb(0%, 63.189697%, 75.669861%)" offset="0.320313"/><stop stop-opacity="1" stop-color="rgb(0%, 63.658142%, 75.932312%)" offset="0.324219"/><stop stop-opacity="1" stop-color="rgb(0%, 64.128113%, 76.196289%)" offset="0.328125"/><stop stop-opacity="1" stop-color="rgb(0%, 64.598083%, 76.45874%)" offset="0.332031"/><stop stop-opacity="1" stop-color="rgb(0%, 65.068054%, 76.721191%)" offset="0.335938"/><stop stop-opacity="1" stop-color="rgb(0%, 65.536499%, 76.983643%)" offset="0.339844"/><stop stop-opacity="1" stop-color="rgb(0%, 66.00647%, 77.24762%)" offset="0.34375"/><stop stop-opacity="1" stop-color="rgb(0%, 66.474915%, 77.510071%)" offset="0.347656"/><stop stop-opacity="1" stop-color="rgb(0%, 66.944885%, 77.774048%)" offset="0.351563"/><stop stop-opacity="1" stop-color="rgb(0%, 67.41333%, 78.036499%)" offset="0.355469"/><stop stop-opacity="1" stop-color="rgb(0%, 67.883301%, 78.29895%)" offset="0.359375"/><stop stop-opacity="1" stop-color="rgb(0%, 68.351746%, 78.561401%)" offset="0.363281"/><stop stop-opacity="1" stop-color="rgb(0%, 68.821716%, 78.825378%)" offset="0.367188"/><stop stop-opacity="1" stop-color="rgb(0%, 69.290161%, 79.08783%)" offset="0.371094"/><stop stop-opacity="1" stop-color="rgb(0%, 69.760132%, 79.351807%)" offset="0.375"/><stop stop-opacity="1" stop-color="rgb(0%, 70.228577%, 79.614258%)" offset="0.378906"/><stop stop-opacity="1" stop-color="rgb(0%, 70.698547%, 79.876709%)" offset="0.382813"/><stop stop-opacity="1" stop-color="rgb(0%, 71.166992%, 80.13916%)" offset="0.386719"/><stop stop-opacity="1" stop-color="rgb(0%, 71.636963%, 80.403137%)" offset="0.390625"/><stop stop-opacity="1" stop-color="rgb(0%, 72.105408%, 80.665588%)" offset="0.394531"/><stop stop-opacity="1" stop-color="rgb(0%, 72.575378%, 80.929565%)" offset="0.398438"/><stop stop-opacity="1" stop-color="rgb(0%, 73.043823%, 81.192017%)" offset="0.402344"/><stop stop-opacity="1" stop-color="rgb(0%, 73.513794%, 81.455994%)" offset="0.40625"/><stop stop-opacity="1" stop-color="rgb(0%, 73.982239%, 81.718445%)" offset="0.410156"/><stop stop-opacity="1" stop-color="rgb(0%, 74.452209%, 81.980896%)" offset="0.414063"/><stop stop-opacity="1" stop-color="rgb(0%, 74.920654%, 82.243347%)" offset="0.417969"/><stop stop-opacity="1" stop-color="rgb(0%, 75.390625%, 82.507324%)" offset="0.421875"/><stop stop-opacity="1" stop-color="rgb(0%, 75.85907%, 82.769775%)" offset="0.425781"/><stop stop-opacity="1" stop-color="rgb(0%, 76.329041%, 83.033752%)" offset="0.429688"/><stop stop-opacity="1" stop-color="rgb(0%, 76.799011%, 83.296204%)" offset="0.433594"/><stop stop-opacity="1" stop-color="rgb(0%, 77.268982%, 83.558655%)" offset="0.4375"/><stop stop-opacity="1" stop-color="rgb(0%, 77.737427%, 83.821106%)" offset="0.441406"/><stop stop-opacity="1" stop-color="rgb(0%, 78.207397%, 84.085083%)" offset="0.445312"/><stop stop-opacity="1" stop-color="rgb(0%, 78.675842%, 84.347534%)" offset="0.449219"/><stop stop-opacity="1" stop-color="rgb(0%, 79.145813%, 84.611511%)" offset="0.453125"/><stop stop-opacity="1" stop-color="rgb(0%, 79.614258%, 84.873962%)" offset="0.457031"/><stop stop-opacity="1" stop-color="rgb(0%, 80.084229%, 85.136414%)" offset="0.460938"/><stop stop-opacity="1" stop-color="rgb(0%, 80.552673%, 85.398865%)" offset="0.464844"/><stop stop-opacity="1" stop-color="rgb(0%, 81.022644%, 85.662842%)" offset="0.46875"/><stop stop-opacity="1" stop-color="rgb(0%, 81.491089%, 85.925293%)" offset="0.472656"/><stop stop-opacity="1" stop-color="rgb(0%, 81.96106%, 86.18927%)" offset="0.476563"/><stop stop-opacity="1" stop-color="rgb(0%, 82.429504%, 86.451721%)" offset="0.480469"/><stop stop-opacity="1" stop-color="rgb(0%, 82.899475%, 86.714172%)" offset="0.484375"/><stop stop-opacity="1" stop-color="rgb(0%, 83.36792%, 86.976624%)" offset="0.488281"/><stop stop-opacity="1" stop-color="rgb(0%, 83.837891%, 87.240601%)" offset="0.492188"/><stop stop-opacity="1" stop-color="rgb(0%, 83.889771%, 87.397766%)" offset="0.496094"/><stop stop-opacity="1" stop-color="rgb(0%, 83.94165%, 87.556458%)" offset="0.5"/><stop stop-opacity="1" stop-color="rgb(0%, 83.589172%, 87.611389%)" offset="0.503906"/><stop stop-opacity="1" stop-color="rgb(0%, 83.236694%, 87.667847%)" offset="0.507812"/><stop stop-opacity="1" stop-color="rgb(0%, 82.884216%, 87.722778%)" offset="0.511719"/><stop stop-opacity="1" stop-color="rgb(0%, 82.533264%, 87.779236%)" offset="0.515625"/><stop stop-opacity="1" stop-color="rgb(0%, 82.180786%, 87.834167%)" offset="0.519531"/><stop stop-opacity="1" stop-color="rgb(0%, 81.828308%, 87.890625%)" offset="0.523437"/><stop stop-opacity="1" stop-color="rgb(0%, 81.47583%, 87.947083%)" offset="0.527344"/><stop stop-opacity="1" stop-color="rgb(0%, 81.124878%, 88.00354%)" offset="0.53125"/><stop stop-opacity="1" stop-color="rgb(0%, 80.7724%, 88.058472%)" offset="0.535156"/><stop stop-opacity="1" stop-color="rgb(0%, 80.421448%, 88.114929%)" offset="0.539062"/><stop stop-opacity="1" stop-color="rgb(0%, 80.06897%, 88.169861%)" offset="0.542969"/><stop stop-opacity="1" stop-color="rgb(0%, 79.716492%, 88.226318%)" offset="0.546875"/><stop stop-opacity="1" stop-color="rgb(0%, 79.364014%, 88.28125%)" offset="0.550781"/><stop stop-opacity="1" stop-color="rgb(0%, 79.013062%, 88.337708%)" offset="0.554687"/><stop stop-opacity="1" stop-color="rgb(0%, 78.660583%, 88.392639%)" offset="0.558594"/><stop stop-opacity="1" stop-color="rgb(0%, 78.309631%, 88.449097%)" offset="0.5625"/><stop stop-opacity="1" stop-color="rgb(0%, 77.957153%, 88.505554%)" offset="0.566406"/><stop stop-opacity="1" stop-color="rgb(0%, 77.604675%, 88.562012%)" offset="0.570312"/><stop stop-opacity="1" stop-color="rgb(0%, 77.252197%, 88.616943%)" offset="0.574219"/><stop stop-opacity="1" stop-color="rgb(0%, 76.901245%, 88.673401%)" offset="0.578125"/><stop stop-opacity="1" stop-color="rgb(0%, 76.548767%, 88.728333%)" offset="0.582031"/><stop stop-opacity="1" stop-color="rgb(0%, 76.196289%, 88.78479%)" offset="0.585938"/><stop stop-opacity="1" stop-color="rgb(0%, 75.843811%, 88.839722%)" offset="0.589844"/><stop stop-opacity="1" stop-color="rgb(0%, 75.492859%, 88.896179%)" offset="0.59375"/><stop stop-opacity="1" stop-color="rgb(0%, 75.140381%, 88.951111%)" offset="0.597656"/><stop stop-opacity="1" stop-color="rgb(0%, 74.789429%, 89.007568%)" offset="0.601562"/><stop stop-opacity="1" stop-color="rgb(0%, 74.436951%, 89.064026%)" offset="0.605469"/><stop stop-opacity="1" stop-color="rgb(0%, 74.084473%, 89.120483%)" offset="0.609375"/><stop stop-opacity="1" stop-color="rgb(0%, 73.731995%, 89.175415%)" offset="0.613281"/><stop stop-opacity="1" stop-color="rgb(0%, 73.381042%, 89.231873%)" offset="0.617188"/><stop stop-opacity="1" stop-color="rgb(0%, 73.028564%, 89.286804%)" offset="0.621094"/><stop stop-opacity="1" stop-color="rgb(0%, 72.676086%, 89.343262%)" offset="0.625"/><stop stop-opacity="1" stop-color="rgb(0%, 72.323608%, 89.398193%)" offset="0.628906"/><stop stop-opacity="1" stop-color="rgb(0%, 71.972656%, 89.454651%)" offset="0.632812"/><stop stop-opacity="1" stop-color="rgb(0%, 71.620178%, 89.509583%)" offset="0.636719"/><stop stop-opacity="1" stop-color="rgb(0%, 71.269226%, 89.56604%)" offset="0.640625"/><stop stop-opacity="1" stop-color="rgb(0%, 70.916748%, 89.622498%)" offset="0.644531"/><stop stop-opacity="1" stop-color="rgb(0%, 70.56427%, 89.678955%)" offset="0.648438"/><stop stop-opacity="1" stop-color="rgb(0%, 70.211792%, 89.733887%)" offset="0.652344"/><stop stop-opacity="1" stop-color="rgb(0%, 69.86084%, 89.790344%)" offset="0.65625"/><stop stop-opacity="1" stop-color="rgb(0%, 69.508362%, 89.845276%)" offset="0.660156"/><stop stop-opacity="1" stop-color="rgb(0%, 69.15741%, 89.901733%)" offset="0.664062"/><stop stop-opacity="1" stop-color="rgb(0%, 68.804932%, 89.956665%)" offset="0.667969"/><stop stop-opacity="1" stop-color="rgb(0%, 68.452454%, 90.013123%)" offset="0.671875"/><stop stop-opacity="1" stop-color="rgb(0%, 68.099976%, 90.068054%)" offset="0.675781"/><stop stop-opacity="1" stop-color="rgb(0%, 67.749023%, 90.124512%)" offset="0.679688"/><stop stop-opacity="1" stop-color="rgb(0%, 67.396545%, 90.180969%)" offset="0.683594"/><stop stop-opacity="1" stop-color="rgb(0%, 67.044067%, 90.237427%)" offset="0.6875"/><stop stop-opacity="1" stop-color="rgb(0%, 66.691589%, 90.292358%)" offset="0.691406"/><stop stop-opacity="1" stop-color="rgb(0%, 66.340637%, 90.348816%)" offset="0.695312"/><stop stop-opacity="1" stop-color="rgb(0%, 65.988159%, 90.403748%)" offset="0.699219"/><stop stop-opacity="1" stop-color="rgb(0%, 65.637207%, 90.460205%)" offset="0.703125"/><stop stop-opacity="1" stop-color="rgb(0%, 65.284729%, 90.515137%)" offset="0.707031"/><stop stop-opacity="1" stop-color="rgb(0%, 64.932251%, 90.571594%)" offset="0.710938"/><stop stop-opacity="1" stop-color="rgb(0%, 64.579773%, 90.626526%)" offset="0.714844"/><stop stop-opacity="1" stop-color="rgb(0%, 64.228821%, 90.682983%)" offset="0.71875"/><stop stop-opacity="1" stop-color="rgb(0%, 63.876343%, 90.739441%)" offset="0.722656"/><stop stop-opacity="1" stop-color="rgb(0%, 63.523865%, 90.795898%)" offset="0.726562"/><stop stop-opacity="1" stop-color="rgb(0%, 63.171387%, 90.85083%)" offset="0.730469"/><stop stop-opacity="1" stop-color="rgb(0%, 62.820435%, 90.907288%)" offset="0.734375"/><stop stop-opacity="1" stop-color="rgb(0%, 62.467957%, 90.962219%)" offset="0.738281"/><stop stop-opacity="1" stop-color="rgb(0%, 62.117004%, 91.018677%)" offset="0.742188"/><stop stop-opacity="1" stop-color="rgb(0%, 61.764526%, 91.073608%)" offset="0.746094"/><stop stop-opacity="1" stop-color="rgb(0%, 61.412048%, 91.130066%)" offset="0.75"/><stop stop-opacity="1" stop-color="rgb(0%, 61.05957%, 91.184998%)" offset="0.753906"/><stop stop-opacity="1" stop-color="rgb(0%, 60.708618%, 91.241455%)" offset="0.757813"/><stop stop-opacity="1" stop-color="rgb(0%, 60.35614%, 91.297913%)" offset="0.761719"/><stop stop-opacity="1" stop-color="rgb(0%, 60.005188%, 91.35437%)" offset="0.765625"/><stop stop-opacity="1" stop-color="rgb(0%, 59.65271%, 91.409302%)" offset="0.769531"/><stop stop-opacity="1" stop-color="rgb(0%, 59.300232%, 91.465759%)" offset="0.773438"/><stop stop-opacity="1" stop-color="rgb(0%, 58.947754%, 91.520691%)" offset="0.777344"/><stop stop-opacity="1" stop-color="rgb(0%, 58.596802%, 91.577148%)" offset="0.78125"/><stop stop-opacity="1" stop-color="rgb(0%, 58.244324%, 91.63208%)" offset="0.785156"/><stop stop-opacity="1" stop-color="rgb(0%, 57.891846%, 91.688538%)" offset="0.789063"/><stop stop-opacity="1" stop-color="rgb(0%, 57.539368%, 91.743469%)" offset="0.792969"/><stop stop-opacity="1" stop-color="rgb(0%, 57.188416%, 91.799927%)" offset="0.796875"/><stop stop-opacity="1" stop-color="rgb(0%, 56.835938%, 91.856384%)" offset="0.800781"/><stop stop-opacity="1" stop-color="rgb(0%, 56.484985%, 91.912842%)" offset="0.804688"/><stop stop-opacity="1" stop-color="rgb(0%, 56.132507%, 91.967773%)" offset="0.808594"/><stop stop-opacity="1" stop-color="rgb(0%, 55.780029%, 92.024231%)" offset="0.8125"/><stop stop-opacity="1" stop-color="rgb(0%, 55.427551%, 92.079163%)" offset="0.816406"/><stop stop-opacity="1" stop-color="rgb(0%, 55.076599%, 92.13562%)" offset="0.820313"/><stop stop-opacity="1" stop-color="rgb(0%, 54.724121%, 92.190552%)" offset="0.824219"/><stop stop-opacity="1" stop-color="rgb(0%, 54.371643%, 92.247009%)" offset="0.828125"/><stop stop-opacity="1" stop-color="rgb(0%, 54.019165%, 92.301941%)" offset="0.832031"/><stop stop-opacity="1" stop-color="rgb(0%, 53.668213%, 92.358398%)" offset="0.835938"/><stop stop-opacity="1" stop-color="rgb(0%, 53.315735%, 92.414856%)" offset="0.839844"/><stop stop-opacity="1" stop-color="rgb(0%, 52.964783%, 92.471313%)" offset="0.84375"/><stop stop-opacity="1" stop-color="rgb(0%, 52.612305%, 92.526245%)" offset="0.847656"/><stop stop-opacity="1" stop-color="rgb(0%, 52.259827%, 92.582703%)" offset="0.851563"/><stop stop-opacity="1" stop-color="rgb(0%, 51.907349%, 92.637634%)" offset="0.855469"/><stop stop-opacity="1" stop-color="rgb(0%, 51.556396%, 92.694092%)" offset="0.859375"/><stop stop-opacity="1" stop-color="rgb(0%, 51.203918%, 92.749023%)" offset="0.863281"/><stop stop-opacity="1" stop-color="rgb(0%, 50.852966%, 92.805481%)" offset="0.867188"/><stop stop-opacity="1" stop-color="rgb(0%, 50.500488%, 92.860413%)" offset="0.871094"/><stop stop-opacity="1" stop-color="rgb(0%, 50.14801%, 92.91687%)" offset="0.875"/><stop stop-opacity="1" stop-color="rgb(0%, 49.795532%, 92.973328%)" offset="0.878906"/><stop stop-opacity="1" stop-color="rgb(0%, 49.44458%, 93.029785%)" offset="0.882812"/><stop stop-opacity="1" stop-color="rgb(0%, 49.092102%, 93.084717%)" offset="0.886719"/><stop stop-opacity="1" stop-color="rgb(0%, 48.739624%, 93.141174%)" offset="0.890625"/><stop stop-opacity="1" stop-color="rgb(0%, 48.387146%, 93.196106%)" offset="0.894531"/><stop stop-opacity="1" stop-color="rgb(0%, 48.036194%, 93.252563%)" offset="0.898437"/><stop stop-opacity="1" stop-color="rgb(0%, 47.683716%, 93.307495%)" offset="0.902344"/><stop stop-opacity="1" stop-color="rgb(0%, 47.332764%, 93.363953%)" offset="0.90625"/><stop stop-opacity="1" stop-color="rgb(0%, 46.980286%, 93.418884%)" offset="0.910156"/><stop stop-opacity="1" stop-color="rgb(0%, 46.627808%, 93.475342%)" offset="0.914062"/><stop stop-opacity="1" stop-color="rgb(0%, 46.27533%, 93.531799%)" offset="0.917969"/><stop stop-opacity="1" stop-color="rgb(0%, 45.924377%, 93.588257%)" offset="0.921875"/><stop stop-opacity="1" stop-color="rgb(0%, 45.571899%, 93.643188%)" offset="0.925781"/><stop stop-opacity="1" stop-color="rgb(0%, 45.219421%, 93.699646%)" offset="0.929688"/><stop stop-opacity="1" stop-color="rgb(0%, 44.866943%, 93.754578%)" offset="0.933594"/><stop stop-opacity="1" stop-color="rgb(0%, 44.515991%, 93.811035%)" offset="0.9375"/><stop stop-opacity="1" stop-color="rgb(0%, 44.163513%, 93.865967%)" offset="0.941406"/><stop stop-opacity="1" stop-color="rgb(0%, 43.812561%, 93.922424%)" offset="0.945312"/><stop stop-opacity="1" stop-color="rgb(0%, 43.460083%, 93.977356%)" offset="0.949219"/><stop stop-opacity="1" stop-color="rgb(0%, 43.107605%, 94.033813%)" offset="0.953125"/><stop stop-opacity="1" stop-color="rgb(0%, 42.903137%, 94.065857%)" offset="0.957031"/><stop stop-opacity="1" stop-color="rgb(0%, 42.698669%, 94.099426%)" offset="0.960937"/><stop stop-opacity="1" stop-color="rgb(0%, 42.698669%, 94.099426%)" offset="0.96875"/><stop stop-opacity="1" stop-color="rgb(0%, 42.698669%, 94.099426%)" offset="1"/></linearGradient></defs><g clip-path="url(#4ff255d8fa)"><g clip-path="url(#bf373ac185)"><path fill="url(#e0bc06944f)" d="M 72.484375 182.699219 L 72.484375 270.019531 L 182.785156 270.019531 L 182.785156 182.699219 Z M 72.484375 182.699219 " fill-rule="nonzero"/></g></g><g clip-path="url(#1a77bd3719)"><g clip-path="url(#889eef1477)"><path fill="url(#041abb15f7)" d="M 44.910156 44.910156 L 44.910156 329.765625 L 329.859375 329.765625 L 329.859375 44.910156 Z M 44.910156 44.910156 " fill-rule="nonzero"/></g></g></svg>