<svg xmlns="http://www.w3.org/2000/svg" xmlns:xlink="http://www.w3.org/1999/xlink" width="500" zoomAndPan="magnify" viewBox="0 0 375 374.999991" height="500" preserveAspectRatio="xMidYMid meet" version="1.0"><defs><g/><clipPath id="74cc3261d0"><path d="M 116 145 L 185 145 L 185 199 L 116 199 Z M 116 145 " clip-rule="nonzero"/></clipPath><clipPath id="7878ebee76"><path d="M 181.777344 145.160156 L 170.507812 145.160156 C 170.132812 145.160156 169.773438 145.234375 169.429688 145.375 C 169.082031 145.519531 168.777344 145.722656 168.515625 145.988281 C 168.25 146.25 168.046875 146.554688 167.902344 146.902344 C 167.761719 147.246094 167.6875 147.605469 167.6875 147.980469 C 167.6875 148.351562 167.761719 148.710938 167.902344 149.058594 C 168.046875 149.402344 168.25 149.707031 168.515625 149.972656 C 168.777344 150.238281 169.082031 150.441406 169.429688 150.582031 C 169.773438 150.726562 170.132812 150.796875 170.507812 150.796875 L 173.324219 150.796875 L 173.324219 170.523438 C 173.324219 171.261719 173.289062 172 173.214844 172.734375 C 173.144531 173.46875 173.035156 174.199219 172.890625 174.921875 C 172.746094 175.644531 172.566406 176.359375 172.355469 177.066406 C 172.140625 177.773438 171.890625 178.46875 171.609375 179.152344 C 171.324219 179.832031 171.011719 180.5 170.664062 181.152344 C 170.316406 181.800781 169.9375 182.433594 169.527344 183.046875 C 169.113281 183.660156 168.675781 184.253906 168.207031 184.824219 C 167.738281 185.394531 167.242188 185.941406 166.722656 186.464844 C 166.199219 186.988281 165.652344 187.480469 165.082031 187.949219 C 164.511719 188.417969 163.917969 188.859375 163.304688 189.269531 C 162.691406 189.679688 162.058594 190.058594 161.40625 190.40625 C 160.757812 190.753906 160.089844 191.070312 159.40625 191.351562 C 158.726562 191.632812 158.03125 191.882812 157.324219 192.097656 C 156.617188 192.3125 155.902344 192.488281 155.179688 192.632812 C 154.453125 192.777344 153.726562 192.886719 152.992188 192.957031 C 152.253906 193.03125 151.519531 193.066406 150.78125 193.066406 C 150.042969 193.066406 149.304688 193.03125 148.570312 192.957031 C 147.835938 192.886719 147.105469 192.777344 146.382812 192.632812 C 145.660156 192.488281 144.941406 192.3125 144.238281 192.097656 C 143.53125 191.882812 142.835938 191.632812 142.152344 191.351562 C 141.472656 191.070312 140.804688 190.753906 140.152344 190.40625 C 139.503906 190.058594 138.871094 189.679688 138.257812 189.269531 C 137.640625 188.859375 137.050781 188.417969 136.480469 187.949219 C 135.910156 187.480469 135.363281 186.988281 134.839844 186.464844 C 134.316406 185.941406 133.824219 185.394531 133.355469 184.824219 C 132.886719 184.253906 132.445312 183.660156 132.035156 183.046875 C 131.625 182.433594 131.246094 181.800781 130.898438 181.152344 C 130.550781 180.5 130.234375 179.832031 129.953125 179.152344 C 129.671875 178.46875 129.421875 177.773438 129.207031 177.066406 C 128.992188 176.359375 128.8125 175.644531 128.671875 174.921875 C 128.527344 174.199219 128.417969 173.46875 128.34375 172.734375 C 128.273438 172 128.238281 171.261719 128.238281 170.523438 L 128.238281 150.796875 L 131.054688 150.796875 C 131.429688 150.796875 131.789062 150.726562 132.132812 150.582031 C 132.480469 150.441406 132.785156 150.238281 133.046875 149.972656 C 133.3125 149.707031 133.515625 149.402344 133.660156 149.058594 C 133.800781 148.710938 133.871094 148.351562 133.871094 147.980469 C 133.871094 147.605469 133.800781 147.246094 133.660156 146.902344 C 133.515625 146.554688 133.3125 146.25 133.046875 145.988281 C 132.785156 145.722656 132.480469 145.519531 132.132812 145.375 C 131.789062 145.234375 131.429688 145.160156 131.054688 145.160156 L 119.78125 145.160156 C 119.410156 145.160156 119.050781 145.234375 118.703125 145.375 C 118.359375 145.519531 118.054688 145.722656 117.789062 145.988281 C 117.527344 146.25 117.324219 146.554688 117.179688 146.902344 C 117.035156 147.246094 116.964844 147.605469 116.964844 147.980469 C 116.964844 148.351562 117.035156 148.710938 117.179688 149.058594 C 117.324219 149.402344 117.527344 149.707031 117.789062 149.972656 C 118.054688 150.238281 118.359375 150.441406 118.703125 150.582031 C 119.050781 150.726562 119.410156 150.796875 119.78125 150.796875 L 122.601562 150.796875 L 122.601562 170.523438 C 122.601562 171.445312 122.644531 172.367188 122.738281 173.285156 C 122.828125 174.203125 122.960938 175.117188 123.140625 176.019531 C 123.324219 176.925781 123.546875 177.820312 123.816406 178.703125 C 124.082031 179.585938 124.394531 180.453125 124.746094 181.308594 C 125.097656 182.160156 125.492188 182.992188 125.929688 183.808594 C 126.363281 184.621094 126.835938 185.410156 127.351562 186.179688 C 127.863281 186.945312 128.414062 187.6875 128.996094 188.402344 C 129.582031 189.113281 130.203125 189.796875 130.855469 190.449219 C 131.507812 191.101562 132.191406 191.722656 132.902344 192.308594 C 133.617188 192.890625 134.359375 193.441406 135.125 193.953125 C 135.890625 194.46875 136.683594 194.941406 137.496094 195.375 C 138.3125 195.8125 139.144531 196.203125 139.996094 196.558594 C 140.851562 196.910156 141.71875 197.222656 142.601562 197.488281 C 143.484375 197.757812 144.378906 197.980469 145.285156 198.160156 C 146.1875 198.34375 147.101562 198.476562 148.019531 198.566406 C 148.9375 198.65625 149.859375 198.703125 150.78125 198.703125 C 151.703125 198.703125 152.625 198.65625 153.542969 198.566406 C 154.460938 198.476562 155.375 198.34375 156.277344 198.160156 C 157.183594 197.980469 158.078125 197.757812 158.960938 197.488281 C 159.84375 197.222656 160.710938 196.910156 161.566406 196.558594 C 162.417969 196.203125 163.25 195.8125 164.066406 195.375 C 164.878906 194.941406 165.667969 194.46875 166.4375 193.953125 C 167.203125 193.441406 167.945312 192.890625 168.65625 192.308594 C 169.371094 191.722656 170.054688 191.101562 170.707031 190.449219 C 171.359375 189.796875 171.980469 189.113281 172.5625 188.402344 C 173.148438 187.6875 173.699219 186.945312 174.210938 186.179688 C 174.722656 185.410156 175.199219 184.621094 175.632812 183.808594 C 176.066406 182.992188 176.460938 182.160156 176.816406 181.308594 C 177.167969 180.453125 177.480469 179.585938 177.746094 178.703125 C 178.015625 177.820312 178.238281 176.925781 178.417969 176.019531 C 178.597656 175.117188 178.734375 174.203125 178.824219 173.285156 C 178.914062 172.367188 178.960938 171.445312 178.960938 170.523438 L 178.960938 150.796875 L 181.777344 150.796875 C 182.152344 150.796875 182.511719 150.726562 182.855469 150.582031 C 183.203125 150.441406 183.507812 150.238281 183.769531 149.972656 C 184.035156 149.707031 184.238281 149.402344 184.382812 149.058594 C 184.523438 148.710938 184.597656 148.351562 184.597656 147.980469 C 184.597656 147.605469 184.523438 147.246094 184.382812 146.902344 C 184.238281 146.554688 184.035156 146.25 183.769531 145.988281 C 183.507812 145.722656 183.203125 145.519531 182.855469 145.375 C 182.511719 145.234375 182.152344 145.160156 181.777344 145.160156 Z M 181.777344 145.160156 " clip-rule="nonzero"/></clipPath><linearGradient x1="51.442484" gradientTransform="matrix(0.352248, 0, 0, 0.352248, 97.23929, 57.804319)" y1="395.442515" x2="223.442479" gradientUnits="userSpaceOnUse" y2="223.442516" id="7e19fdfe78"><stop stop-opacity="1" stop-color="rgb(0%, 43.119812%, 64.422607%)" offset="0"/><stop stop-opacity="1" stop-color="rgb(0%, 43.281555%, 64.512634%)" offset="0.0078125"/><stop stop-opacity="1" stop-color="rgb(0%, 43.608093%, 64.69574%)" offset="0.015625"/><stop stop-opacity="1" stop-color="rgb(0%, 43.933105%, 64.877319%)" offset="0.0234375"/><stop stop-opacity="1" stop-color="rgb(0%, 44.258118%, 65.060425%)" offset="0.03125"/><stop stop-opacity="1" stop-color="rgb(0%, 44.584656%, 65.24353%)" offset="0.0390625"/><stop stop-opacity="1" stop-color="rgb(0%, 44.909668%, 65.42511%)" offset="0.046875"/><stop stop-opacity="1" stop-color="rgb(0%, 45.23468%, 65.608215%)" offset="0.0546875"/><stop stop-opacity="1" stop-color="rgb(0%, 45.561218%, 65.789795%)" offset="0.0625"/><stop stop-opacity="1" stop-color="rgb(0%, 45.88623%, 65.9729%)" offset="0.0703125"/><stop stop-opacity="1" stop-color="rgb(0%, 46.211243%, 66.15448%)" offset="0.078125"/><stop stop-opacity="1" stop-color="rgb(0%, 46.537781%, 66.337585%)" offset="0.0859375"/><stop stop-opacity="1" stop-color="rgb(0%, 46.862793%, 66.519165%)" offset="0.09375"/><stop stop-opacity="1" stop-color="rgb(0%, 47.187805%, 66.702271%)" offset="0.101562"/><stop stop-opacity="1" stop-color="rgb(0%, 47.514343%, 66.88385%)" offset="0.109375"/><stop stop-opacity="1" stop-color="rgb(0%, 47.839355%, 67.066956%)" offset="0.117187"/><stop stop-opacity="1" stop-color="rgb(0%, 48.164368%, 67.250061%)" offset="0.125"/><stop stop-opacity="1" stop-color="rgb(0%, 48.490906%, 67.431641%)" offset="0.132812"/><stop stop-opacity="1" stop-color="rgb(0%, 48.815918%, 67.614746%)" offset="0.140625"/><stop stop-opacity="1" stop-color="rgb(0%, 49.14093%, 67.796326%)" offset="0.148437"/><stop stop-opacity="1" stop-color="rgb(0%, 49.467468%, 67.979431%)" offset="0.15625"/><stop stop-opacity="1" stop-color="rgb(0%, 49.79248%, 68.161011%)" offset="0.164062"/><stop stop-opacity="1" stop-color="rgb(0%, 50.117493%, 68.344116%)" offset="0.171875"/><stop stop-opacity="1" stop-color="rgb(0%, 50.444031%, 68.525696%)" offset="0.179687"/><stop stop-opacity="1" stop-color="rgb(0%, 50.769043%, 68.708801%)" offset="0.1875"/><stop stop-opacity="1" stop-color="rgb(0%, 51.094055%, 68.890381%)" offset="0.195312"/><stop stop-opacity="1" stop-color="rgb(0%, 51.420593%, 69.073486%)" offset="0.203125"/><stop stop-opacity="1" stop-color="rgb(0%, 51.745605%, 69.256592%)" offset="0.210937"/><stop stop-opacity="1" stop-color="rgb(0%, 52.070618%, 69.438171%)" offset="0.21875"/><stop stop-opacity="1" stop-color="rgb(0%, 52.397156%, 69.621277%)" offset="0.226562"/><stop stop-opacity="1" stop-color="rgb(0%, 52.722168%, 69.802856%)" offset="0.234375"/><stop stop-opacity="1" stop-color="rgb(0%, 53.04718%, 69.985962%)" offset="0.242187"/><stop stop-opacity="1" stop-color="rgb(0%, 53.373718%, 70.167542%)" offset="0.25"/><stop stop-opacity="1" stop-color="rgb(0%, 53.69873%, 70.350647%)" offset="0.257812"/><stop stop-opacity="1" stop-color="rgb(0%, 54.023743%, 70.532227%)" offset="0.265625"/><stop stop-opacity="1" stop-color="rgb(0%, 54.348755%, 70.715332%)" offset="0.273437"/><stop stop-opacity="1" stop-color="rgb(0%, 54.675293%, 70.898438%)" offset="0.28125"/><stop stop-opacity="1" stop-color="rgb(0%, 55.000305%, 71.080017%)" offset="0.289062"/><stop stop-opacity="1" stop-color="rgb(0%, 55.325317%, 71.263123%)" offset="0.296875"/><stop stop-opacity="1" stop-color="rgb(0%, 55.651855%, 71.444702%)" offset="0.304687"/><stop stop-opacity="1" stop-color="rgb(0%, 55.976868%, 71.627808%)" offset="0.3125"/><stop stop-opacity="1" stop-color="rgb(0%, 56.30188%, 71.809387%)" offset="0.320312"/><stop stop-opacity="1" stop-color="rgb(0%, 56.628418%, 71.992493%)" offset="0.328125"/><stop stop-opacity="1" stop-color="rgb(0%, 56.95343%, 72.174072%)" offset="0.335937"/><stop stop-opacity="1" stop-color="rgb(0%, 57.278442%, 72.357178%)" offset="0.34375"/><stop stop-opacity="1" stop-color="rgb(0%, 57.60498%, 72.538757%)" offset="0.351562"/><stop stop-opacity="1" stop-color="rgb(0%, 57.929993%, 72.721863%)" offset="0.359375"/><stop stop-opacity="1" stop-color="rgb(0%, 58.255005%, 72.904968%)" offset="0.367187"/><stop stop-opacity="1" stop-color="rgb(0%, 58.581543%, 73.086548%)" offset="0.375"/><stop stop-opacity="1" stop-color="rgb(0%, 58.906555%, 73.269653%)" offset="0.382812"/><stop stop-opacity="1" stop-color="rgb(0%, 59.231567%, 73.451233%)" offset="0.390625"/><stop stop-opacity="1" stop-color="rgb(0%, 59.558105%, 73.634338%)" offset="0.398437"/><stop stop-opacity="1" stop-color="rgb(0%, 59.883118%, 73.815918%)" offset="0.40625"/><stop stop-opacity="1" stop-color="rgb(0%, 60.20813%, 73.999023%)" offset="0.414062"/><stop stop-opacity="1" stop-color="rgb(0%, 60.534668%, 74.180603%)" offset="0.421875"/><stop stop-opacity="1" stop-color="rgb(0%, 60.85968%, 74.363708%)" offset="0.429687"/><stop stop-opacity="1" stop-color="rgb(0%, 61.184692%, 74.545288%)" offset="0.4375"/><stop stop-opacity="1" stop-color="rgb(0%, 61.51123%, 74.728394%)" offset="0.44186"/><stop stop-opacity="1" stop-color="rgb(0%, 61.6745%, 74.819946%)" offset="0.445312"/><stop stop-opacity="1" stop-color="rgb(0%, 61.836243%, 74.911499%)" offset="0.453125"/><stop stop-opacity="1" stop-color="rgb(0%, 62.161255%, 75.093079%)" offset="0.460937"/><stop stop-opacity="1" stop-color="rgb(0%, 62.487793%, 75.276184%)" offset="0.46875"/><stop stop-opacity="1" stop-color="rgb(0%, 62.812805%, 75.457764%)" offset="0.476562"/><stop stop-opacity="1" stop-color="rgb(0%, 63.137817%, 75.640869%)" offset="0.484375"/><stop stop-opacity="1" stop-color="rgb(0%, 63.464355%, 75.822449%)" offset="0.492187"/><stop stop-opacity="1" stop-color="rgb(0%, 63.789368%, 76.005554%)" offset="0.5"/><stop stop-opacity="1" stop-color="rgb(0%, 64.11438%, 76.187134%)" offset="0.507812"/><stop stop-opacity="1" stop-color="rgb(0%, 64.440918%, 76.370239%)" offset="0.515625"/><stop stop-opacity="1" stop-color="rgb(0%, 64.76593%, 76.551819%)" offset="0.523438"/><stop stop-opacity="1" stop-color="rgb(0%, 65.090942%, 76.734924%)" offset="0.53125"/><stop stop-opacity="1" stop-color="rgb(0%, 65.41748%, 76.91803%)" offset="0.539062"/><stop stop-opacity="1" stop-color="rgb(0%, 65.742493%, 77.099609%)" offset="0.546875"/><stop stop-opacity="1" stop-color="rgb(0%, 66.067505%, 77.282715%)" offset="0.554688"/><stop stop-opacity="1" stop-color="rgb(0%, 66.392517%, 77.464294%)" offset="0.55814"/><stop stop-opacity="1" stop-color="rgb(0%, 66.555786%, 77.555847%)" offset="0.5625"/><stop stop-opacity="1" stop-color="rgb(0%, 66.719055%, 77.6474%)" offset="0.570312"/><stop stop-opacity="1" stop-color="rgb(0%, 67.044067%, 77.828979%)" offset="0.578125"/><stop stop-opacity="1" stop-color="rgb(0%, 67.36908%, 78.012085%)" offset="0.585938"/><stop stop-opacity="1" stop-color="rgb(0%, 67.695618%, 78.193665%)" offset="0.59375"/><stop stop-opacity="1" stop-color="rgb(0%, 68.02063%, 78.37677%)" offset="0.601562"/><stop stop-opacity="1" stop-color="rgb(0%, 68.345642%, 78.55835%)" offset="0.609375"/><stop stop-opacity="1" stop-color="rgb(0%, 68.67218%, 78.741455%)" offset="0.617188"/><stop stop-opacity="1" stop-color="rgb(0%, 68.997192%, 78.924561%)" offset="0.625"/><stop stop-opacity="1" stop-color="rgb(0%, 69.322205%, 79.10614%)" offset="0.632812"/><stop stop-opacity="1" stop-color="rgb(0%, 69.648743%, 79.289246%)" offset="0.640625"/><stop stop-opacity="1" stop-color="rgb(0%, 69.973755%, 79.470825%)" offset="0.648438"/><stop stop-opacity="1" stop-color="rgb(0%, 70.298767%, 79.653931%)" offset="0.65625"/><stop stop-opacity="1" stop-color="rgb(0%, 70.625305%, 79.83551%)" offset="0.664062"/><stop stop-opacity="1" stop-color="rgb(0%, 70.950317%, 80.018616%)" offset="0.671875"/><stop stop-opacity="1" stop-color="rgb(0%, 71.27533%, 80.200195%)" offset="0.679688"/><stop stop-opacity="1" stop-color="rgb(0%, 71.601868%, 80.383301%)" offset="0.6875"/><stop stop-opacity="1" stop-color="rgb(0%, 71.92688%, 80.566406%)" offset="0.695312"/><stop stop-opacity="1" stop-color="rgb(0%, 72.251892%, 80.747986%)" offset="0.703125"/><stop stop-opacity="1" stop-color="rgb(0%, 72.57843%, 80.931091%)" offset="0.710938"/><stop stop-opacity="1" stop-color="rgb(0%, 72.903442%, 81.112671%)" offset="0.71875"/><stop stop-opacity="1" stop-color="rgb(0%, 73.228455%, 81.295776%)" offset="0.726562"/><stop stop-opacity="1" stop-color="rgb(0%, 73.554993%, 81.477356%)" offset="0.734375"/><stop stop-opacity="1" stop-color="rgb(0%, 73.880005%, 81.660461%)" offset="0.742187"/><stop stop-opacity="1" stop-color="rgb(0%, 74.205017%, 81.842041%)" offset="0.75"/><stop stop-opacity="1" stop-color="rgb(0%, 74.531555%, 82.025146%)" offset="0.757812"/><stop stop-opacity="1" stop-color="rgb(0%, 74.856567%, 82.206726%)" offset="0.765625"/><stop stop-opacity="1" stop-color="rgb(0%, 75.18158%, 82.389832%)" offset="0.773438"/><stop stop-opacity="1" stop-color="rgb(0%, 75.508118%, 82.572937%)" offset="0.78125"/><stop stop-opacity="1" stop-color="rgb(0%, 75.83313%, 82.754517%)" offset="0.789062"/><stop stop-opacity="1" stop-color="rgb(0%, 76.158142%, 82.937622%)" offset="0.796875"/><stop stop-opacity="1" stop-color="rgb(0%, 76.48468%, 83.119202%)" offset="0.804687"/><stop stop-opacity="1" stop-color="rgb(0%, 76.809692%, 83.302307%)" offset="0.8125"/><stop stop-opacity="1" stop-color="rgb(0%, 77.134705%, 83.483887%)" offset="0.820312"/><stop stop-opacity="1" stop-color="rgb(0%, 77.459717%, 83.666992%)" offset="0.828125"/><stop stop-opacity="1" stop-color="rgb(0%, 77.786255%, 83.848572%)" offset="0.835938"/><stop stop-opacity="1" stop-color="rgb(0%, 78.111267%, 84.031677%)" offset="0.84375"/><stop stop-opacity="1" stop-color="rgb(0%, 78.436279%, 84.213257%)" offset="0.851562"/><stop stop-opacity="1" stop-color="rgb(0%, 78.762817%, 84.396362%)" offset="0.859375"/><stop stop-opacity="1" stop-color="rgb(0%, 79.08783%, 84.579468%)" offset="0.867187"/><stop stop-opacity="1" stop-color="rgb(0%, 79.412842%, 84.761047%)" offset="0.875"/><stop stop-opacity="1" stop-color="rgb(0%, 79.73938%, 84.944153%)" offset="0.882812"/><stop stop-opacity="1" stop-color="rgb(0%, 80.064392%, 85.125732%)" offset="0.890625"/><stop stop-opacity="1" stop-color="rgb(0%, 80.389404%, 85.308838%)" offset="0.898438"/><stop stop-opacity="1" stop-color="rgb(0%, 80.715942%, 85.490417%)" offset="0.90625"/><stop stop-opacity="1" stop-color="rgb(0%, 81.040955%, 85.673523%)" offset="0.914062"/><stop stop-opacity="1" stop-color="rgb(0%, 81.365967%, 85.855103%)" offset="0.921875"/><stop stop-opacity="1" stop-color="rgb(0%, 81.692505%, 86.038208%)" offset="0.929687"/><stop stop-opacity="1" stop-color="rgb(0%, 82.017517%, 86.219788%)" offset="0.9375"/><stop stop-opacity="1" stop-color="rgb(0%, 82.342529%, 86.402893%)" offset="0.945312"/><stop stop-opacity="1" stop-color="rgb(0%, 82.669067%, 86.585999%)" offset="0.953125"/><stop stop-opacity="1" stop-color="rgb(0%, 82.99408%, 86.767578%)" offset="0.960938"/><stop stop-opacity="1" stop-color="rgb(0%, 83.319092%, 86.950684%)" offset="0.96875"/><stop stop-opacity="1" stop-color="rgb(0%, 83.64563%, 87.132263%)" offset="0.976562"/><stop stop-opacity="1" stop-color="rgb(0%, 83.970642%, 87.315369%)" offset="0.984375"/><stop stop-opacity="1" stop-color="rgb(0%, 84.034729%, 87.481689%)" offset="1"/></linearGradient><clipPath id="5778560a05"><path d="M 100.058594 60.675781 L 274.808594 60.675781 L 274.808594 235.425781 L 100.058594 235.425781 Z M 100.058594 60.675781 " clip-rule="nonzero"/></clipPath><clipPath id="d07e13ecdb"><path d="M 269.132812 108.402344 C 269.117188 108.039062 269.035156 107.691406 268.882812 107.363281 C 268.734375 107.03125 268.527344 106.742188 268.265625 106.492188 C 268.003906 106.238281 267.703125 106.046875 267.367188 105.910156 C 267.03125 105.777344 266.679688 105.710938 266.316406 105.710938 L 243.773438 105.710938 L 243.773438 91.621094 C 243.773438 90.605469 243.722656 89.59375 243.625 88.582031 C 243.527344 87.570312 243.375 86.570312 243.179688 85.574219 C 242.980469 84.578125 242.734375 83.59375 242.441406 82.621094 C 242.144531 81.652344 241.804688 80.695312 241.414062 79.757812 C 241.027344 78.820312 240.59375 77.902344 240.113281 77.007812 C 239.636719 76.113281 239.113281 75.242188 238.550781 74.398438 C 237.984375 73.554688 237.382812 72.738281 236.738281 71.957031 C 236.09375 71.171875 235.414062 70.417969 234.695312 69.703125 C 233.976562 68.984375 233.226562 68.300781 232.441406 67.660156 C 231.65625 67.015625 230.84375 66.410156 229.996094 65.847656 C 229.152344 65.28125 228.285156 64.761719 227.390625 64.28125 C 226.492188 63.804688 225.578125 63.371094 224.640625 62.980469 C 223.699219 62.59375 222.746094 62.25 221.773438 61.957031 C 220.804688 61.664062 219.820312 61.414062 218.824219 61.21875 C 217.828125 61.019531 216.824219 60.871094 215.816406 60.773438 C 214.804688 60.671875 213.792969 60.621094 212.777344 60.621094 C 211.761719 60.621094 210.75 60.671875 209.738281 60.773438 C 208.726562 60.871094 207.726562 61.019531 206.730469 61.21875 C 205.734375 61.414062 204.75 61.664062 203.777344 61.957031 C 202.808594 62.25 201.851562 62.59375 200.914062 62.980469 C 199.976562 63.371094 199.058594 63.804688 198.164062 64.28125 C 197.269531 64.761719 196.398438 65.28125 195.554688 65.847656 C 194.710938 66.410156 193.894531 67.015625 193.113281 67.660156 C 192.328125 68.300781 191.574219 68.984375 190.859375 69.703125 C 190.140625 70.417969 189.457031 71.171875 188.816406 71.957031 C 188.171875 72.738281 187.566406 73.554688 187.003906 74.398438 C 186.4375 75.242188 185.917969 76.113281 185.4375 77.007812 C 184.960938 77.902344 184.527344 78.820312 184.136719 79.757812 C 183.75 80.695312 183.40625 81.652344 183.113281 82.621094 C 182.820312 83.59375 182.574219 84.578125 182.375 85.574219 C 182.175781 86.570312 182.027344 87.570312 181.929688 88.582031 C 181.828125 89.59375 181.777344 90.605469 181.777344 91.621094 L 181.777344 105.710938 L 159.234375 105.710938 C 158.871094 105.710938 158.519531 105.777344 158.183594 105.914062 C 157.84375 106.050781 157.546875 106.246094 157.285156 106.496094 C 157.019531 106.75 156.816406 107.039062 156.667969 107.371094 C 156.515625 107.703125 156.433594 108.050781 156.421875 108.414062 L 155.503906 131.070312 L 102.875 131.070312 C 102.5 131.070312 102.140625 131.144531 101.796875 131.285156 C 101.453125 131.429688 101.148438 131.632812 100.882812 131.898438 C 100.617188 132.160156 100.414062 132.464844 100.273438 132.8125 C 100.128906 133.15625 100.058594 133.515625 100.058594 133.890625 L 100.058594 225.472656 C 100.058594 226.121094 100.121094 226.761719 100.25 227.398438 C 100.375 228.03125 100.5625 228.648438 100.8125 229.246094 C 101.058594 229.84375 101.363281 230.414062 101.722656 230.949219 C 102.082031 231.488281 102.492188 231.988281 102.949219 232.445312 C 103.40625 232.902344 103.90625 233.3125 104.441406 233.671875 C 104.980469 234.03125 105.550781 234.335938 106.148438 234.582031 C 106.746094 234.832031 107.363281 235.019531 107.996094 235.144531 C 108.632812 235.273438 109.273438 235.335938 109.921875 235.335938 L 271.953125 235.335938 C 272.339844 235.335938 272.707031 235.261719 273.0625 235.109375 C 273.414062 234.957031 273.726562 234.746094 273.992188 234.464844 C 274.257812 234.1875 274.457031 233.867188 274.59375 233.507812 C 274.726562 233.148438 274.785156 232.777344 274.769531 232.390625 Z M 187.414062 91.621094 C 187.414062 90.789062 187.457031 89.960938 187.535156 89.132812 C 187.617188 88.308594 187.738281 87.488281 187.902344 86.671875 C 188.0625 85.859375 188.265625 85.054688 188.507812 84.257812 C 188.746094 83.464844 189.027344 82.683594 189.34375 81.914062 C 189.664062 81.148438 190.019531 80.398438 190.410156 79.664062 C 190.800781 78.933594 191.226562 78.21875 191.6875 77.53125 C 192.148438 76.839844 192.644531 76.171875 193.171875 75.53125 C 193.699219 74.886719 194.253906 74.273438 194.84375 73.6875 C 195.429688 73.097656 196.046875 72.542969 196.6875 72.015625 C 197.328125 71.488281 197.996094 70.992188 198.6875 70.53125 C 199.375 70.070312 200.089844 69.644531 200.820312 69.253906 C 201.554688 68.863281 202.304688 68.507812 203.070312 68.1875 C 203.839844 67.871094 204.621094 67.589844 205.414062 67.351562 C 206.210938 67.109375 207.015625 66.90625 207.828125 66.746094 C 208.644531 66.582031 209.464844 66.460938 210.289062 66.378906 C 211.117188 66.300781 211.945312 66.257812 212.777344 66.257812 C 213.605469 66.257812 214.4375 66.300781 215.261719 66.378906 C 216.089844 66.460938 216.910156 66.582031 217.722656 66.746094 C 218.539062 66.90625 219.34375 67.109375 220.136719 67.351562 C 220.933594 67.589844 221.714844 67.871094 222.480469 68.1875 C 223.25 68.507812 224 68.863281 224.730469 69.253906 C 225.464844 69.644531 226.175781 70.070312 226.867188 70.53125 C 227.558594 70.992188 228.222656 71.488281 228.867188 72.015625 C 229.507812 72.542969 230.121094 73.097656 230.710938 73.6875 C 231.296875 74.273438 231.855469 74.886719 232.382812 75.53125 C 232.910156 76.171875 233.402344 76.839844 233.863281 77.53125 C 234.324219 78.21875 234.753906 78.933594 235.144531 79.664062 C 235.535156 80.398438 235.890625 81.148438 236.207031 81.914062 C 236.527344 82.683594 236.804688 83.464844 237.046875 84.257812 C 237.289062 85.054688 237.488281 85.859375 237.652344 86.671875 C 237.8125 87.488281 237.933594 88.308594 238.015625 89.132812 C 238.097656 89.960938 238.136719 90.789062 238.136719 91.621094 L 238.136719 105.710938 L 187.414062 105.710938 Z M 195.867188 225.472656 C 195.867188 225.75 195.839844 226.027344 195.785156 226.296875 C 195.734375 226.570312 195.652344 226.835938 195.546875 227.089844 C 195.441406 227.347656 195.308594 227.589844 195.15625 227.820312 C 195 228.050781 194.824219 228.265625 194.628906 228.460938 C 194.433594 228.660156 194.21875 228.832031 193.988281 228.988281 C 193.757812 229.140625 193.515625 229.273438 193.257812 229.378906 C 193.003906 229.484375 192.738281 229.566406 192.464844 229.621094 C 192.195312 229.671875 191.917969 229.699219 191.640625 229.699219 L 109.921875 229.699219 C 109.644531 229.699219 109.367188 229.671875 109.097656 229.621094 C 108.824219 229.566406 108.558594 229.484375 108.304688 229.378906 C 108.046875 229.273438 107.804688 229.140625 107.574219 228.988281 C 107.34375 228.832031 107.128906 228.660156 106.933594 228.460938 C 106.734375 228.265625 106.5625 228.050781 106.40625 227.820312 C 106.253906 227.589844 106.121094 227.347656 106.015625 227.089844 C 105.910156 226.835938 105.828125 226.570312 105.773438 226.296875 C 105.722656 226.027344 105.695312 225.75 105.691406 225.472656 L 105.691406 136.707031 L 195.867188 136.707031 Z M 200.550781 229.699219 C 201.1875 228.363281 201.507812 226.957031 201.503906 225.472656 L 201.503906 133.890625 C 201.503906 133.515625 201.433594 133.15625 201.289062 132.8125 C 201.148438 132.464844 200.945312 132.160156 200.679688 131.898438 C 200.414062 131.632812 200.109375 131.429688 199.765625 131.285156 C 199.417969 131.144531 199.058594 131.070312 198.6875 131.070312 L 161.144531 131.070312 L 161.941406 111.347656 L 181.777344 111.347656 L 181.777344 116.980469 L 178.960938 116.980469 C 178.585938 116.980469 178.226562 117.054688 177.882812 117.195312 C 177.535156 117.339844 177.230469 117.542969 176.96875 117.808594 C 176.703125 118.070312 176.5 118.375 176.355469 118.722656 C 176.214844 119.066406 176.144531 119.425781 176.144531 119.800781 C 176.144531 120.171875 176.214844 120.53125 176.355469 120.878906 C 176.5 121.222656 176.703125 121.527344 176.96875 121.792969 C 177.230469 122.058594 177.535156 122.261719 177.882812 122.402344 C 178.226562 122.546875 178.585938 122.617188 178.960938 122.617188 L 190.234375 122.617188 C 190.605469 122.617188 190.964844 122.546875 191.3125 122.402344 C 191.65625 122.261719 191.960938 122.058594 192.226562 121.792969 C 192.488281 121.527344 192.691406 121.222656 192.835938 120.878906 C 192.980469 120.53125 193.050781 120.171875 193.050781 119.800781 C 193.050781 119.425781 192.980469 119.066406 192.835938 118.722656 C 192.691406 118.375 192.488281 118.070312 192.226562 117.808594 C 191.960938 117.542969 191.65625 117.339844 191.3125 117.195312 C 190.964844 117.054688 190.605469 116.980469 190.234375 116.980469 L 187.414062 116.980469 L 187.414062 111.347656 L 238.136719 111.347656 L 238.136719 116.980469 L 235.320312 116.980469 C 234.945312 116.980469 234.585938 117.054688 234.242188 117.195312 C 233.898438 117.339844 233.59375 117.542969 233.328125 117.808594 C 233.0625 118.070312 232.859375 118.375 232.71875 118.722656 C 232.574219 119.066406 232.503906 119.425781 232.503906 119.800781 C 232.503906 120.171875 232.574219 120.53125 232.71875 120.878906 C 232.859375 121.222656 233.0625 121.527344 233.328125 121.792969 C 233.59375 122.058594 233.898438 122.261719 234.242188 122.402344 C 234.585938 122.546875 234.945312 122.617188 235.320312 122.617188 L 246.59375 122.617188 C 246.964844 122.617188 247.324219 122.546875 247.671875 122.402344 C 248.015625 122.261719 248.320312 122.058594 248.585938 121.792969 C 248.847656 121.527344 249.050781 121.222656 249.195312 120.878906 C 249.339844 120.53125 249.410156 120.171875 249.410156 119.800781 C 249.410156 119.425781 249.339844 119.066406 249.195312 118.722656 C 249.050781 118.375 248.847656 118.070312 248.585938 117.808594 C 248.320312 117.542969 248.015625 117.339844 247.671875 117.195312 C 247.324219 117.054688 246.964844 116.980469 246.59375 116.980469 L 243.773438 116.980469 L 243.773438 111.347656 L 263.625 111.347656 L 269.003906 229.699219 Z M 200.550781 229.699219 " clip-rule="nonzero"/></clipPath><linearGradient x1="57.999495" gradientTransform="matrix(0.352248, 0, 0, 0.352248, 97.23929, 57.804319)" y1="553.999517" x2="553.94404" gradientUnits="userSpaceOnUse" y2="58.054963" id="912109f898"><stop stop-opacity="1" stop-color="rgb(0%, 24.710083%, 54.104614%)" offset="0"/><stop stop-opacity="1" stop-color="rgb(0%, 25.178528%, 54.367065%)" offset="0.00390625"/><stop stop-opacity="1" stop-color="rgb(0%, 25.648499%, 54.631042%)" offset="0.0078125"/><stop stop-opacity="1" stop-color="rgb(0%, 26.116943%, 54.893494%)" offset="0.0117188"/><stop stop-opacity="1" stop-color="rgb(0%, 26.586914%, 55.157471%)" offset="0.015625"/><stop stop-opacity="1" stop-color="rgb(0%, 27.055359%, 55.419922%)" offset="0.0195312"/><stop stop-opacity="1" stop-color="rgb(0%, 27.52533%, 55.683899%)" offset="0.0234375"/><stop stop-opacity="1" stop-color="rgb(0%, 27.993774%, 55.94635%)" offset="0.0273437"/><stop stop-opacity="1" stop-color="rgb(0%, 28.463745%, 56.208801%)" offset="0.03125"/><stop stop-opacity="1" stop-color="rgb(0%, 28.93219%, 56.471252%)" offset="0.0351562"/><stop stop-opacity="1" stop-color="rgb(0%, 29.402161%, 56.735229%)" offset="0.0390625"/><stop stop-opacity="1" stop-color="rgb(0%, 29.872131%, 56.997681%)" offset="0.0429687"/><stop stop-opacity="1" stop-color="rgb(0%, 30.342102%, 57.261658%)" offset="0.046875"/><stop stop-opacity="1" stop-color="rgb(0%, 30.810547%, 57.524109%)" offset="0.0507812"/><stop stop-opacity="1" stop-color="rgb(0%, 31.280518%, 57.78656%)" offset="0.0546875"/><stop stop-opacity="1" stop-color="rgb(0%, 31.748962%, 58.049011%)" offset="0.0585937"/><stop stop-opacity="1" stop-color="rgb(0%, 32.218933%, 58.312988%)" offset="0.0625"/><stop stop-opacity="1" stop-color="rgb(0%, 32.687378%, 58.575439%)" offset="0.0664062"/><stop stop-opacity="1" stop-color="rgb(0%, 33.157349%, 58.839417%)" offset="0.0703125"/><stop stop-opacity="1" stop-color="rgb(0%, 33.625793%, 59.101868%)" offset="0.0742188"/><stop stop-opacity="1" stop-color="rgb(0%, 34.095764%, 59.364319%)" offset="0.078125"/><stop stop-opacity="1" stop-color="rgb(0%, 34.564209%, 59.62677%)" offset="0.0820312"/><stop stop-opacity="1" stop-color="rgb(0%, 35.03418%, 59.890747%)" offset="0.0859375"/><stop stop-opacity="1" stop-color="rgb(0%, 35.502625%, 60.153198%)" offset="0.0898437"/><stop stop-opacity="1" stop-color="rgb(0%, 35.972595%, 60.417175%)" offset="0.09375"/><stop stop-opacity="1" stop-color="rgb(0%, 36.44104%, 60.679626%)" offset="0.0976562"/><stop stop-opacity="1" stop-color="rgb(0%, 36.911011%, 60.943604%)" offset="0.101562"/><stop stop-opacity="1" stop-color="rgb(0%, 37.379456%, 61.206055%)" offset="0.105469"/><stop stop-opacity="1" stop-color="rgb(0%, 37.849426%, 61.468506%)" offset="0.109375"/><stop stop-opacity="1" stop-color="rgb(0%, 38.317871%, 61.730957%)" offset="0.113281"/><stop stop-opacity="1" stop-color="rgb(0%, 38.787842%, 61.994934%)" offset="0.117187"/><stop stop-opacity="1" stop-color="rgb(0%, 39.257812%, 62.257385%)" offset="0.121094"/><stop stop-opacity="1" stop-color="rgb(0%, 39.727783%, 62.521362%)" offset="0.125"/><stop stop-opacity="1" stop-color="rgb(0%, 40.196228%, 62.783813%)" offset="0.128906"/><stop stop-opacity="1" stop-color="rgb(0%, 40.666199%, 63.046265%)" offset="0.132812"/><stop stop-opacity="1" stop-color="rgb(0%, 41.134644%, 63.308716%)" offset="0.136719"/><stop stop-opacity="1" stop-color="rgb(0%, 41.604614%, 63.572693%)" offset="0.140625"/><stop stop-opacity="1" stop-color="rgb(0%, 42.073059%, 63.835144%)" offset="0.144531"/><stop stop-opacity="1" stop-color="rgb(0%, 42.54303%, 64.099121%)" offset="0.148437"/><stop stop-opacity="1" stop-color="rgb(0%, 43.011475%, 64.361572%)" offset="0.152344"/><stop stop-opacity="1" stop-color="rgb(0%, 43.481445%, 64.624023%)" offset="0.15625"/><stop stop-opacity="1" stop-color="rgb(0%, 43.94989%, 64.886475%)" offset="0.160156"/><stop stop-opacity="1" stop-color="rgb(0%, 44.419861%, 65.150452%)" offset="0.164062"/><stop stop-opacity="1" stop-color="rgb(0%, 44.888306%, 65.412903%)" offset="0.167969"/><stop stop-opacity="1" stop-color="rgb(0%, 45.358276%, 65.67688%)" offset="0.171875"/><stop stop-opacity="1" stop-color="rgb(0%, 45.826721%, 65.939331%)" offset="0.175781"/><stop stop-opacity="1" stop-color="rgb(0%, 46.296692%, 66.203308%)" offset="0.179687"/><stop stop-opacity="1" stop-color="rgb(0%, 46.765137%, 66.465759%)" offset="0.183594"/><stop stop-opacity="1" stop-color="rgb(0%, 47.235107%, 66.72821%)" offset="0.1875"/><stop stop-opacity="1" stop-color="rgb(0%, 47.703552%, 66.990662%)" offset="0.191406"/><stop stop-opacity="1" stop-color="rgb(0%, 48.173523%, 67.254639%)" offset="0.195312"/><stop stop-opacity="1" stop-color="rgb(0%, 48.643494%, 67.51709%)" offset="0.199219"/><stop stop-opacity="1" stop-color="rgb(0%, 49.113464%, 67.781067%)" offset="0.203125"/><stop stop-opacity="1" stop-color="rgb(0%, 49.581909%, 68.043518%)" offset="0.207031"/><stop stop-opacity="1" stop-color="rgb(0%, 50.05188%, 68.305969%)" offset="0.210937"/><stop stop-opacity="1" stop-color="rgb(0%, 50.520325%, 68.56842%)" offset="0.214844"/><stop stop-opacity="1" stop-color="rgb(0%, 50.990295%, 68.832397%)" offset="0.21875"/><stop stop-opacity="1" stop-color="rgb(0%, 51.45874%, 69.094849%)" offset="0.222656"/><stop stop-opacity="1" stop-color="rgb(0%, 51.928711%, 69.358826%)" offset="0.226562"/><stop stop-opacity="1" stop-color="rgb(0%, 52.397156%, 69.621277%)" offset="0.230469"/><stop stop-opacity="1" stop-color="rgb(0%, 52.867126%, 69.885254%)" offset="0.234375"/><stop stop-opacity="1" stop-color="rgb(0%, 53.335571%, 70.147705%)" offset="0.238281"/><stop stop-opacity="1" stop-color="rgb(0%, 53.805542%, 70.410156%)" offset="0.242187"/><stop stop-opacity="1" stop-color="rgb(0%, 54.273987%, 70.672607%)" offset="0.246094"/><stop stop-opacity="1" stop-color="rgb(0%, 54.743958%, 70.936584%)" offset="0.25"/><stop stop-opacity="1" stop-color="rgb(0%, 55.212402%, 71.199036%)" offset="0.253906"/><stop stop-opacity="1" stop-color="rgb(0%, 55.682373%, 71.463013%)" offset="0.257813"/><stop stop-opacity="1" stop-color="rgb(0%, 56.150818%, 71.725464%)" offset="0.261719"/><stop stop-opacity="1" stop-color="rgb(0%, 56.620789%, 71.987915%)" offset="0.265625"/><stop stop-opacity="1" stop-color="rgb(0%, 57.089233%, 72.250366%)" offset="0.269531"/><stop stop-opacity="1" stop-color="rgb(0%, 57.559204%, 72.514343%)" offset="0.273438"/><stop stop-opacity="1" stop-color="rgb(0%, 58.027649%, 72.776794%)" offset="0.277344"/><stop stop-opacity="1" stop-color="rgb(0%, 58.49762%, 73.040771%)" offset="0.28125"/><stop stop-opacity="1" stop-color="rgb(0%, 58.96759%, 73.303223%)" offset="0.285156"/><stop stop-opacity="1" stop-color="rgb(0%, 59.437561%, 73.565674%)" offset="0.289062"/><stop stop-opacity="1" stop-color="rgb(0%, 59.906006%, 73.828125%)" offset="0.292969"/><stop stop-opacity="1" stop-color="rgb(0%, 60.375977%, 74.092102%)" offset="0.296875"/><stop stop-opacity="1" stop-color="rgb(0%, 60.844421%, 74.354553%)" offset="0.300781"/><stop stop-opacity="1" stop-color="rgb(0%, 61.314392%, 74.61853%)" offset="0.304688"/><stop stop-opacity="1" stop-color="rgb(0%, 61.782837%, 74.880981%)" offset="0.308594"/><stop stop-opacity="1" stop-color="rgb(0%, 62.252808%, 75.144958%)" offset="0.3125"/><stop stop-opacity="1" stop-color="rgb(0%, 62.721252%, 75.40741%)" offset="0.316406"/><stop stop-opacity="1" stop-color="rgb(0%, 63.191223%, 75.669861%)" offset="0.320312"/><stop stop-opacity="1" stop-color="rgb(0%, 63.659668%, 75.932312%)" offset="0.324219"/><stop stop-opacity="1" stop-color="rgb(0%, 64.129639%, 76.196289%)" offset="0.328125"/><stop stop-opacity="1" stop-color="rgb(0%, 64.598083%, 76.45874%)" offset="0.332031"/><stop stop-opacity="1" stop-color="rgb(0%, 65.068054%, 76.722717%)" offset="0.335938"/><stop stop-opacity="1" stop-color="rgb(0%, 65.536499%, 76.985168%)" offset="0.339844"/><stop stop-opacity="1" stop-color="rgb(0%, 66.00647%, 77.24762%)" offset="0.34375"/><stop stop-opacity="1" stop-color="rgb(0%, 66.474915%, 77.510071%)" offset="0.347656"/><stop stop-opacity="1" stop-color="rgb(0%, 66.944885%, 77.774048%)" offset="0.351562"/><stop stop-opacity="1" stop-color="rgb(0%, 67.41333%, 78.036499%)" offset="0.355469"/><stop stop-opacity="1" stop-color="rgb(0%, 67.883301%, 78.300476%)" offset="0.359375"/><stop stop-opacity="1" stop-color="rgb(0%, 68.353271%, 78.562927%)" offset="0.363281"/><stop stop-opacity="1" stop-color="rgb(0%, 68.823242%, 78.825378%)" offset="0.367187"/><stop stop-opacity="1" stop-color="rgb(0%, 69.291687%, 79.08783%)" offset="0.371094"/><stop stop-opacity="1" stop-color="rgb(0%, 69.761658%, 79.351807%)" offset="0.375"/><stop stop-opacity="1" stop-color="rgb(0%, 70.230103%, 79.614258%)" offset="0.378906"/><stop stop-opacity="1" stop-color="rgb(0%, 70.700073%, 79.878235%)" offset="0.382812"/><stop stop-opacity="1" stop-color="rgb(0%, 71.168518%, 80.140686%)" offset="0.386719"/><stop stop-opacity="1" stop-color="rgb(0%, 71.638489%, 80.404663%)" offset="0.390625"/><stop stop-opacity="1" stop-color="rgb(0%, 72.106934%, 80.667114%)" offset="0.394531"/><stop stop-opacity="1" stop-color="rgb(0%, 72.576904%, 80.929565%)" offset="0.398437"/><stop stop-opacity="1" stop-color="rgb(0%, 73.045349%, 81.192017%)" offset="0.402344"/><stop stop-opacity="1" stop-color="rgb(0%, 73.51532%, 81.455994%)" offset="0.40625"/><stop stop-opacity="1" stop-color="rgb(0%, 73.983765%, 81.718445%)" offset="0.410156"/><stop stop-opacity="1" stop-color="rgb(0%, 74.453735%, 81.982422%)" offset="0.414062"/><stop stop-opacity="1" stop-color="rgb(0%, 74.92218%, 82.244873%)" offset="0.417969"/><stop stop-opacity="1" stop-color="rgb(0%, 75.392151%, 82.507324%)" offset="0.421875"/><stop stop-opacity="1" stop-color="rgb(0%, 75.860596%, 82.769775%)" offset="0.425781"/><stop stop-opacity="1" stop-color="rgb(0%, 76.330566%, 83.033752%)" offset="0.429688"/><stop stop-opacity="1" stop-color="rgb(0%, 76.799011%, 83.296204%)" offset="0.433594"/><stop stop-opacity="1" stop-color="rgb(0%, 77.268982%, 83.560181%)" offset="0.4375"/><stop stop-opacity="1" stop-color="rgb(0%, 77.738953%, 83.822632%)" offset="0.441406"/><stop stop-opacity="1" stop-color="rgb(0%, 78.208923%, 84.085083%)" offset="0.445312"/><stop stop-opacity="1" stop-color="rgb(0%, 78.677368%, 84.347534%)" offset="0.449219"/><stop stop-opacity="1" stop-color="rgb(0%, 79.147339%, 84.611511%)" offset="0.453125"/><stop stop-opacity="1" stop-color="rgb(0%, 79.615784%, 84.873962%)" offset="0.457031"/><stop stop-opacity="1" stop-color="rgb(0%, 80.085754%, 85.137939%)" offset="0.460937"/><stop stop-opacity="1" stop-color="rgb(0%, 80.554199%, 85.400391%)" offset="0.464844"/><stop stop-opacity="1" stop-color="rgb(0%, 81.02417%, 85.664368%)" offset="0.46875"/><stop stop-opacity="1" stop-color="rgb(0%, 81.492615%, 85.926819%)" offset="0.472656"/><stop stop-opacity="1" stop-color="rgb(0%, 81.962585%, 86.18927%)" offset="0.476562"/><stop stop-opacity="1" stop-color="rgb(0%, 82.43103%, 86.451721%)" offset="0.480469"/><stop stop-opacity="1" stop-color="rgb(0%, 82.901001%, 86.715698%)" offset="0.484375"/><stop stop-opacity="1" stop-color="rgb(0%, 83.369446%, 86.978149%)" offset="0.488281"/><stop stop-opacity="1" stop-color="rgb(0%, 83.839417%, 87.242126%)" offset="0.492187"/><stop stop-opacity="1" stop-color="rgb(0%, 83.889771%, 87.399292%)" offset="0.496094"/><stop stop-opacity="1" stop-color="rgb(0%, 83.940125%, 87.556458%)" offset="0.5"/><stop stop-opacity="1" stop-color="rgb(0%, 83.587646%, 87.611389%)" offset="0.503906"/><stop stop-opacity="1" stop-color="rgb(0%, 83.236694%, 87.667847%)" offset="0.507812"/><stop stop-opacity="1" stop-color="rgb(0%, 82.884216%, 87.722778%)" offset="0.511719"/><stop stop-opacity="1" stop-color="rgb(0%, 82.531738%, 87.779236%)" offset="0.515625"/><stop stop-opacity="1" stop-color="rgb(0%, 82.17926%, 87.834167%)" offset="0.519531"/><stop stop-opacity="1" stop-color="rgb(0%, 81.828308%, 87.890625%)" offset="0.523437"/><stop stop-opacity="1" stop-color="rgb(0%, 81.47583%, 87.947083%)" offset="0.527344"/><stop stop-opacity="1" stop-color="rgb(0%, 81.123352%, 88.00354%)" offset="0.53125"/><stop stop-opacity="1" stop-color="rgb(0%, 80.770874%, 88.058472%)" offset="0.535156"/><stop stop-opacity="1" stop-color="rgb(0%, 80.419922%, 88.114929%)" offset="0.539062"/><stop stop-opacity="1" stop-color="rgb(0%, 80.067444%, 88.169861%)" offset="0.542969"/><stop stop-opacity="1" stop-color="rgb(0%, 79.716492%, 88.226318%)" offset="0.546875"/><stop stop-opacity="1" stop-color="rgb(0%, 79.364014%, 88.28125%)" offset="0.550781"/><stop stop-opacity="1" stop-color="rgb(0%, 79.011536%, 88.337708%)" offset="0.554687"/><stop stop-opacity="1" stop-color="rgb(0%, 78.659058%, 88.392639%)" offset="0.558594"/><stop stop-opacity="1" stop-color="rgb(0%, 78.308105%, 88.449097%)" offset="0.5625"/><stop stop-opacity="1" stop-color="rgb(0%, 77.955627%, 88.505554%)" offset="0.566406"/><stop stop-opacity="1" stop-color="rgb(0%, 77.603149%, 88.562012%)" offset="0.570312"/><stop stop-opacity="1" stop-color="rgb(0%, 77.250671%, 88.616943%)" offset="0.574219"/><stop stop-opacity="1" stop-color="rgb(0%, 76.899719%, 88.673401%)" offset="0.578125"/><stop stop-opacity="1" stop-color="rgb(0%, 76.547241%, 88.728333%)" offset="0.582031"/><stop stop-opacity="1" stop-color="rgb(0%, 76.196289%, 88.78479%)" offset="0.585937"/><stop stop-opacity="1" stop-color="rgb(0%, 75.843811%, 88.839722%)" offset="0.589844"/><stop stop-opacity="1" stop-color="rgb(0%, 75.491333%, 88.896179%)" offset="0.59375"/><stop stop-opacity="1" stop-color="rgb(0%, 75.138855%, 88.951111%)" offset="0.597656"/><stop stop-opacity="1" stop-color="rgb(0%, 74.787903%, 89.007568%)" offset="0.601562"/><stop stop-opacity="1" stop-color="rgb(0%, 74.435425%, 89.064026%)" offset="0.605469"/><stop stop-opacity="1" stop-color="rgb(0%, 74.082947%, 89.120483%)" offset="0.609375"/><stop stop-opacity="1" stop-color="rgb(0%, 73.730469%, 89.175415%)" offset="0.613281"/><stop stop-opacity="1" stop-color="rgb(0%, 73.379517%, 89.231873%)" offset="0.617187"/><stop stop-opacity="1" stop-color="rgb(0%, 73.027039%, 89.286804%)" offset="0.621094"/><stop stop-opacity="1" stop-color="rgb(0%, 72.676086%, 89.343262%)" offset="0.625"/><stop stop-opacity="1" stop-color="rgb(0%, 72.323608%, 89.398193%)" offset="0.628906"/><stop stop-opacity="1" stop-color="rgb(0%, 71.97113%, 89.454651%)" offset="0.632812"/><stop stop-opacity="1" stop-color="rgb(0%, 71.618652%, 89.509583%)" offset="0.636719"/><stop stop-opacity="1" stop-color="rgb(0%, 71.2677%, 89.56604%)" offset="0.640625"/><stop stop-opacity="1" stop-color="rgb(0%, 70.915222%, 89.622498%)" offset="0.644531"/><stop stop-opacity="1" stop-color="rgb(0%, 70.562744%, 89.678955%)" offset="0.648438"/><stop stop-opacity="1" stop-color="rgb(0%, 70.210266%, 89.733887%)" offset="0.652344"/><stop stop-opacity="1" stop-color="rgb(0%, 69.859314%, 89.790344%)" offset="0.65625"/><stop stop-opacity="1" stop-color="rgb(0%, 69.506836%, 89.845276%)" offset="0.660156"/><stop stop-opacity="1" stop-color="rgb(0%, 69.155884%, 89.901733%)" offset="0.664062"/><stop stop-opacity="1" stop-color="rgb(0%, 68.803406%, 89.956665%)" offset="0.667969"/><stop stop-opacity="1" stop-color="rgb(0%, 68.450928%, 90.013123%)" offset="0.671875"/><stop stop-opacity="1" stop-color="rgb(0%, 68.09845%, 90.06958%)" offset="0.675781"/><stop stop-opacity="1" stop-color="rgb(0%, 67.747498%, 90.126038%)" offset="0.679687"/><stop stop-opacity="1" stop-color="rgb(0%, 67.39502%, 90.180969%)" offset="0.683594"/><stop stop-opacity="1" stop-color="rgb(0%, 67.042542%, 90.237427%)" offset="0.6875"/><stop stop-opacity="1" stop-color="rgb(0%, 66.690063%, 90.292358%)" offset="0.691406"/><stop stop-opacity="1" stop-color="rgb(0%, 66.339111%, 90.348816%)" offset="0.695312"/><stop stop-opacity="1" stop-color="rgb(0%, 65.986633%, 90.403748%)" offset="0.699219"/><stop stop-opacity="1" stop-color="rgb(0%, 65.635681%, 90.460205%)" offset="0.703125"/><stop stop-opacity="1" stop-color="rgb(0%, 65.283203%, 90.515137%)" offset="0.707031"/><stop stop-opacity="1" stop-color="rgb(0%, 64.930725%, 90.571594%)" offset="0.710938"/><stop stop-opacity="1" stop-color="rgb(0%, 64.578247%, 90.628052%)" offset="0.714844"/><stop stop-opacity="1" stop-color="rgb(0%, 64.227295%, 90.684509%)" offset="0.71875"/><stop stop-opacity="1" stop-color="rgb(0%, 63.874817%, 90.739441%)" offset="0.722656"/><stop stop-opacity="1" stop-color="rgb(0%, 63.522339%, 90.795898%)" offset="0.726562"/><stop stop-opacity="1" stop-color="rgb(0%, 63.169861%, 90.85083%)" offset="0.730469"/><stop stop-opacity="1" stop-color="rgb(0%, 62.818909%, 90.907288%)" offset="0.734375"/><stop stop-opacity="1" stop-color="rgb(0%, 62.466431%, 90.962219%)" offset="0.738281"/><stop stop-opacity="1" stop-color="rgb(0%, 62.115479%, 91.018677%)" offset="0.742187"/><stop stop-opacity="1" stop-color="rgb(0%, 61.763%, 91.073608%)" offset="0.746094"/><stop stop-opacity="1" stop-color="rgb(0%, 61.410522%, 91.130066%)" offset="0.75"/><stop stop-opacity="1" stop-color="rgb(0%, 61.058044%, 91.186523%)" offset="0.753906"/><stop stop-opacity="1" stop-color="rgb(0%, 60.707092%, 91.242981%)" offset="0.757812"/><stop stop-opacity="1" stop-color="rgb(0%, 60.354614%, 91.297913%)" offset="0.761719"/><stop stop-opacity="1" stop-color="rgb(0%, 60.002136%, 91.35437%)" offset="0.765625"/><stop stop-opacity="1" stop-color="rgb(0%, 59.649658%, 91.409302%)" offset="0.769531"/><stop stop-opacity="1" stop-color="rgb(0%, 59.298706%, 91.465759%)" offset="0.773438"/><stop stop-opacity="1" stop-color="rgb(0%, 58.946228%, 91.520691%)" offset="0.777344"/><stop stop-opacity="1" stop-color="rgb(0%, 58.595276%, 91.577148%)" offset="0.78125"/><stop stop-opacity="1" stop-color="rgb(0%, 58.242798%, 91.63208%)" offset="0.785156"/><stop stop-opacity="1" stop-color="rgb(0%, 57.89032%, 91.688538%)" offset="0.789062"/><stop stop-opacity="1" stop-color="rgb(0%, 57.537842%, 91.744995%)" offset="0.792969"/><stop stop-opacity="1" stop-color="rgb(0%, 57.18689%, 91.801453%)" offset="0.796875"/><stop stop-opacity="1" stop-color="rgb(0%, 56.834412%, 91.856384%)" offset="0.800781"/><stop stop-opacity="1" stop-color="rgb(0%, 56.481934%, 91.912842%)" offset="0.804688"/><stop stop-opacity="1" stop-color="rgb(0%, 56.129456%, 91.967773%)" offset="0.808594"/><stop stop-opacity="1" stop-color="rgb(0%, 55.778503%, 92.024231%)" offset="0.8125"/><stop stop-opacity="1" stop-color="rgb(0%, 55.426025%, 92.079163%)" offset="0.816406"/><stop stop-opacity="1" stop-color="rgb(0%, 55.075073%, 92.13562%)" offset="0.820312"/><stop stop-opacity="1" stop-color="rgb(0%, 54.722595%, 92.190552%)" offset="0.824219"/><stop stop-opacity="1" stop-color="rgb(0%, 54.370117%, 92.247009%)" offset="0.828125"/><stop stop-opacity="1" stop-color="rgb(0%, 54.017639%, 92.303467%)" offset="0.832031"/><stop stop-opacity="1" stop-color="rgb(0%, 53.666687%, 92.359924%)" offset="0.835937"/><stop stop-opacity="1" stop-color="rgb(0%, 53.314209%, 92.414856%)" offset="0.839844"/><stop stop-opacity="1" stop-color="rgb(0%, 52.961731%, 92.471313%)" offset="0.84375"/><stop stop-opacity="1" stop-color="rgb(0%, 52.609253%, 92.526245%)" offset="0.847656"/><stop stop-opacity="1" stop-color="rgb(0%, 52.258301%, 92.582703%)" offset="0.851562"/><stop stop-opacity="1" stop-color="rgb(0%, 51.905823%, 92.637634%)" offset="0.855469"/><stop stop-opacity="1" stop-color="rgb(0%, 51.554871%, 92.694092%)" offset="0.859375"/><stop stop-opacity="1" stop-color="rgb(0%, 51.202393%, 92.749023%)" offset="0.863281"/><stop stop-opacity="1" stop-color="rgb(0%, 50.849915%, 92.805481%)" offset="0.867188"/><stop stop-opacity="1" stop-color="rgb(0%, 50.497437%, 92.861938%)" offset="0.871094"/><stop stop-opacity="1" stop-color="rgb(0%, 50.146484%, 92.918396%)" offset="0.875"/><stop stop-opacity="1" stop-color="rgb(0%, 49.794006%, 92.973328%)" offset="0.878906"/><stop stop-opacity="1" stop-color="rgb(0%, 49.441528%, 93.029785%)" offset="0.882812"/><stop stop-opacity="1" stop-color="rgb(0%, 49.08905%, 93.084717%)" offset="0.886719"/><stop stop-opacity="1" stop-color="rgb(0%, 48.738098%, 93.141174%)" offset="0.890625"/><stop stop-opacity="1" stop-color="rgb(0%, 48.38562%, 93.196106%)" offset="0.894531"/><stop stop-opacity="1" stop-color="rgb(0%, 48.034668%, 93.252563%)" offset="0.898437"/><stop stop-opacity="1" stop-color="rgb(0%, 47.68219%, 93.307495%)" offset="0.902344"/><stop stop-opacity="1" stop-color="rgb(0%, 47.329712%, 93.363953%)" offset="0.90625"/><stop stop-opacity="1" stop-color="rgb(0%, 46.977234%, 93.42041%)" offset="0.910156"/><stop stop-opacity="1" stop-color="rgb(0%, 46.626282%, 93.476868%)" offset="0.914062"/><stop stop-opacity="1" stop-color="rgb(0%, 46.273804%, 93.531799%)" offset="0.917969"/><stop stop-opacity="1" stop-color="rgb(0%, 45.922852%, 93.588257%)" offset="0.921875"/><stop stop-opacity="1" stop-color="rgb(0%, 45.570374%, 93.643188%)" offset="0.925781"/><stop stop-opacity="1" stop-color="rgb(0%, 45.217896%, 93.699646%)" offset="0.929687"/><stop stop-opacity="1" stop-color="rgb(0%, 44.865417%, 93.754578%)" offset="0.933594"/><stop stop-opacity="1" stop-color="rgb(0%, 44.514465%, 93.811035%)" offset="0.9375"/><stop stop-opacity="1" stop-color="rgb(0%, 44.161987%, 93.865967%)" offset="0.941406"/><stop stop-opacity="1" stop-color="rgb(0%, 43.809509%, 93.922424%)" offset="0.945312"/><stop stop-opacity="1" stop-color="rgb(0%, 43.457031%, 93.978882%)" offset="0.949219"/><stop stop-opacity="1" stop-color="rgb(0%, 43.106079%, 94.035339%)" offset="0.953125"/><stop stop-opacity="1" stop-color="rgb(0%, 42.901611%, 94.067383%)" offset="0.957031"/><stop stop-opacity="1" stop-color="rgb(0%, 42.698669%, 94.099426%)" offset="0.960938"/><stop stop-opacity="1" stop-color="rgb(0%, 42.698669%, 94.099426%)" offset="0.96875"/><stop stop-opacity="1" stop-color="rgb(0%, 42.698669%, 94.099426%)" offset="1"/></linearGradient><clipPath id="f86ee4ecb1"><path d="M 258.957031 188.886719 L 310.484375 188.886719 L 310.484375 233.695312 L 258.957031 233.695312 Z M 258.957031 188.886719 " clip-rule="nonzero"/></clipPath><clipPath id="fcb10e5406"><path d="M 262 184.949219 L 266 184.949219 L 266 193 L 262 193 Z M 262 184.949219 " clip-rule="nonzero"/></clipPath><clipPath id="2a12ad546f"><path d="M 249.765625 198 L 258 198 L 258 201 L 249.765625 201 Z M 249.765625 198 " clip-rule="nonzero"/></clipPath></defs><g clip-path="url(#74cc3261d0)"><g clip-path="url(#7878ebee76)"><path fill="url(#7e19fdfe78)" d="M 116.964844 145.160156 L 116.964844 198.703125 L 184.597656 198.703125 L 184.597656 145.160156 Z M 116.964844 145.160156 " fill-rule="nonzero"/></g></g><g clip-path="url(#5778560a05)"><g clip-path="url(#d07e13ecdb)"><path fill="url(#912109f898)" d="M 100.058594 60.675781 L 100.058594 235.335938 L 274.785156 235.335938 L 274.785156 60.675781 Z M 100.058594 60.675781 " fill-rule="nonzero"/></g></g><path fill="#ffffff" d="M 289.953125 232.3125 C 287.4375 232.3125 284.914062 231.71875 282.65625 230.589844 L 277.164062 227.84375 L 271.226562 224.789062 C 269.21875 223.757812 268.417969 221.269531 269.4375 219.242188 C 269.636719 218.855469 269.886719 218.507812 270.179688 218.207031 C 270.941406 217.433594 272 216.988281 273.082031 216.988281 C 273.722656 216.988281 274.363281 217.144531 274.933594 217.4375 L 277.960938 218.992188 L 261.550781 202.5625 C 259.953125 200.964844 259.941406 198.351562 261.519531 196.734375 C 261.53125 196.722656 261.582031 196.671875 261.582031 196.671875 C 262.332031 195.9375 263.332031 195.53125 264.394531 195.53125 C 265.5 195.53125 266.582031 195.980469 267.371094 196.769531 L 273.972656 203.378906 C 273.4375 201.917969 273.746094 200.210938 274.898438 199.035156 L 274.957031 198.980469 C 275.707031 198.242188 276.707031 197.835938 277.769531 197.835938 C 278.875 197.835938 279.957031 198.289062 280.746094 199.074219 L 281.015625 199.347656 C 280.46875 197.886719 280.738281 196.183594 281.84375 195.015625 L 281.898438 194.957031 C 282.671875 194.171875 283.703125 193.738281 284.800781 193.738281 C 285.886719 193.738281 286.910156 194.164062 287.679688 194.933594 L 288.6875 195.941406 C 288.136719 194.480469 288.410156 192.777344 289.519531 191.609375 C 289.539062 191.585938 289.558594 191.566406 289.582031 191.542969 C 290.355469 190.761719 291.378906 190.332031 292.472656 190.332031 C 293.558594 190.332031 294.582031 190.757812 295.351562 191.527344 L 303.9375 200.128906 L 304.449219 200.636719 C 304.457031 200.644531 305.066406 201.269531 305.34375 201.640625 C 308.792969 205.78125 309.921875 211.148438 308.527344 216.761719 C 308.011719 218.84375 307.128906 220.785156 305.90625 222.53125 C 305.363281 223.316406 304.734375 224.074219 304.039062 224.78125 L 301.3125 227.558594 C 301.1875 227.683594 301.0625 227.804688 300.941406 227.925781 C 297.988281 230.757812 294.085938 232.3125 289.953125 232.3125 " fill-opacity="1" fill-rule="nonzero"/><g clip-path="url(#f86ee4ecb1)"><path fill="#000000" d="M 292.472656 188.949219 C 291.019531 188.949219 289.652344 189.519531 288.621094 190.558594 C 288.578125 190.597656 288.546875 190.632812 288.527344 190.652344 C 287.910156 191.304688 287.472656 192.082031 287.238281 192.929688 C 286.492188 192.554688 285.660156 192.355469 284.800781 192.355469 C 283.335938 192.355469 281.960938 192.933594 280.929688 193.984375 L 280.910156 194 L 280.894531 194.015625 L 280.890625 194.023438 L 280.855469 194.058594 C 280.144531 194.808594 279.675781 195.726562 279.476562 196.726562 C 278.925781 196.546875 278.351562 196.453125 277.769531 196.453125 C 276.351562 196.453125 275.019531 196.996094 274.011719 197.976562 C 274 197.988281 273.992188 197.996094 273.980469 198.003906 L 273.925781 198.058594 C 273.339844 198.660156 272.914062 199.363281 272.65625 200.109375 L 268.335938 195.785156 C 267.292969 194.746094 265.859375 194.148438 264.394531 194.148438 C 262.972656 194.148438 261.636719 194.691406 260.625 195.679688 L 260.578125 195.726562 C 260.566406 195.742188 260.554688 195.753906 260.542969 195.765625 C 258.433594 197.921875 258.453125 201.410156 260.585938 203.546875 L 272.648438 215.625 C 271.355469 215.730469 270.121094 216.304688 269.207031 217.234375 C 268.8125 217.632812 268.484375 218.09375 268.222656 218.601562 L 268.222656 218.609375 L 268.21875 218.613281 C 266.851562 221.320312 267.921875 224.644531 270.605469 226.023438 L 276.542969 229.074219 L 276.570312 229.089844 L 282.046875 231.828125 C 284.492188 233.050781 287.226562 233.695312 289.949219 233.695312 C 294.4375 233.695312 298.675781 232.003906 301.878906 228.933594 L 301.886719 228.925781 C 302.019531 228.796875 302.152344 228.667969 302.277344 228.539062 L 302.285156 228.53125 L 305.011719 225.753906 C 305.761719 224.996094 306.4375 224.179688 307.03125 223.324219 C 308.347656 221.441406 309.300781 219.34375 309.859375 217.097656 C 311.359375 211.050781 310.136719 205.257812 306.410156 200.769531 C 306.050781 200.300781 305.421875 199.664062 305.417969 199.65625 L 305.410156 199.652344 L 304.902344 199.144531 L 302.941406 197.179688 L 296.316406 190.546875 C 295.285156 189.515625 293.921875 188.949219 292.472656 188.949219 Z M 292.472656 191.714844 C 293.164062 191.714844 293.855469 191.980469 294.386719 192.511719 L 301.011719 199.144531 L 303.484375 201.617188 C 303.652344 201.789062 304.136719 202.308594 304.269531 202.5 C 307.65625 206.542969 308.414062 211.542969 307.199219 216.425781 C 306.734375 218.296875 305.933594 220.097656 304.789062 221.734375 C 304.285156 222.460938 303.707031 223.15625 303.066406 223.808594 L 300.339844 226.585938 C 300.226562 226.699219 300.109375 226.8125 299.992188 226.925781 C 297.230469 229.574219 293.613281 230.929688 289.949219 230.929688 C 287.675781 230.929688 285.382812 230.410156 283.261719 229.347656 L 277.785156 226.609375 L 271.847656 223.558594 C 270.511719 222.871094 269.980469 221.21875 270.660156 219.871094 C 270.792969 219.609375 270.957031 219.378906 271.152344 219.179688 C 271.664062 218.660156 272.363281 218.371094 273.082031 218.371094 C 273.496094 218.371094 273.917969 218.46875 274.3125 218.671875 L 279.304688 221.238281 L 279.585938 221.378906 C 279.742188 221.460938 279.894531 221.496094 280.042969 221.496094 C 280.304688 221.496094 280.539062 221.382812 280.714844 221.203125 C 281.0625 220.851562 281.160156 220.246094 280.714844 219.804688 L 262.515625 201.582031 C 261.449219 200.515625 261.441406 198.777344 262.5 197.703125 C 262.511719 197.691406 262.523438 197.679688 262.535156 197.664062 C 263.050781 197.160156 263.722656 196.914062 264.394531 196.914062 C 265.121094 196.914062 265.855469 197.199219 266.40625 197.75 L 281.523438 212.886719 C 281.753906 213.117188 282.054688 213.234375 282.359375 213.234375 C 282.648438 213.230469 282.9375 213.121094 283.164062 212.910156 C 283.171875 212.898438 283.179688 212.890625 283.191406 212.878906 C 283.652344 212.410156 283.613281 211.621094 283.144531 211.152344 L 275.890625 203.886719 C 274.824219 202.820312 274.816406 201.082031 275.875 200.007812 C 275.886719 199.996094 275.898438 199.984375 275.910156 199.972656 C 276.425781 199.464844 277.097656 199.21875 277.769531 199.21875 C 278.496094 199.21875 279.230469 199.503906 279.78125 200.054688 L 288.019531 208.304688 C 288.25 208.535156 288.554688 208.652344 288.855469 208.652344 C 289.144531 208.648438 289.433594 208.542969 289.660156 208.328125 C 289.667969 208.320312 289.679688 208.308594 289.6875 208.300781 C 290.148438 207.832031 290.109375 207.039062 289.640625 206.570312 L 282.953125 199.875 C 281.890625 198.8125 281.804688 197.0625 282.835938 195.96875 C 282.847656 195.957031 282.859375 195.945312 282.871094 195.933594 C 283.402344 195.390625 284.101562 195.121094 284.800781 195.121094 C 285.492188 195.121094 286.1875 195.386719 286.714844 195.914062 L 294.683594 203.894531 C 294.914062 204.125 295.214844 204.238281 295.515625 204.238281 C 295.820312 204.238281 296.121094 204.121094 296.355469 203.886719 C 296.8125 203.417969 296.8125 202.664062 296.347656 202.199219 L 290.625 196.46875 C 289.5625 195.40625 289.472656 193.65625 290.507812 192.5625 C 290.519531 192.550781 290.53125 192.539062 290.542969 192.527344 C 291.074219 191.988281 291.773438 191.714844 292.472656 191.714844 " fill-opacity="1" fill-rule="nonzero"/></g><path fill="#000000" d="M 255.171875 188.929688 C 254.800781 188.929688 254.449219 189.078125 254.183594 189.34375 C 254.183594 189.347656 254.179688 189.347656 254.179688 189.347656 C 253.632812 189.90625 253.636719 190.808594 254.1875 191.359375 L 257.917969 195.074219 C 258.183594 195.339844 258.539062 195.488281 258.914062 195.484375 C 259.289062 195.484375 259.640625 195.335938 259.902344 195.070312 C 259.90625 195.066406 259.90625 195.066406 259.910156 195.066406 C 260.171875 194.796875 260.320312 194.4375 260.316406 194.058594 C 260.316406 193.679688 260.167969 193.320312 259.898438 193.054688 L 256.171875 189.339844 C 255.902344 189.074219 255.550781 188.925781 255.171875 188.929688 " fill-opacity="1" fill-rule="nonzero"/><g clip-path="url(#fcb10e5406)"><path fill="#000000" d="M 265.636719 186.363281 C 265.632812 185.582031 265 184.945312 264.222656 184.949219 C 263.445312 184.953125 262.816406 185.59375 262.820312 186.378906 L 262.855469 191.222656 C 262.859375 192.003906 263.492188 192.640625 264.269531 192.636719 C 264.65625 192.636719 265.007812 192.476562 265.261719 192.21875 C 265.515625 191.960938 265.675781 191.601562 265.671875 191.207031 L 265.636719 186.363281 " fill-opacity="1" fill-rule="nonzero"/></g><g clip-path="url(#2a12ad546f)"><path fill="#000000" d="M 251.207031 198.101562 C 250.429688 198.097656 249.792969 198.734375 249.792969 199.515625 C 249.789062 200.300781 250.417969 200.941406 251.191406 200.945312 L 255.992188 200.980469 C 256.382812 200.980469 256.738281 200.820312 256.996094 200.5625 C 257.25 200.308594 257.40625 199.953125 257.40625 199.5625 C 257.410156 198.78125 256.78125 198.140625 256.003906 198.136719 L 251.207031 198.101562 " fill-opacity="1" fill-rule="nonzero"/></g><path fill="#000000" d="M 273.90625 187.398438 C 273.53125 187.402344 273.179688 187.550781 272.910156 187.820312 L 269.234375 191.585938 C 268.96875 191.855469 268.824219 192.210938 268.824219 192.589844 C 268.824219 192.972656 268.972656 193.328125 269.242188 193.59375 C 269.789062 194.144531 270.679688 194.144531 271.230469 193.589844 C 271.230469 193.589844 271.230469 193.585938 271.234375 193.585938 L 274.914062 189.820312 C 275.460938 189.265625 275.457031 188.363281 274.902344 187.8125 C 274.636719 187.542969 274.28125 187.398438 273.90625 187.398438 " fill-opacity="1" fill-rule="nonzero"/><path fill="#000000" d="M 256.535156 204.496094 C 256.53125 204.496094 256.53125 204.496094 256.53125 204.5 L 252.851562 208.261719 C 252.585938 208.53125 252.441406 208.890625 252.441406 209.269531 C 252.445312 209.648438 252.589844 210.007812 252.859375 210.273438 C 253.125 210.539062 253.480469 210.6875 253.855469 210.6875 C 254.230469 210.683594 254.582031 210.535156 254.847656 210.269531 C 254.847656 210.265625 254.847656 210.265625 254.851562 210.265625 L 258.53125 206.5 C 258.792969 206.230469 258.941406 205.875 258.9375 205.492188 C 258.9375 205.113281 258.789062 204.757812 258.523438 204.488281 C 258.253906 204.222656 257.902344 204.074219 257.523438 204.078125 C 257.148438 204.078125 256.796875 204.226562 256.535156 204.496094 " fill-opacity="1" fill-rule="nonzero"/><g fill="#00d7df" fill-opacity="1"><g transform="translate(32.787954, 306.301343)"><g><path d="M 8.8125 0.34375 C 7.988281 0.34375 7.238281 0.257812 6.5625 0.09375 C 5.882812 -0.0703125 5.234375 -0.363281 4.609375 -0.78125 C 3.992188 -1.207031 3.476562 -1.769531 3.0625 -2.46875 C 2.125 -3.96875 1.65625 -6.179688 1.65625 -9.109375 C 1.65625 -12.785156 2.363281 -15.300781 3.78125 -16.65625 C 4.476562 -17.3125 5.226562 -17.773438 6.03125 -18.046875 C 6.832031 -18.328125 7.757812 -18.46875 8.8125 -18.46875 C 9.875 -18.46875 10.804688 -18.328125 11.609375 -18.046875 C 12.410156 -17.773438 13.15625 -17.3125 13.84375 -16.65625 C 15.269531 -15.300781 15.984375 -12.785156 15.984375 -9.109375 C 15.984375 -4.898438 14.992188 -2.125 13.015625 -0.78125 C 11.910156 -0.03125 10.507812 0.34375 8.8125 0.34375 Z M 6.25 -3.03125 C 6.59375 -2.769531 6.957031 -2.59375 7.34375 -2.5 C 7.738281 -2.40625 8.332031 -2.359375 9.125 -2.359375 C 9.925781 -2.359375 10.582031 -2.503906 11.09375 -2.796875 C 12.238281 -3.441406 12.8125 -5.519531 12.8125 -9.03125 C 12.8125 -10.476562 12.738281 -11.640625 12.59375 -12.515625 C 12.457031 -13.398438 12.210938 -14.082031 11.859375 -14.5625 C 11.503906 -15.050781 11.097656 -15.375 10.640625 -15.53125 C 10.179688 -15.6875 9.570312 -15.765625 8.8125 -15.765625 C 8.050781 -15.765625 7.445312 -15.6875 7 -15.53125 C 6.550781 -15.375 6.148438 -15.050781 5.796875 -14.5625 C 5.441406 -14.082031 5.191406 -13.398438 5.046875 -12.515625 C 4.910156 -11.640625 4.84375 -10.546875 4.84375 -9.234375 C 4.84375 -7.929688 4.894531 -6.882812 5 -6.09375 C 5.101562 -5.300781 5.25 -4.65625 5.4375 -4.15625 C 5.632812 -3.664062 5.90625 -3.289062 6.25 -3.03125 Z M 6.25 -3.03125 "/></g></g></g><g fill="#00d7df" fill-opacity="1"><g transform="translate(63.108316, 306.301343)"><g><path d="M 2.515625 0 L 2.515625 -18.125 L 6.484375 -18.125 L 13 -3.5 L 13.125 -3.5 L 12.765625 -18.125 L 15.640625 -18.125 L 15.640625 0 L 11.671875 0 L 5.1875 -14.609375 L 5.0625 -14.609375 L 5.390625 0 Z M 2.515625 0 "/></g></g></g><g fill="#00d7df" fill-opacity="1"><g transform="translate(93.921383, 306.301343)"><g><path d="M 2.515625 0 L 2.515625 -18.125 L 5.546875 -18.125 L 5.421875 -2.640625 L 12.03125 -2.703125 L 12.03125 0 Z M 2.515625 0 "/></g></g></g><g fill="#00d7df" fill-opacity="1"><g transform="translate(118.718189, 306.301343)"><g><path d="M 2.515625 0.03125 L 2.625 -8.328125 L 2.515625 -18.125 L 5.578125 -18.125 L 5.46875 -10.09375 L 5.578125 0.03125 Z M 2.515625 0.03125 "/></g></g></g><g fill="#00d7df" fill-opacity="1"><g transform="translate(139.521437, 306.301343)"><g><path d="M 2.515625 0 L 2.515625 -18.125 L 6.484375 -18.125 L 13 -3.5 L 13.125 -3.5 L 12.765625 -18.125 L 15.640625 -18.125 L 15.640625 0 L 11.671875 0 L 5.1875 -14.609375 L 5.0625 -14.609375 L 5.390625 0 Z M 2.515625 0 "/></g></g></g><g fill="#00d7df" fill-opacity="1"><g transform="translate(170.3345, 306.301343)"><g><path d="M 2.515625 0 L 2.515625 -18.125 L 12.328125 -18.125 L 12.328125 -15.484375 L 5.546875 -15.5625 L 5.421875 -10.484375 L 11.671875 -10.484375 L 11.671875 -7.90625 L 5.421875 -7.90625 L 5.546875 -2.59375 L 12.328125 -2.640625 L 12.328125 0 Z M 2.515625 0 "/></g></g></g><g fill="#00d7df" fill-opacity="1"><g transform="translate(196.894698, 306.301343)"><g/></g></g><g fill="#00d7df" fill-opacity="1"><g transform="translate(215.675246, 306.301343)"><g><path d="M 7.34375 -2.390625 C 8.863281 -2.390625 9.625 -3.21875 9.625 -4.875 C 9.625 -5.582031 9.335938 -6.175781 8.765625 -6.65625 C 8.191406 -7.144531 7.398438 -7.617188 6.390625 -8.078125 C 5.378906 -8.535156 4.800781 -8.800781 4.65625 -8.875 C 4.507812 -8.957031 4.242188 -9.101562 3.859375 -9.3125 C 3.484375 -9.519531 3.222656 -9.691406 3.078125 -9.828125 C 2.929688 -9.960938 2.722656 -10.164062 2.453125 -10.4375 C 2.179688 -10.707031 1.992188 -10.976562 1.890625 -11.25 C 1.597656 -12 1.453125 -12.726562 1.453125 -13.4375 C 1.453125 -14.90625 1.957031 -16.109375 2.96875 -17.046875 C 3.976562 -17.992188 5.414062 -18.46875 7.28125 -18.46875 C 8.65625 -18.46875 10.003906 -18.273438 11.328125 -17.890625 L 12.03125 -17.71875 L 11.546875 -15.171875 C 9.660156 -15.535156 8.21875 -15.71875 7.21875 -15.71875 C 6.226562 -15.71875 5.539062 -15.554688 5.15625 -15.234375 C 4.78125 -14.921875 4.59375 -14.410156 4.59375 -13.703125 C 4.59375 -13.003906 4.828125 -12.457031 5.296875 -12.0625 C 5.773438 -11.675781 6.328125 -11.332031 6.953125 -11.03125 C 7.585938 -10.726562 8.097656 -10.488281 8.484375 -10.3125 C 8.878906 -10.144531 9.175781 -10.015625 9.375 -9.921875 C 9.570312 -9.828125 9.84375 -9.679688 10.1875 -9.484375 C 10.539062 -9.285156 10.8125 -9.101562 11 -8.9375 C 11.1875 -8.769531 11.410156 -8.550781 11.671875 -8.28125 C 11.929688 -8.019531 12.125 -7.75 12.25 -7.46875 C 12.570312 -6.789062 12.734375 -6.066406 12.734375 -5.296875 C 12.734375 -3.617188 12.1875 -2.257812 11.09375 -1.21875 C 10.007812 -0.175781 8.585938 0.34375 6.828125 0.34375 C 5.921875 0.34375 4.976562 0.210938 4 -0.046875 C 3.03125 -0.304688 2.285156 -0.566406 1.765625 -0.828125 L 0.953125 -1.25 C 1.109375 -1.71875 1.238281 -2.09375 1.34375 -2.375 C 1.445312 -2.65625 1.535156 -2.894531 1.609375 -3.09375 C 1.679688 -3.289062 1.757812 -3.503906 1.84375 -3.734375 C 3.832031 -2.835938 5.664062 -2.390625 7.34375 -2.390625 Z M 7.34375 -2.390625 "/></g></g></g><g fill="#00d7df" fill-opacity="1"><g transform="translate(242.416957, 306.301343)"><g><path d="M -0.109375 -18.125 L 12.890625 -18.125 L 12.890625 -15.453125 L 7.828125 -15.53125 L 7.890625 0 L 4.875 0 L 4.953125 -15.53125 L -0.109375 -15.453125 Z M -0.109375 -18.125 "/></g></g></g><g fill="#00d7df" fill-opacity="1"><g transform="translate(268.017668, 306.301343)"><g><path d="M 8.8125 0.34375 C 7.988281 0.34375 7.238281 0.257812 6.5625 0.09375 C 5.882812 -0.0703125 5.234375 -0.363281 4.609375 -0.78125 C 3.992188 -1.207031 3.476562 -1.769531 3.0625 -2.46875 C 2.125 -3.96875 1.65625 -6.179688 1.65625 -9.109375 C 1.65625 -12.785156 2.363281 -15.300781 3.78125 -16.65625 C 4.476562 -17.3125 5.226562 -17.773438 6.03125 -18.046875 C 6.832031 -18.328125 7.757812 -18.46875 8.8125 -18.46875 C 9.875 -18.46875 10.804688 -18.328125 11.609375 -18.046875 C 12.410156 -17.773438 13.15625 -17.3125 13.84375 -16.65625 C 15.269531 -15.300781 15.984375 -12.785156 15.984375 -9.109375 C 15.984375 -4.898438 14.992188 -2.125 13.015625 -0.78125 C 11.910156 -0.03125 10.507812 0.34375 8.8125 0.34375 Z M 6.25 -3.03125 C 6.59375 -2.769531 6.957031 -2.59375 7.34375 -2.5 C 7.738281 -2.40625 8.332031 -2.359375 9.125 -2.359375 C 9.925781 -2.359375 10.582031 -2.503906 11.09375 -2.796875 C 12.238281 -3.441406 12.8125 -5.519531 12.8125 -9.03125 C 12.8125 -10.476562 12.738281 -11.640625 12.59375 -12.515625 C 12.457031 -13.398438 12.210938 -14.082031 11.859375 -14.5625 C 11.503906 -15.050781 11.097656 -15.375 10.640625 -15.53125 C 10.179688 -15.6875 9.570312 -15.765625 8.8125 -15.765625 C 8.050781 -15.765625 7.445312 -15.6875 7 -15.53125 C 6.550781 -15.375 6.148438 -15.050781 5.796875 -14.5625 C 5.441406 -14.082031 5.191406 -13.398438 5.046875 -12.515625 C 4.910156 -11.640625 4.84375 -10.546875 4.84375 -9.234375 C 4.84375 -7.929688 4.894531 -6.882812 5 -6.09375 C 5.101562 -5.300781 5.25 -4.65625 5.4375 -4.15625 C 5.632812 -3.664062 5.90625 -3.289062 6.25 -3.03125 Z M 6.25 -3.03125 "/></g></g></g><g fill="#00d7df" fill-opacity="1"><g transform="translate(298.338026, 306.301343)"><g><path d="M 8.8125 -18.46875 C 12.976562 -18.46875 15.0625 -16.519531 15.0625 -12.625 C 15.0625 -9.757812 13.800781 -7.972656 11.28125 -7.265625 L 11.28125 -7.140625 L 15.515625 0 L 11.953125 0 L 8.4375 -6.84375 L 5.578125 -6.953125 L 5.578125 0 L 2.515625 0 L 2.640625 -8.5 L 2.5625 -18.109375 C 4.5 -18.347656 6.582031 -18.46875 8.8125 -18.46875 Z M 5.546875 -9.546875 C 6.910156 -9.390625 8.109375 -9.3125 9.140625 -9.3125 C 10.171875 -9.3125 10.890625 -9.566406 11.296875 -10.078125 C 11.703125 -10.585938 11.90625 -11.503906 11.90625 -12.828125 C 11.90625 -14.148438 11.695312 -15.046875 11.28125 -15.515625 C 10.914062 -15.890625 10.164062 -16.078125 9.03125 -16.078125 C 7.90625 -16.078125 6.753906 -16 5.578125 -15.84375 Z M 5.546875 -9.546875 "/></g></g></g><g fill="#00d7df" fill-opacity="1"><g transform="translate(328.321267, 306.301343)"><g><path d="M 2.515625 0 L 2.515625 -18.125 L 12.328125 -18.125 L 12.328125 -15.484375 L 5.546875 -15.5625 L 5.421875 -10.484375 L 11.671875 -10.484375 L 11.671875 -7.90625 L 5.421875 -7.90625 L 5.546875 -2.59375 L 12.328125 -2.640625 L 12.328125 0 Z M 2.515625 0 "/></g></g></g><path stroke-linecap="butt" transform="matrix(0.874427, 0, 0, 0.874427, 94.684203, 241.432719)" fill="none" stroke-linejoin="miter" d="M 15.67474 16.994264 C 14.76343 16.994264 14.057611 17.168485 13.557283 17.51246 C 13.056956 17.856435 12.806792 18.446107 12.806792 19.277008 C 12.806792 20.107909 13.159702 20.795859 13.861053 21.336391 C 14.57134 21.867989 15.353101 22.341513 16.215273 22.743562 C 17.072977 23.145611 17.841337 23.489586 18.515885 23.779955 C 19.199368 24.070323 19.717565 24.307085 20.079409 24.490241 C 20.436785 24.664462 20.928178 24.92356 21.54912 25.258601 C 22.170063 25.593642 22.652521 25.901879 22.996496 26.192248 C 23.349406 26.482616 23.751455 26.857862 24.20711 27.317984 C 24.667233 27.77364 25.00674 28.233762 25.230101 28.707286 C 25.810838 29.900031 26.101207 31.168719 26.101207 32.522283 C 26.101207 35.211543 25.136289 37.391541 23.210922 39.053343 C 21.285555 40.710678 18.774984 41.537111 15.67474 41.537111 C 14.093348 41.537111 12.45835 41.322685 10.769745 40.8983 C 9.085607 40.464981 7.781182 40.031662 6.865404 39.589408 L 5.493971 38.959532 C 5.547577 38.745106 5.645856 38.454737 5.788806 38.088426 C 5.949626 37.597033 6.39188 36.154124 7.115567 33.768635 C 10.524048 35.126666 13.655562 35.805682 16.510108 35.805682 C 17.305272 35.805682 17.993222 35.626994 18.578426 35.269617 C 19.159164 34.91224 19.449532 34.081339 19.449532 32.776914 C 19.449532 32.164906 19.284245 31.704784 18.953672 31.387612 C 18.618631 31.065973 18.341664 30.815809 18.118304 30.637121 C 17.903878 30.453965 17.586706 30.252941 17.166788 30.038515 C 16.755805 29.815154 16.398428 29.631999 16.090191 29.489048 C 15.45138 29.185278 14.289905 28.640278 12.614702 27.858517 C 10.943966 27.063353 9.733352 26.366469 8.982861 25.758928 C 7.075363 24.262413 6.123847 22.243235 6.123847 19.692458 C 6.123847 17.141682 7.017289 15.100167 8.799705 13.567914 C 10.586589 12.026727 13.123964 11.2539 16.416297 11.2539 C 17.613509 11.2539 18.931336 11.36558 20.369777 11.588941 C 21.812686 11.812301 23.371742 12.156276 25.05588 12.625333 L 24.023954 17.950247 C 20.695884 17.311436 17.912812 16.994264 15.67474 16.994264 Z M 31.247432 41.001046 L 31.247432 11.803367 L 37.76509 11.803367 L 37.644475 23.382373 L 47.280246 23.382373 L 47.159631 11.803367 L 53.677289 11.803367 L 53.677289 41.001046 L 47.159631 41.001046 L 47.280246 28.952983 L 37.644475 28.952983 L 37.76509 41.001046 Z M 76.500261 40.880432 C 75.102025 41.318218 73.484895 41.537111 71.653339 41.537111 C 69.826251 41.537111 68.213588 41.318218 66.815352 40.880432 C 65.421582 40.433711 64.126092 39.669818 62.92888 38.584286 C 60.440644 36.377485 59.19876 32.289988 59.19876 26.335198 C 59.19876 19.634385 60.914168 15.202913 64.349452 13.040784 C 66.203344 11.848039 68.637973 11.2539 71.662274 11.2539 C 76.393048 11.2539 79.743455 12.750415 81.713494 15.747912 C 83.312755 18.182542 84.116853 21.711637 84.116853 26.335198 C 84.116853 32.289988 82.870502 36.377485 80.382266 38.584286 C 79.193988 39.669818 77.898498 40.433711 76.500261 40.880432 Z M 68.356539 17.664345 C 67.592646 18.102132 66.998507 19.008975 66.583057 20.380408 C 66.167606 21.747374 65.962115 23.753151 65.962115 26.397739 C 65.962115 29.03786 66.176541 31.052571 66.600926 32.441873 C 67.034245 33.826708 67.632851 34.738019 68.396744 35.166871 C 69.160636 35.595723 70.246168 35.805682 71.653339 35.805682 C 73.064977 35.805682 74.146042 35.582321 74.896533 35.140068 C 76.531532 34.197487 77.353498 31.289333 77.353498 26.415608 C 77.353498 21.488276 76.558335 18.566722 74.976943 17.655411 C 74.208583 17.213157 73.100715 16.994264 71.662274 16.994264 C 70.223832 16.994264 69.120432 17.217624 68.356539 17.664345 Z M 89.638324 11.843572 C 94.096598 11.450457 97.862456 11.2539 100.935896 11.2539 C 104.013803 11.2539 106.368022 12.120539 107.994086 13.849349 C 109.633552 15.582626 110.451051 18.137869 110.451051 21.519547 C 110.451051 25.615978 109.352118 28.483926 107.163185 30.118925 C 105.28249 31.503759 102.919337 32.196177 100.06479 32.196177 L 96.160449 32.066628 L 96.160449 41.001046 L 89.638324 41.001046 L 89.799143 27.380525 Z M 102.803189 17.114879 C 102.419009 16.726231 101.503231 16.529674 100.06479 16.529674 C 98.626348 16.529674 97.321923 16.601149 96.160449 16.739633 L 96.160449 26.415608 C 97.321923 26.612165 98.612947 26.710444 100.024585 26.710444 C 101.436223 26.710444 102.405607 26.469215 102.932738 25.991223 C 103.459869 25.504297 103.727901 24.04352 103.727901 21.608891 C 103.727901 19.169795 103.419664 17.668812 102.803189 17.114879 Z M 115.43199 11.843572 C 119.885797 11.450457 123.651655 11.2539 126.729562 11.2539 C 129.803002 11.2539 132.157221 12.120539 133.787752 13.849349 C 135.422751 15.582626 136.24025 18.137869 136.24025 21.519547 C 136.24025 25.615978 135.145784 28.483926 132.956851 30.118925 C 131.076156 31.503759 128.708535 32.196177 125.853989 32.196177 L 121.949648 32.066628 L 121.949648 41.001046 L 115.43199 41.001046 L 115.592809 27.380525 Z M 128.592388 17.114879 C 128.208208 16.726231 127.296897 16.529674 125.853989 16.529674 C 124.415547 16.529674 123.115589 16.601149 121.949648 16.739633 L 121.949648 26.415608 C 123.115589 26.612165 124.402146 26.710444 125.813784 26.710444 C 127.229889 26.710444 128.199274 26.469215 128.726404 25.991223 C 129.253535 25.504297 129.5171 24.04352 129.5171 21.608891 C 129.5171 19.169795 129.208863 17.668812 128.592388 17.114879 Z M 147.662904 24.802946 L 147.783519 41.001046 L 141.221188 41.001046 L 141.382008 27.541345 L 141.221188 11.803367 L 147.783519 11.803367 Z M 154.676423 11.803367 L 162.820145 11.803367 L 171.834973 32.522283 L 172.08067 32.522283 L 171.58481 11.803367 L 177.606608 11.803367 L 177.606608 41.001046 L 169.462885 41.001046 L 160.448057 20.268728 L 160.20236 20.268728 L 160.702688 41.001046 L 154.676423 41.001046 Z M 191.602374 17.776025 C 190.4409 18.830287 189.860163 21.675899 189.860163 26.312862 C 189.860163 30.954293 190.467703 33.880315 191.687251 35.095396 C 192.402005 35.765477 193.576881 36.100518 195.216346 36.100518 C 196.851345 36.100518 198.053024 36.015641 198.825851 35.845887 L 198.825851 29.578392 L 194.58647 29.288024 L 194.58647 24.592987 L 205.18269 24.592987 L 205.18269 39.629613 C 203.994412 40.12994 202.475561 40.572194 200.630604 40.960841 C 198.790114 41.345021 197.110443 41.537111 195.591592 41.537111 C 194.068274 41.537111 192.732578 41.420964 191.584505 41.184202 C 190.436432 40.951907 189.310696 40.500719 188.21623 39.821703 C 187.121763 39.142687 186.197051 38.25818 185.44656 37.177115 C 183.847299 34.742486 183.043201 31.115112 183.043201 26.294993 C 183.043201 20.255327 184.262749 16.185699 186.697378 14.086111 C 187.948197 13.000579 189.310696 12.263489 190.793809 11.86144 C 192.272455 11.459392 194.300568 11.2539 196.878148 11.2539 C 199.455728 11.2539 202.207529 11.615744 205.142485 12.339432 L 204.391994 17.615206 C 200.65294 17.199755 197.74032 16.994264 195.649666 16.994264 C 193.563479 16.994264 192.214382 17.253362 191.602374 17.776025 Z M 191.602374 17.776025 " stroke="#000000" stroke-width="6.2313" stroke-opacity="1" stroke-miterlimit="4"/><g fill="#ffffff" fill-opacity="1"><g transform="translate(98.291216, 277.284241)"><g><path d="M 10.09375 -21 C 9.300781 -21 8.6875 -20.847656 8.25 -20.546875 C 7.8125 -20.242188 7.59375 -19.726562 7.59375 -19 C 7.59375 -18.269531 7.898438 -17.671875 8.515625 -17.203125 C 9.128906 -16.734375 9.8125 -16.320312 10.5625 -15.96875 C 11.320312 -15.613281 12 -15.304688 12.59375 -15.046875 C 13.1875 -14.796875 13.640625 -14.59375 13.953125 -14.4375 C 14.265625 -14.28125 14.691406 -14.054688 15.234375 -13.765625 C 15.785156 -13.472656 16.210938 -13.195312 16.515625 -12.9375 C 16.816406 -12.6875 17.164062 -12.363281 17.5625 -11.96875 C 17.957031 -11.570312 18.253906 -11.164062 18.453125 -10.75 C 18.960938 -9.707031 19.21875 -8.59375 19.21875 -7.40625 C 19.21875 -5.0625 18.375 -3.160156 16.6875 -1.703125 C 15.007812 -0.253906 12.8125 0.46875 10.09375 0.46875 C 8.71875 0.46875 7.289062 0.28125 5.8125 -0.09375 C 4.332031 -0.46875 3.191406 -0.847656 2.390625 -1.234375 L 1.203125 -1.78125 C 1.242188 -1.976562 1.328125 -2.234375 1.453125 -2.546875 C 1.597656 -2.984375 1.984375 -4.242188 2.609375 -6.328125 C 5.585938 -5.140625 8.328125 -4.546875 10.828125 -4.546875 C 11.523438 -4.546875 12.128906 -4.703125 12.640625 -5.015625 C 13.148438 -5.328125 13.40625 -6.050781 13.40625 -7.1875 C 13.40625 -7.71875 13.257812 -8.125 12.96875 -8.40625 C 12.675781 -8.6875 12.429688 -8.90625 12.234375 -9.0625 C 12.046875 -9.21875 11.769531 -9.390625 11.40625 -9.578125 C 11.039062 -9.773438 10.726562 -9.9375 10.46875 -10.0625 C 9.90625 -10.332031 8.890625 -10.8125 7.421875 -11.5 C 5.960938 -12.1875 4.90625 -12.796875 4.25 -13.328125 C 2.582031 -14.640625 1.75 -16.410156 1.75 -18.640625 C 1.75 -20.867188 2.53125 -22.65625 4.09375 -24 C 5.65625 -25.34375 7.875 -26.015625 10.75 -26.015625 C 11.789062 -26.015625 12.941406 -25.914062 14.203125 -25.71875 C 15.460938 -25.519531 16.832031 -25.21875 18.3125 -24.8125 L 17.40625 -20.15625 C 14.5 -20.71875 12.0625 -21 10.09375 -21 Z M 10.09375 -21 "/></g></g></g><g fill="#ffffff" fill-opacity="1"><g transform="translate(118.991406, 277.284241)"><g><path d="M 3.015625 0 L 3.015625 -25.53125 L 8.71875 -25.53125 L 8.609375 -15.40625 L 17.03125 -15.40625 L 16.921875 -25.53125 L 22.625 -25.53125 L 22.625 0 L 16.921875 0 L 17.03125 -10.53125 L 8.609375 -10.53125 L 8.71875 0 Z M 3.015625 0 "/></g></g></g><g fill="#ffffff" fill-opacity="1"><g transform="translate(144.630596, 277.284241)"><g><path d="M 16.9375 -0.109375 C 15.71875 0.273438 14.304688 0.46875 12.703125 0.46875 C 11.109375 0.46875 9.695312 0.273438 8.46875 -0.109375 C 7.25 -0.492188 6.117188 -1.160156 5.078125 -2.109375 C 2.898438 -4.046875 1.8125 -7.617188 1.8125 -12.828125 C 1.8125 -18.679688 3.316406 -22.554688 6.328125 -24.453125 C 7.941406 -25.492188 10.070312 -26.015625 12.71875 -26.015625 C 16.851562 -26.015625 19.78125 -24.707031 21.5 -22.09375 C 22.90625 -19.957031 23.609375 -16.867188 23.609375 -12.828125 C 23.609375 -7.617188 22.519531 -4.046875 20.34375 -2.109375 C 19.300781 -1.160156 18.164062 -0.492188 16.9375 -0.109375 Z M 9.828125 -20.40625 C 9.160156 -20.019531 8.644531 -19.226562 8.28125 -18.03125 C 7.914062 -16.832031 7.734375 -15.078125 7.734375 -12.765625 C 7.734375 -10.453125 7.921875 -8.691406 8.296875 -7.484375 C 8.671875 -6.273438 9.191406 -5.484375 9.859375 -5.109375 C 10.523438 -4.734375 11.472656 -4.546875 12.703125 -4.546875 C 13.941406 -4.546875 14.890625 -4.738281 15.546875 -5.125 C 16.972656 -5.945312 17.6875 -8.488281 17.6875 -12.75 C 17.6875 -17.0625 17 -19.617188 15.625 -20.421875 C 14.945312 -20.804688 13.976562 -21 12.71875 -21 C 11.457031 -21 10.492188 -20.800781 9.828125 -20.40625 Z M 9.828125 -20.40625 "/></g></g></g><g fill="#ffffff" fill-opacity="1"><g transform="translate(170.051887, 277.284241)"><g><path d="M 3.015625 -25.5 C 6.910156 -25.84375 10.203125 -26.015625 12.890625 -26.015625 C 15.578125 -26.015625 17.632812 -25.253906 19.0625 -23.734375 C 20.5 -22.222656 21.21875 -19.988281 21.21875 -17.03125 C 21.21875 -13.445312 20.257812 -10.941406 18.34375 -9.515625 C 16.695312 -8.304688 14.628906 -7.703125 12.140625 -7.703125 L 8.71875 -7.8125 L 8.71875 0 L 3.015625 0 L 3.15625 -11.921875 Z M 14.53125 -20.890625 C 14.1875 -21.222656 13.382812 -21.390625 12.125 -21.390625 C 10.875 -21.390625 9.738281 -21.332031 8.71875 -21.21875 L 8.71875 -12.75 C 9.738281 -12.582031 10.863281 -12.5 12.09375 -12.5 C 13.332031 -12.5 14.179688 -12.707031 14.640625 -13.125 C 15.097656 -13.550781 15.328125 -14.828125 15.328125 -16.953125 C 15.328125 -19.085938 15.0625 -20.398438 14.53125 -20.890625 Z M 14.53125 -20.890625 "/></g></g></g><g fill="#ffffff" fill-opacity="1"><g transform="translate(192.604204, 277.284241)"><g><path d="M 3.015625 -25.5 C 6.910156 -25.84375 10.203125 -26.015625 12.890625 -26.015625 C 15.578125 -26.015625 17.632812 -25.253906 19.0625 -23.734375 C 20.5 -22.222656 21.21875 -19.988281 21.21875 -17.03125 C 21.21875 -13.445312 20.257812 -10.941406 18.34375 -9.515625 C 16.695312 -8.304688 14.628906 -7.703125 12.140625 -7.703125 L 8.71875 -7.8125 L 8.71875 0 L 3.015625 0 L 3.15625 -11.921875 Z M 14.53125 -20.890625 C 14.1875 -21.222656 13.382812 -21.390625 12.125 -21.390625 C 10.875 -21.390625 9.738281 -21.332031 8.71875 -21.21875 L 8.71875 -12.75 C 9.738281 -12.582031 10.863281 -12.5 12.09375 -12.5 C 13.332031 -12.5 14.179688 -12.707031 14.640625 -13.125 C 15.097656 -13.550781 15.328125 -14.828125 15.328125 -16.953125 C 15.328125 -19.085938 15.0625 -20.398438 14.53125 -20.890625 Z M 14.53125 -20.890625 "/></g></g></g><g fill="#ffffff" fill-opacity="1"><g transform="translate(215.156521, 277.284241)"><g><path d="M 8.640625 -14.171875 L 8.75 0 L 3.015625 0 L 3.15625 -11.765625 L 3.015625 -25.53125 L 8.75 -25.53125 Z M 8.640625 -14.171875 "/></g></g></g><g fill="#ffffff" fill-opacity="1"><g transform="translate(226.922944, 277.284241)"><g><path d="M 3.015625 -25.53125 L 10.140625 -25.53125 L 18.015625 -7.40625 L 18.234375 -7.40625 L 17.796875 -25.53125 L 23.0625 -25.53125 L 23.0625 0 L 15.953125 0 L 8.0625 -18.125 L 7.84375 -18.125 L 8.28125 0 L 3.015625 0 Z M 3.015625 -25.53125 "/></g></g></g><g fill="#ffffff" fill-opacity="1"><g transform="translate(252.925296, 277.284241)"><g><path d="M 9.296875 -20.3125 C 8.285156 -19.382812 7.78125 -16.890625 7.78125 -12.828125 C 7.78125 -8.773438 8.3125 -6.21875 9.375 -5.15625 C 10 -4.570312 11.023438 -4.28125 12.453125 -4.28125 C 13.890625 -4.28125 14.945312 -4.351562 15.625 -4.5 L 15.625 -9.984375 L 11.921875 -10.25 L 11.921875 -14.34375 L 21.171875 -14.34375 L 21.171875 -1.203125 C 20.128906 -0.765625 18.800781 -0.375 17.1875 -0.03125 C 15.582031 0.300781 14.113281 0.46875 12.78125 0.46875 C 11.457031 0.46875 10.289062 0.363281 9.28125 0.15625 C 8.28125 -0.0390625 7.300781 -0.4375 6.34375 -1.03125 C 5.382812 -1.625 4.578125 -2.394531 3.921875 -3.34375 C 2.515625 -5.46875 1.8125 -8.640625 1.8125 -12.859375 C 1.8125 -18.140625 2.878906 -21.703125 5.015625 -23.546875 C 6.097656 -24.484375 7.285156 -25.128906 8.578125 -25.484375 C 9.878906 -25.835938 11.65625 -26.015625 13.90625 -26.015625 C 16.164062 -26.015625 18.578125 -25.695312 21.140625 -25.0625 L 20.484375 -20.453125 C 17.210938 -20.816406 14.660156 -21 12.828125 -21 C 11.003906 -21 9.828125 -20.769531 9.296875 -20.3125 Z M 9.296875 -20.3125 "/></g></g></g></svg>