<svg xmlns="http://www.w3.org/2000/svg" xmlns:xlink="http://www.w3.org/1999/xlink" width="500" zoomAndPan="magnify" viewBox="0 0 375 374.999991" height="500" preserveAspectRatio="xMidYMid meet" version="1.0"><defs><g/><clipPath id="4bb174e7de"><path d="M 164.257812 120.78125 L 220.878906 120.78125 L 220.878906 169.730469 L 164.257812 169.730469 Z M 164.257812 120.78125 " clip-rule="nonzero"/></clipPath><clipPath id="8c46a60259"><path d="M 168 116.480469 L 172 116.480469 L 172 125 L 168 125 Z M 168 116.480469 " clip-rule="nonzero"/></clipPath><clipPath id="c4a195ffb4"><path d="M 154.160156 130 L 163 130 L 163 134 L 154.160156 134 Z M 154.160156 130 " clip-rule="nonzero"/></clipPath></defs><g fill="#00d7df" fill-opacity="1"><g transform="translate(18.654727, 249.756611)"><g><path d="M 9.625 0.375 C 8.71875 0.375 7.894531 0.28125 7.15625 0.09375 C 6.425781 -0.0820312 5.71875 -0.398438 5.03125 -0.859375 C 4.351562 -1.328125 3.789062 -1.9375 3.34375 -2.6875 C 2.320312 -4.332031 1.8125 -6.75 1.8125 -9.9375 C 1.8125 -13.945312 2.582031 -16.691406 4.125 -18.171875 C 4.882812 -18.878906 5.703125 -19.382812 6.578125 -19.6875 C 7.453125 -19.988281 8.460938 -20.140625 9.609375 -20.140625 C 10.765625 -20.140625 11.78125 -19.988281 12.65625 -19.6875 C 13.539062 -19.382812 14.359375 -18.878906 15.109375 -18.171875 C 16.660156 -16.691406 17.4375 -13.945312 17.4375 -9.9375 C 17.4375 -5.351562 16.359375 -2.320312 14.203125 -0.84375 C 12.992188 -0.03125 11.46875 0.375 9.625 0.375 Z M 6.8125 -3.3125 C 7.195312 -3.03125 7.597656 -2.835938 8.015625 -2.734375 C 8.441406 -2.628906 9.085938 -2.578125 9.953125 -2.578125 C 10.828125 -2.578125 11.546875 -2.738281 12.109375 -3.0625 C 13.359375 -3.757812 13.984375 -6.019531 13.984375 -9.84375 C 13.984375 -11.425781 13.90625 -12.695312 13.75 -13.65625 C 13.601562 -14.625 13.332031 -15.367188 12.9375 -15.890625 C 12.550781 -16.421875 12.109375 -16.769531 11.609375 -16.9375 C 11.109375 -17.113281 10.441406 -17.203125 9.609375 -17.203125 C 8.785156 -17.203125 8.128906 -17.113281 7.640625 -16.9375 C 7.148438 -16.769531 6.710938 -16.421875 6.328125 -15.890625 C 5.941406 -15.367188 5.671875 -14.625 5.515625 -13.65625 C 5.367188 -12.695312 5.296875 -11.503906 5.296875 -10.078125 C 5.296875 -8.660156 5.347656 -7.515625 5.453125 -6.640625 C 5.566406 -5.773438 5.726562 -5.070312 5.9375 -4.53125 C 6.144531 -4 6.4375 -3.59375 6.8125 -3.3125 Z M 6.8125 -3.3125 "/></g></g></g><g fill="#00d7df" fill-opacity="1"><g transform="translate(51.741985, 249.756611)"><g><path d="M 2.75 0 L 2.75 -19.78125 L 7.078125 -19.78125 L 14.171875 -3.8125 L 14.3125 -3.8125 L 13.921875 -19.78125 L 17.0625 -19.78125 L 17.0625 0 L 12.734375 0 L 5.65625 -15.9375 L 5.515625 -15.9375 L 5.890625 0 Z M 2.75 0 "/></g></g></g><g fill="#00d7df" fill-opacity="1"><g transform="translate(85.366912, 249.756611)"><g><path d="M 2.75 0 L 2.75 -19.78125 L 6.0625 -19.78125 L 5.90625 -2.890625 L 13.125 -2.9375 L 13.125 0 Z M 2.75 0 "/></g></g></g><g fill="#00d7df" fill-opacity="1"><g transform="translate(112.42656, 249.756611)"><g><path d="M 2.75 0.03125 L 2.859375 -9.078125 L 2.75 -19.78125 L 6.078125 -19.78125 L 5.96875 -11 L 6.078125 0.03125 Z M 2.75 0.03125 "/></g></g></g><g fill="#00d7df" fill-opacity="1"><g transform="translate(135.128217, 249.756611)"><g><path d="M 2.75 0 L 2.75 -19.78125 L 7.078125 -19.78125 L 14.171875 -3.8125 L 14.3125 -3.8125 L 13.921875 -19.78125 L 17.0625 -19.78125 L 17.0625 0 L 12.734375 0 L 5.65625 -15.9375 L 5.515625 -15.9375 L 5.890625 0 Z M 2.75 0 "/></g></g></g><g fill="#00d7df" fill-opacity="1"><g transform="translate(168.753139, 249.756611)"><g><path d="M 2.75 0 L 2.75 -19.78125 L 13.4375 -19.78125 L 13.4375 -16.890625 L 6.0625 -16.984375 L 5.90625 -11.4375 L 12.734375 -11.4375 L 12.734375 -8.625 L 5.90625 -8.625 L 6.0625 -2.828125 L 13.4375 -2.890625 L 13.4375 0 Z M 2.75 0 "/></g></g></g><g fill="#003f8a" fill-opacity="1"><g transform="translate(197.750572, 249.756611)"><g/></g></g><g fill="#006df0" fill-opacity="1"><g transform="translate(218.251465, 249.756611)"><g><path d="M 8.015625 -2.609375 C 9.671875 -2.609375 10.5 -3.507812 10.5 -5.3125 C 10.5 -6.09375 10.1875 -6.742188 9.5625 -7.265625 C 8.9375 -7.796875 8.070312 -8.3125 6.96875 -8.8125 C 5.863281 -9.3125 5.234375 -9.601562 5.078125 -9.6875 C 4.921875 -9.769531 4.632812 -9.925781 4.21875 -10.15625 C 3.800781 -10.382812 3.507812 -10.570312 3.34375 -10.71875 C 3.1875 -10.875 2.960938 -11.097656 2.671875 -11.390625 C 2.378906 -11.679688 2.175781 -11.976562 2.0625 -12.28125 C 1.738281 -13.09375 1.578125 -13.882812 1.578125 -14.65625 C 1.578125 -16.257812 2.128906 -17.570312 3.234375 -18.59375 C 4.335938 -19.625 5.910156 -20.140625 7.953125 -20.140625 C 9.441406 -20.140625 10.910156 -19.9375 12.359375 -19.53125 L 13.125 -19.328125 L 12.59375 -16.546875 C 10.53125 -16.941406 8.957031 -17.140625 7.875 -17.140625 C 6.789062 -17.140625 6.039062 -16.960938 5.625 -16.609375 C 5.21875 -16.265625 5.015625 -15.710938 5.015625 -14.953125 C 5.015625 -14.191406 5.269531 -13.597656 5.78125 -13.171875 C 6.300781 -12.742188 6.90625 -12.363281 7.59375 -12.03125 C 8.28125 -11.707031 8.835938 -11.453125 9.265625 -11.265625 C 9.691406 -11.078125 10.015625 -10.929688 10.234375 -10.828125 C 10.453125 -10.722656 10.75 -10.5625 11.125 -10.34375 C 11.5 -10.125 11.789062 -9.925781 12 -9.75 C 12.207031 -9.570312 12.453125 -9.335938 12.734375 -9.046875 C 13.015625 -8.753906 13.222656 -8.457031 13.359375 -8.15625 C 13.710938 -7.414062 13.890625 -6.617188 13.890625 -5.765625 C 13.890625 -3.941406 13.296875 -2.460938 12.109375 -1.328125 C 10.921875 -0.191406 9.363281 0.375 7.4375 0.375 C 6.457031 0.375 5.429688 0.234375 4.359375 -0.046875 C 3.296875 -0.335938 2.484375 -0.625 1.921875 -0.90625 L 1.046875 -1.359375 C 1.210938 -1.867188 1.351562 -2.28125 1.46875 -2.59375 C 1.582031 -2.90625 1.675781 -3.164062 1.75 -3.375 C 1.832031 -3.59375 1.921875 -3.828125 2.015625 -4.078125 C 4.179688 -3.097656 6.179688 -2.609375 8.015625 -2.609375 Z M 8.015625 -2.609375 "/></g></g></g><g fill="#006df0" fill-opacity="1"><g transform="translate(247.433506, 249.756611)"><g><path d="M -0.109375 -19.78125 L 14.0625 -19.78125 L 14.0625 -16.859375 L 8.546875 -16.953125 L 8.609375 0 L 5.3125 0 L 5.40625 -16.953125 L -0.109375 -16.859375 Z M -0.109375 -19.78125 "/></g></g></g><g fill="#006df0" fill-opacity="1"><g transform="translate(275.370409, 249.756611)"><g><path d="M 9.625 0.375 C 8.71875 0.375 7.894531 0.28125 7.15625 0.09375 C 6.425781 -0.0820312 5.71875 -0.398438 5.03125 -0.859375 C 4.351562 -1.328125 3.789062 -1.9375 3.34375 -2.6875 C 2.320312 -4.332031 1.8125 -6.75 1.8125 -9.9375 C 1.8125 -13.945312 2.582031 -16.691406 4.125 -18.171875 C 4.882812 -18.878906 5.703125 -19.382812 6.578125 -19.6875 C 7.453125 -19.988281 8.460938 -20.140625 9.609375 -20.140625 C 10.765625 -20.140625 11.78125 -19.988281 12.65625 -19.6875 C 13.539062 -19.382812 14.359375 -18.878906 15.109375 -18.171875 C 16.660156 -16.691406 17.4375 -13.945312 17.4375 -9.9375 C 17.4375 -5.351562 16.359375 -2.320312 14.203125 -0.84375 C 12.992188 -0.03125 11.46875 0.375 9.625 0.375 Z M 6.8125 -3.3125 C 7.195312 -3.03125 7.597656 -2.835938 8.015625 -2.734375 C 8.441406 -2.628906 9.085938 -2.578125 9.953125 -2.578125 C 10.828125 -2.578125 11.546875 -2.738281 12.109375 -3.0625 C 13.359375 -3.757812 13.984375 -6.019531 13.984375 -9.84375 C 13.984375 -11.425781 13.90625 -12.695312 13.75 -13.65625 C 13.601562 -14.625 13.332031 -15.367188 12.9375 -15.890625 C 12.550781 -16.421875 12.109375 -16.769531 11.609375 -16.9375 C 11.109375 -17.113281 10.441406 -17.203125 9.609375 -17.203125 C 8.785156 -17.203125 8.128906 -17.113281 7.640625 -16.9375 C 7.148438 -16.769531 6.710938 -16.421875 6.328125 -15.890625 C 5.941406 -15.367188 5.671875 -14.625 5.515625 -13.65625 C 5.367188 -12.695312 5.296875 -11.503906 5.296875 -10.078125 C 5.296875 -8.660156 5.347656 -7.515625 5.453125 -6.640625 C 5.566406 -5.773438 5.726562 -5.070312 5.9375 -4.53125 C 6.144531 -4 6.4375 -3.59375 6.8125 -3.3125 Z M 6.8125 -3.3125 "/></g></g></g><g fill="#006df0" fill-opacity="1"><g transform="translate(308.457671, 249.756611)"><g><path d="M 9.625 -20.140625 C 14.164062 -20.140625 16.4375 -18.019531 16.4375 -13.78125 C 16.4375 -10.644531 15.0625 -8.691406 12.3125 -7.921875 L 12.3125 -7.78125 L 16.921875 0 L 13.046875 0 L 9.203125 -7.46875 L 6.078125 -7.578125 L 6.078125 0 L 2.75 0 L 2.890625 -9.28125 L 2.796875 -19.75 C 4.910156 -20.007812 7.1875 -20.140625 9.625 -20.140625 Z M 6.0625 -10.40625 C 7.550781 -10.238281 8.851562 -10.15625 9.96875 -10.15625 C 11.09375 -10.15625 11.875 -10.429688 12.3125 -10.984375 C 12.757812 -11.546875 12.984375 -12.546875 12.984375 -13.984375 C 12.984375 -15.429688 12.757812 -16.410156 12.3125 -16.921875 C 11.914062 -17.335938 11.097656 -17.546875 9.859375 -17.546875 C 8.628906 -17.546875 7.367188 -17.460938 6.078125 -17.296875 Z M 6.0625 -10.40625 "/></g></g></g><g fill="#006df0" fill-opacity="1"><g transform="translate(341.177045, 249.756611)"><g><path d="M 2.75 0 L 2.75 -19.78125 L 13.4375 -19.78125 L 13.4375 -16.890625 L 6.0625 -16.984375 L 5.90625 -11.4375 L 12.734375 -11.4375 L 12.734375 -8.625 L 5.90625 -8.625 L 6.0625 -2.828125 L 13.4375 -2.890625 L 13.4375 0 Z M 2.75 0 "/></g></g></g><path stroke-linecap="butt" transform="matrix(0.954224, 0, 0, 0.954224, 86.214256, 169.34413)" fill="none" stroke-linejoin="miter" d="M 15.675172 16.996404 C 14.76229 16.996404 14.058184 17.168337 13.554666 17.512203 C 13.055241 17.856069 12.805529 18.445553 12.805529 19.276563 C 12.805529 20.107572 13.157582 20.795304 13.861689 21.335665 C 14.569889 21.867838 15.355868 22.338607 16.215533 22.743878 C 17.071104 23.145054 17.840709 23.48892 18.51616 23.779569 C 19.199798 24.070218 19.719691 24.307649 20.075838 24.487769 C 20.436078 24.663796 20.927315 24.921695 21.549549 25.261467 C 22.171783 25.593052 22.654832 25.904169 22.998698 26.194818 C 23.350752 26.485467 23.751929 26.857988 24.206323 27.32057 C 24.664811 27.77087 25.004583 28.233452 25.229733 28.708314 C 25.811031 29.899564 26.101679 31.168593 26.101679 32.523589 C 26.101679 35.213112 25.139673 37.390929 23.211568 39.052948 C 21.283462 40.710873 18.77406 41.537789 15.675172 41.537789 C 14.095027 41.537789 12.45757 41.32492 10.766895 40.899181 C 9.084408 40.465255 7.78263 40.031329 6.861561 39.589215 L 5.494284 38.962888 C 5.547502 38.745925 5.645749 38.455276 5.789026 38.090942 C 5.948678 37.595612 6.394885 36.154649 7.115367 33.768056 C 10.525371 35.127145 13.652913 35.80669 16.506182 35.80669 C 17.304442 35.80669 17.996268 35.62657 18.577565 35.270423 C 19.158862 34.910182 19.449511 34.079173 19.449511 32.773301 C 19.449511 32.167442 19.281671 31.70486 18.950086 31.385556 C 18.622595 31.066252 18.344227 30.81654 18.119077 30.63642 C 17.902114 30.452206 17.586903 30.251617 17.165258 30.038748 C 16.755894 29.813598 16.395653 29.629384 16.092724 29.4902 C 15.450022 29.183177 14.291521 28.638722 12.613128 27.856837 C 10.942922 27.066764 9.735298 26.366751 8.982067 25.756798 C 7.07443 24.262619 6.124705 22.24036 6.124705 19.694114 C 6.124705 17.143775 7.017119 15.101047 8.801947 13.565932 C 10.586775 12.026722 13.124833 11.253024 16.416122 11.253024 C 17.611465 11.253024 18.933712 11.367646 20.37058 11.588702 C 21.811542 11.813853 23.375313 12.157719 25.0578 12.624394 L 24.022109 17.946129 C 20.698071 17.311614 17.914395 16.996404 15.675172 16.996404 Z M 31.247387 41.001522 L 31.247387 11.801572 L 37.76856 11.801572 L 37.64575 23.382486 L 47.27809 23.382486 L 47.159375 11.801572 L 53.680547 11.801572 L 53.680547 41.001522 L 47.159375 41.001522 L 47.27809 28.949839 L 37.64575 28.949839 L 37.76856 41.001522 Z M 76.498509 40.878713 C 75.098483 41.316732 73.485588 41.537789 71.651636 41.537789 C 69.825872 41.537789 68.212977 41.316732 66.812951 40.878713 C 65.421113 40.432506 64.127522 39.666994 62.928085 38.586273 C 60.443244 36.375706 59.198777 32.290251 59.198777 26.334002 C 59.198777 19.636803 60.914013 15.203389 64.348579 13.037852 C 66.202998 11.850696 68.638716 11.253024 71.663917 11.253024 C 76.396168 11.253024 79.744767 12.751297 81.713809 15.747843 C 83.314423 18.179466 84.116777 21.71228 84.116777 26.334002 C 84.116777 32.290251 82.87231 36.375706 80.383375 38.586273 C 79.192125 39.666994 77.898534 40.432506 76.498509 40.878713 Z M 68.356254 17.663667 C 67.590743 18.101687 67.001259 19.010476 66.579614 20.381846 C 66.170249 21.749122 65.961474 23.750913 65.961474 26.395406 C 65.961474 29.039899 66.174343 31.053971 66.600082 32.441716 C 67.034008 33.825367 67.63168 34.734156 68.397191 35.168082 C 69.158608 35.59382 70.247517 35.80669 71.651636 35.80669 C 73.063943 35.80669 74.148758 35.585633 74.897895 35.139426 C 76.535351 34.197888 77.349986 31.291402 77.349986 26.415875 C 77.349986 21.487129 76.559913 18.568362 74.979767 17.65548 C 74.206069 17.213367 73.100786 16.996404 71.663917 16.996404 C 70.222955 16.996404 69.121765 17.21746 68.356254 17.663667 Z M 89.6391 11.842508 C 94.092983 11.449519 97.859134 11.253024 100.937553 11.253024 C 104.011878 11.253024 106.365722 12.120876 107.994992 13.852487 C 109.632449 15.580004 110.451177 18.13853 110.451177 21.519878 C 110.451177 25.613521 109.354081 28.483164 107.163983 30.116527 C 105.285001 31.504272 102.918876 32.196097 100.065607 32.196097 L 96.160272 32.065101 L 96.160272 41.001522 L 89.6391 41.001522 L 89.802846 27.377881 Z M 102.804254 17.115119 C 102.419451 16.726223 101.506569 16.529729 100.065607 16.529729 C 98.624645 16.529729 97.322867 16.599321 96.160272 16.742598 L 96.160272 26.415875 C 97.322867 26.612369 98.612364 26.710617 100.024671 26.710617 C 101.436977 26.710617 102.40717 26.469092 102.93525 25.990136 C 103.46333 25.502992 103.725323 24.041562 103.725323 21.609939 C 103.725323 19.170128 103.4183 17.671855 102.804254 17.115119 Z M 115.429046 11.842508 C 119.887023 11.449519 123.653174 11.253024 126.727499 11.253024 C 129.805918 11.253024 132.155668 12.120876 133.784938 13.852487 C 135.422395 15.580004 136.241123 18.13853 136.241123 21.519878 C 136.241123 25.613521 135.144027 28.483164 132.953929 30.116527 C 131.074947 31.504272 128.708822 32.196097 125.855553 32.196097 L 121.950218 32.065101 L 121.950218 41.001522 L 115.429046 41.001522 L 115.592792 27.377881 Z M 128.5942 17.115119 C 128.209397 16.726223 127.296515 16.529729 125.855553 16.529729 C 124.414591 16.529729 123.112813 16.599321 121.950218 16.742598 L 121.950218 26.415875 C 123.112813 26.612369 124.40231 26.710617 125.814617 26.710617 C 127.226923 26.710617 128.197116 26.469092 128.725196 25.990136 C 129.253276 25.502992 129.515269 24.041562 129.515269 21.609939 C 129.515269 19.170128 129.208246 17.671855 128.5942 17.115119 Z M 147.662385 24.80298 L 147.781101 41.001522 L 141.218992 41.001522 L 141.382738 27.541626 L 141.218992 11.801572 L 147.781101 11.801572 Z M 154.678888 11.801572 L 162.821142 11.801572 L 171.835343 32.523589 L 172.080961 32.523589 L 171.581537 11.801572 L 177.607378 11.801572 L 177.607378 41.001522 L 169.465124 41.001522 L 160.44683 20.271318 L 160.205305 20.271318 L 160.700636 41.001522 L 154.678888 41.001522 Z M 191.603541 17.774196 C 190.440947 18.830356 189.859649 21.675437 189.859649 26.313534 C 189.859649 30.95163 190.469602 33.878584 191.685414 35.09849 C 192.401801 35.765753 193.576677 36.101432 195.214133 36.101432 C 196.85159 36.101432 198.055121 36.015466 198.824726 35.847626 L 198.824726 29.58026 L 194.583713 29.285518 L 194.583713 24.59011 L 205.182152 24.59011 L 205.182152 39.630152 C 203.994996 40.129576 202.476255 40.575783 200.630022 40.960585 C 198.791977 41.345388 197.10949 41.537789 195.590749 41.537789 C 194.067914 41.537789 192.733386 41.419073 191.583073 41.181642 C 190.432759 40.952398 189.311101 40.498004 188.218099 39.822553 C 187.121003 39.138915 186.199933 38.258782 185.446703 37.17806 C 183.846089 34.742343 183.043735 31.115376 183.043735 26.293065 C 183.043735 20.259037 184.259547 16.185863 186.695264 14.085824 C 187.947918 13.001009 189.311101 12.26006 190.793 11.862976 C 192.274898 11.457706 194.301251 11.253024 196.876152 11.253024 C 199.455147 11.253024 202.210168 11.617358 205.141216 12.337839 L 204.392079 17.614544 C 200.654584 17.201086 197.739911 16.996404 195.652153 16.996404 C 193.560302 16.996404 192.213494 17.254303 191.603541 17.774196 Z M 191.603541 17.774196 " stroke="#000000" stroke-width="6.2313" stroke-opacity="1" stroke-miterlimit="4"/><g fill="#ffffff" fill-opacity="1"><g transform="translate(90.150428, 208.467298)"><g><path d="M 11.015625 -22.90625 C 10.148438 -22.90625 9.476562 -22.738281 9 -22.40625 C 8.519531 -22.082031 8.28125 -21.523438 8.28125 -20.734375 C 8.28125 -19.941406 8.617188 -19.285156 9.296875 -18.765625 C 9.972656 -18.253906 10.71875 -17.804688 11.53125 -17.421875 C 12.351562 -17.035156 13.085938 -16.703125 13.734375 -16.421875 C 14.378906 -16.148438 14.875 -15.925781 15.21875 -15.75 C 15.5625 -15.582031 16.03125 -15.335938 16.625 -15.015625 C 17.21875 -14.703125 17.679688 -14.40625 18.015625 -14.125 C 18.347656 -13.851562 18.734375 -13.5 19.171875 -13.0625 C 19.609375 -12.625 19.929688 -12.179688 20.140625 -11.734375 C 20.691406 -10.597656 20.96875 -9.382812 20.96875 -8.09375 C 20.96875 -5.519531 20.046875 -3.441406 18.203125 -1.859375 C 16.367188 -0.273438 13.972656 0.515625 11.015625 0.515625 C 9.515625 0.515625 7.957031 0.3125 6.34375 -0.09375 C 4.726562 -0.507812 3.484375 -0.925781 2.609375 -1.34375 L 1.3125 -1.9375 C 1.363281 -2.15625 1.453125 -2.4375 1.578125 -2.78125 C 1.742188 -3.25 2.171875 -4.617188 2.859375 -6.890625 C 6.109375 -5.597656 9.09375 -4.953125 11.8125 -4.953125 C 12.582031 -4.953125 13.242188 -5.125 13.796875 -5.46875 C 14.347656 -5.8125 14.625 -6.601562 14.625 -7.84375 C 14.625 -8.425781 14.460938 -8.867188 14.140625 -9.171875 C 13.828125 -9.472656 13.566406 -9.707031 13.359375 -9.875 C 13.148438 -10.050781 12.847656 -10.242188 12.453125 -10.453125 C 12.054688 -10.671875 11.710938 -10.847656 11.421875 -10.984375 C 10.804688 -11.273438 9.695312 -11.796875 8.09375 -12.546875 C 6.5 -13.296875 5.347656 -13.960938 4.640625 -14.546875 C 2.816406 -15.972656 1.90625 -17.898438 1.90625 -20.328125 C 1.90625 -22.765625 2.753906 -24.710938 4.453125 -26.171875 C 6.160156 -27.640625 8.585938 -28.375 11.734375 -28.375 C 12.867188 -28.375 14.125 -28.269531 15.5 -28.0625 C 16.875 -27.851562 18.367188 -27.523438 19.984375 -27.078125 L 18.984375 -22 C 15.816406 -22.601562 13.160156 -22.90625 11.015625 -22.90625 Z M 11.015625 -22.90625 "/></g></g></g><g fill="#ffffff" fill-opacity="1"><g transform="translate(112.739622, 208.467298)"><g><path d="M 3.296875 0 L 3.296875 -27.875 L 9.515625 -27.875 L 9.390625 -16.8125 L 18.59375 -16.8125 L 18.46875 -27.875 L 24.703125 -27.875 L 24.703125 0 L 18.46875 0 L 18.59375 -11.5 L 9.390625 -11.5 L 9.515625 0 Z M 3.296875 0 "/></g></g></g><g fill="#ffffff" fill-opacity="1"><g transform="translate(140.718527, 208.467298)"><g><path d="M 18.484375 -0.109375 C 17.148438 0.304688 15.613281 0.515625 13.875 0.515625 C 12.132812 0.515625 10.59375 0.304688 9.25 -0.109375 C 7.914062 -0.535156 6.679688 -1.265625 5.546875 -2.296875 C 3.171875 -4.410156 1.984375 -8.3125 1.984375 -14 C 1.984375 -20.394531 3.617188 -24.617188 6.890625 -26.671875 C 8.660156 -27.804688 10.988281 -28.375 13.875 -28.375 C 18.394531 -28.375 21.59375 -26.945312 23.46875 -24.09375 C 25 -21.769531 25.765625 -18.40625 25.765625 -14 C 25.765625 -8.3125 24.578125 -4.410156 22.203125 -2.296875 C 21.066406 -1.265625 19.828125 -0.535156 18.484375 -0.109375 Z M 10.71875 -22.265625 C 9.988281 -21.847656 9.425781 -20.984375 9.03125 -19.671875 C 8.632812 -18.367188 8.4375 -16.453125 8.4375 -13.921875 C 8.4375 -11.398438 8.640625 -9.476562 9.046875 -8.15625 C 9.460938 -6.84375 10.035156 -5.976562 10.765625 -5.5625 C 11.492188 -5.15625 12.53125 -4.953125 13.875 -4.953125 C 15.21875 -4.953125 16.25 -5.164062 16.96875 -5.59375 C 18.53125 -6.488281 19.3125 -9.257812 19.3125 -13.90625 C 19.3125 -18.613281 18.554688 -21.40625 17.046875 -22.28125 C 16.304688 -22.695312 15.25 -22.90625 13.875 -22.90625 C 12.5 -22.90625 11.445312 -22.691406 10.71875 -22.265625 Z M 10.71875 -22.265625 "/></g></g></g><g fill="#ffffff" fill-opacity="1"><g transform="translate(168.459649, 208.467298)"><g><path d="M 3.296875 -27.828125 C 7.546875 -28.191406 11.132812 -28.375 14.0625 -28.375 C 17 -28.375 19.25 -27.546875 20.8125 -25.890625 C 22.375 -24.242188 23.15625 -21.8125 23.15625 -18.59375 C 23.15625 -14.675781 22.109375 -11.941406 20.015625 -10.390625 C 18.222656 -9.066406 15.960938 -8.40625 13.234375 -8.40625 L 9.515625 -8.515625 L 9.515625 0 L 3.296875 0 L 3.453125 -13 Z M 15.859375 -22.796875 C 15.484375 -23.160156 14.609375 -23.34375 13.234375 -23.34375 C 11.859375 -23.34375 10.617188 -23.28125 9.515625 -23.15625 L 9.515625 -13.90625 C 10.617188 -13.726562 11.84375 -13.640625 13.1875 -13.640625 C 14.539062 -13.640625 15.46875 -13.867188 15.96875 -14.328125 C 16.476562 -14.796875 16.734375 -16.191406 16.734375 -18.515625 C 16.734375 -20.835938 16.441406 -22.265625 15.859375 -22.796875 Z M 15.859375 -22.796875 "/></g></g></g><g fill="#ffffff" fill-opacity="1"><g transform="translate(193.069987, 208.467298)"><g><path d="M 3.296875 -27.828125 C 7.546875 -28.191406 11.132812 -28.375 14.0625 -28.375 C 17 -28.375 19.25 -27.546875 20.8125 -25.890625 C 22.375 -24.242188 23.15625 -21.8125 23.15625 -18.59375 C 23.15625 -14.675781 22.109375 -11.941406 20.015625 -10.390625 C 18.222656 -9.066406 15.960938 -8.40625 13.234375 -8.40625 L 9.515625 -8.515625 L 9.515625 0 L 3.296875 0 L 3.453125 -13 Z M 15.859375 -22.796875 C 15.484375 -23.160156 14.609375 -23.34375 13.234375 -23.34375 C 11.859375 -23.34375 10.617188 -23.28125 9.515625 -23.15625 L 9.515625 -13.90625 C 10.617188 -13.726562 11.84375 -13.640625 13.1875 -13.640625 C 14.539062 -13.640625 15.46875 -13.867188 15.96875 -14.328125 C 16.476562 -14.796875 16.734375 -16.191406 16.734375 -18.515625 C 16.734375 -20.835938 16.441406 -22.265625 15.859375 -22.796875 Z M 15.859375 -22.796875 "/></g></g></g><g fill="#ffffff" fill-opacity="1"><g transform="translate(217.680324, 208.467298)"><g><path d="M 9.4375 -15.453125 L 9.546875 0 L 3.296875 0 L 3.453125 -12.84375 L 3.296875 -27.875 L 9.546875 -27.875 Z M 9.4375 -15.453125 "/></g></g></g><g fill="#ffffff" fill-opacity="1"><g transform="translate(230.520497, 208.467298)"><g><path d="M 3.296875 -27.875 L 11.0625 -27.875 L 19.65625 -8.09375 L 19.90625 -8.09375 L 19.421875 -27.875 L 25.171875 -27.875 L 25.171875 0 L 17.40625 0 L 8.796875 -19.78125 L 8.5625 -19.78125 L 9.03125 0 L 3.296875 0 Z M 3.296875 -27.875 "/></g></g></g><g fill="#ffffff" fill-opacity="1"><g transform="translate(258.895704, 208.467298)"><g><path d="M 10.140625 -22.15625 C 9.035156 -21.15625 8.484375 -18.441406 8.484375 -14.015625 C 8.484375 -9.585938 9.066406 -6.789062 10.234375 -5.625 C 10.921875 -4.988281 12.039062 -4.671875 13.59375 -4.671875 C 15.15625 -4.671875 16.304688 -4.753906 17.046875 -4.921875 L 17.046875 -10.90625 L 13 -11.171875 L 13 -15.65625 L 23.109375 -15.65625 L 23.109375 -1.3125 C 21.972656 -0.832031 20.523438 -0.40625 18.765625 -0.03125 C 17.015625 0.332031 15.410156 0.515625 13.953125 0.515625 C 12.492188 0.515625 11.21875 0.398438 10.125 0.171875 C 9.03125 -0.046875 7.957031 -0.476562 6.90625 -1.125 C 5.863281 -1.769531 4.988281 -2.609375 4.28125 -3.640625 C 2.75 -5.972656 1.984375 -9.4375 1.984375 -14.03125 C 1.984375 -19.789062 3.144531 -23.675781 5.46875 -25.6875 C 6.65625 -26.71875 7.957031 -27.421875 9.375 -27.796875 C 10.789062 -28.179688 12.726562 -28.375 15.1875 -28.375 C 17.644531 -28.375 20.273438 -28.035156 23.078125 -27.359375 L 22.359375 -22.3125 C 18.785156 -22.707031 16 -22.90625 14 -22.90625 C 12.007812 -22.90625 10.722656 -22.65625 10.140625 -22.15625 Z M 10.140625 -22.15625 "/></g></g></g><path fill="#ffffff" d="M 198.316406 168.21875 C 195.554688 168.21875 192.78125 167.566406 190.300781 166.335938 L 184.265625 163.335938 L 177.742188 160.003906 C 175.535156 158.875 174.652344 156.15625 175.777344 153.941406 C 175.996094 153.515625 176.269531 153.140625 176.59375 152.8125 C 177.429688 151.964844 178.589844 151.480469 179.78125 151.480469 C 180.484375 151.480469 181.1875 151.648438 181.816406 151.96875 L 185.140625 153.671875 L 167.109375 135.722656 C 165.351562 133.976562 165.339844 131.121094 167.074219 129.355469 C 167.089844 129.34375 167.140625 129.289062 167.140625 129.289062 C 167.96875 128.484375 169.066406 128.042969 170.234375 128.042969 C 171.449219 128.042969 172.640625 128.535156 173.503906 129.394531 L 180.757812 136.613281 C 180.171875 135.019531 180.507812 133.152344 181.777344 131.867188 L 181.839844 131.808594 C 182.664062 131.003906 183.765625 130.558594 184.933594 130.558594 C 186.144531 130.558594 187.335938 131.054688 188.199219 131.910156 L 188.5 132.207031 C 187.894531 130.613281 188.191406 128.753906 189.410156 127.476562 L 189.46875 127.414062 C 190.320312 126.554688 191.453125 126.082031 192.660156 126.082031 C 193.851562 126.082031 194.976562 126.546875 195.820312 127.390625 L 196.925781 128.488281 C 196.324219 126.894531 196.621094 125.035156 197.84375 123.757812 C 197.863281 123.734375 197.886719 123.710938 197.910156 123.683594 C 198.761719 122.832031 199.886719 122.363281 201.089844 122.363281 C 202.28125 122.363281 203.402344 122.828125 204.25 123.667969 L 213.6875 133.0625 L 214.246094 133.617188 C 214.257812 133.628906 214.929688 134.308594 215.234375 134.714844 C 219.019531 139.238281 220.265625 145.101562 218.730469 151.230469 C 218.164062 153.507812 217.195312 155.628906 215.851562 157.535156 C 215.253906 158.394531 214.5625 159.222656 213.800781 159.992188 L 210.800781 163.027344 C 210.664062 163.164062 210.527344 163.296875 210.394531 163.425781 C 207.148438 166.519531 202.859375 168.21875 198.316406 168.21875 " fill-opacity="1" fill-rule="nonzero"/><g clip-path="url(#4bb174e7de)"><path fill="#000000" d="M 201.089844 120.851562 C 199.488281 120.851562 197.988281 121.476562 196.855469 122.609375 C 196.808594 122.65625 196.773438 122.691406 196.753906 122.714844 C 196.074219 123.425781 195.59375 124.277344 195.335938 125.203125 C 194.515625 124.789062 193.605469 124.574219 192.660156 124.574219 C 191.046875 124.574219 189.535156 125.203125 188.402344 126.351562 L 188.320312 126.433594 C 187.542969 127.253906 187.023438 128.257812 186.804688 129.347656 C 186.203125 129.152344 185.570312 129.050781 184.933594 129.050781 C 183.375 129.050781 181.910156 129.640625 180.800781 130.714844 C 180.789062 130.722656 180.78125 130.734375 180.769531 130.746094 L 180.742188 130.769531 L 180.707031 130.804688 C 180.0625 131.460938 179.597656 132.226562 179.3125 133.042969 L 174.5625 128.320312 C 173.421875 127.183594 171.84375 126.53125 170.234375 126.53125 C 168.671875 126.53125 167.203125 127.125 166.09375 128.207031 L 166.054688 128.242188 L 166.042969 128.257812 C 166.027344 128.269531 166.015625 128.285156 166.003906 128.296875 C 163.683594 130.652344 163.703125 134.464844 166.046875 136.796875 L 179.304688 149.988281 C 177.886719 150.105469 176.527344 150.730469 175.523438 151.75 C 175.089844 152.1875 174.726562 152.6875 174.441406 153.242188 L 174.433594 153.257812 C 172.9375 156.210938 174.113281 159.84375 177.058594 161.347656 L 183.582031 164.683594 L 183.613281 164.699219 L 189.632812 167.6875 C 192.320312 169.023438 195.324219 169.730469 198.316406 169.730469 C 203.25 169.730469 207.902344 167.882812 211.425781 164.527344 L 211.433594 164.519531 C 211.582031 164.378906 211.726562 164.234375 211.863281 164.097656 L 211.871094 164.089844 L 214.867188 161.054688 C 215.6875 160.226562 216.433594 159.332031 217.085938 158.402344 C 218.53125 156.34375 219.578125 154.054688 220.191406 151.597656 C 221.84375 144.996094 220.496094 138.664062 216.402344 133.765625 C 216.007812 133.253906 215.320312 132.558594 215.3125 132.550781 L 215.304688 132.542969 L 214.746094 131.988281 L 212.59375 129.84375 L 205.3125 122.597656 C 204.179688 121.472656 202.679688 120.851562 201.089844 120.851562 Z M 201.089844 123.875 C 201.847656 123.875 202.609375 124.164062 203.191406 124.742188 L 210.472656 131.988281 L 212.628906 134.136719 L 213.1875 134.691406 C 213.375 134.878906 213.90625 135.445312 214.050781 135.652344 C 217.773438 140.070312 218.605469 145.535156 217.273438 150.863281 C 216.761719 152.910156 215.878906 154.878906 214.621094 156.664062 C 214.066406 157.460938 213.433594 158.214844 212.730469 158.929688 L 209.734375 161.960938 C 209.609375 162.089844 209.480469 162.210938 209.351562 162.335938 C 206.316406 165.230469 202.34375 166.710938 198.316406 166.710938 C 195.816406 166.710938 193.296875 166.140625 190.96875 164.980469 L 184.949219 161.992188 L 178.425781 158.65625 C 176.957031 157.90625 176.371094 156.101562 177.117188 154.628906 C 177.265625 154.34375 177.449219 154.09375 177.660156 153.875 C 178.222656 153.304688 178.992188 152.992188 179.78125 152.992188 C 180.238281 152.992188 180.699219 153.097656 181.132812 153.316406 L 186.621094 156.121094 L 186.925781 156.277344 C 187.097656 156.363281 187.265625 156.402344 187.429688 156.402344 C 187.714844 156.402344 187.976562 156.277344 188.167969 156.085938 C 188.546875 155.699219 188.65625 155.039062 188.167969 154.554688 L 168.167969 134.648438 C 167 133.488281 166.992188 131.589844 168.152344 130.414062 C 168.164062 130.398438 168.179688 130.386719 168.191406 130.375 C 168.757812 129.820312 169.496094 129.550781 170.234375 129.550781 C 171.035156 129.550781 171.839844 129.863281 172.445312 130.464844 L 189.054688 146.996094 C 189.308594 147.25 189.640625 147.378906 189.976562 147.378906 C 190.292969 147.375 190.609375 147.257812 190.855469 147.023438 C 190.867188 147.011719 190.878906 147.003906 190.890625 146.992188 C 191.394531 146.480469 191.355469 145.617188 190.839844 145.105469 L 182.863281 137.167969 C 181.695312 136.003906 181.6875 134.105469 182.847656 132.929688 C 182.859375 132.917969 182.875 132.90625 182.886719 132.890625 C 183.457031 132.339844 184.191406 132.070312 184.933594 132.070312 C 185.730469 132.070312 186.535156 132.382812 187.140625 132.984375 L 196.195312 141.996094 C 196.449219 142.25 196.78125 142.375 197.113281 142.375 C 197.429688 142.371094 197.75 142.253906 197.996094 142.019531 C 198.007812 142.011719 198.019531 142 198.027344 141.988281 C 198.535156 141.476562 198.492188 140.613281 197.976562 140.101562 L 190.628906 132.785156 C 189.460938 131.625 189.363281 129.710938 190.5 128.519531 C 190.511719 128.507812 190.527344 128.492188 190.539062 128.480469 C 191.121094 127.890625 191.890625 127.59375 192.660156 127.59375 C 193.417969 127.59375 194.179688 127.882812 194.761719 128.460938 L 203.515625 137.175781 C 203.769531 137.425781 204.101562 137.554688 204.429688 137.554688 C 204.765625 137.554688 205.097656 137.425781 205.351562 137.167969 C 205.859375 136.65625 205.855469 135.832031 205.34375 135.328125 L 199.058594 129.066406 C 197.890625 127.90625 197.792969 125.992188 198.929688 124.800781 C 198.941406 124.789062 198.957031 124.773438 198.96875 124.761719 C 199.550781 124.171875 200.320312 123.875 201.089844 123.875 " fill-opacity="1" fill-rule="nonzero"/></g><path fill="#000000" d="M 160.101562 120.828125 C 159.691406 120.832031 159.304688 120.992188 159.015625 121.285156 C 159.011719 121.285156 159.011719 121.289062 159.007812 121.289062 C 158.410156 121.898438 158.414062 122.882812 159.019531 123.484375 L 163.117188 127.542969 C 163.410156 127.835938 163.800781 127.992188 164.210938 127.992188 C 164.625 127.992188 165.007812 127.828125 165.300781 127.539062 C 165.300781 127.535156 165.304688 127.535156 165.304688 127.53125 C 165.597656 127.238281 165.753906 126.847656 165.753906 126.433594 C 165.753906 126.019531 165.589844 125.628906 165.296875 125.335938 L 161.199219 121.28125 C 160.902344 120.988281 160.515625 120.828125 160.101562 120.828125 " fill-opacity="1" fill-rule="nonzero"/><g clip-path="url(#8c46a60259)"><path fill="#000000" d="M 171.601562 118.03125 C 171.597656 117.171875 170.898438 116.480469 170.046875 116.484375 C 169.191406 116.484375 168.5 117.183594 168.503906 118.042969 L 168.542969 123.332031 C 168.546875 124.191406 169.246094 124.882812 170.097656 124.878906 C 170.523438 124.878906 170.90625 124.703125 171.183594 124.425781 C 171.46875 124.140625 171.640625 123.75 171.640625 123.320312 L 171.601562 118.03125 " fill-opacity="1" fill-rule="nonzero"/></g><g clip-path="url(#c4a195ffb4)"><path fill="#000000" d="M 155.742188 130.847656 C 154.886719 130.84375 154.191406 131.539062 154.1875 132.394531 C 154.183594 133.25 154.875 133.953125 155.726562 133.953125 L 161.003906 133.992188 C 161.429688 133.996094 161.820312 133.820312 162.101562 133.539062 C 162.382812 133.257812 162.554688 132.875 162.554688 132.449219 C 162.558594 131.589844 161.867188 130.890625 161.015625 130.886719 L 155.742188 130.847656 " fill-opacity="1" fill-rule="nonzero"/></g><path fill="#000000" d="M 180.6875 119.160156 C 180.273438 119.160156 179.890625 119.324219 179.59375 119.621094 L 175.550781 123.730469 C 175.257812 124.027344 175.101562 124.414062 175.101562 124.832031 C 175.105469 125.246094 175.265625 125.636719 175.558594 125.925781 C 176.164062 126.527344 177.144531 126.527344 177.746094 125.921875 C 177.746094 125.921875 177.746094 125.917969 177.75 125.917969 L 181.792969 121.804688 C 182.394531 121.199219 182.386719 120.210938 181.78125 119.609375 C 181.488281 119.316406 181.101562 119.15625 180.6875 119.160156 " fill-opacity="1" fill-rule="nonzero"/><path fill="#000000" d="M 161.597656 137.832031 C 161.59375 137.835938 161.59375 137.835938 161.589844 137.835938 L 157.546875 141.949219 C 157.257812 142.242188 157.097656 142.632812 157.101562 143.046875 C 157.101562 143.464844 157.265625 143.851562 157.558594 144.144531 C 157.851562 144.4375 158.242188 144.597656 158.652344 144.59375 C 159.066406 144.59375 159.453125 144.433594 159.742188 144.140625 C 159.742188 144.136719 159.746094 144.136719 159.746094 144.136719 L 163.789062 140.023438 C 164.082031 139.730469 164.242188 139.339844 164.238281 138.925781 C 164.238281 138.507812 164.074219 138.121094 163.78125 137.828125 C 163.488281 137.535156 163.097656 137.375 162.683594 137.378906 C 162.273438 137.378906 161.886719 137.539062 161.597656 137.832031 " fill-opacity="1" fill-rule="nonzero"/></svg>