<svg xmlns="http://www.w3.org/2000/svg" xmlns:xlink="http://www.w3.org/1999/xlink" width="500" zoomAndPan="magnify" viewBox="0 0 375 374.999991" height="500" preserveAspectRatio="xMidYMid meet" version="1.0"><defs><g/><clipPath id="ba06bd0f81"><path d="M 127 153 L 186 153 L 186 200 L 127 200 Z M 127 153 " clip-rule="nonzero"/></clipPath><clipPath id="ba509ec015"><path d="M 182.648438 153.429688 L 172.972656 153.429688 C 172.652344 153.429688 172.34375 153.492188 172.046875 153.613281 C 171.75 153.738281 171.488281 153.914062 171.261719 154.140625 C 171.035156 154.367188 170.859375 154.628906 170.738281 154.925781 C 170.613281 155.21875 170.554688 155.527344 170.554688 155.851562 C 170.554688 156.171875 170.613281 156.480469 170.738281 156.777344 C 170.859375 157.070312 171.035156 157.332031 171.261719 157.558594 C 171.488281 157.785156 171.75 157.960938 172.046875 158.085938 C 172.34375 158.207031 172.652344 158.269531 172.972656 158.269531 L 175.390625 158.269531 L 175.390625 175.199219 C 175.390625 175.835938 175.359375 176.464844 175.296875 177.097656 C 175.234375 177.726562 175.140625 178.355469 175.019531 178.976562 C 174.894531 179.597656 174.742188 180.210938 174.558594 180.816406 C 174.375 181.425781 174.160156 182.019531 173.917969 182.605469 C 173.675781 183.191406 173.40625 183.765625 173.105469 184.324219 C 172.808594 184.882812 172.480469 185.425781 172.128906 185.953125 C 171.777344 186.476562 171.398438 186.988281 171 187.476562 C 170.597656 187.964844 170.171875 188.4375 169.722656 188.882812 C 169.273438 189.332031 168.804688 189.757812 168.316406 190.160156 C 167.824219 190.5625 167.316406 190.9375 166.789062 191.289062 C 166.261719 191.640625 165.71875 191.96875 165.160156 192.265625 C 164.601562 192.566406 164.03125 192.835938 163.445312 193.078125 C 162.859375 193.320312 162.261719 193.535156 161.65625 193.71875 C 161.050781 193.902344 160.4375 194.054688 159.816406 194.179688 C 159.191406 194.304688 158.566406 194.394531 157.9375 194.457031 C 157.304688 194.519531 156.671875 194.550781 156.039062 194.550781 C 155.40625 194.550781 154.773438 194.519531 154.144531 194.457031 C 153.511719 194.394531 152.886719 194.304688 152.265625 194.179688 C 151.644531 194.054688 151.027344 193.902344 150.421875 193.71875 C 149.816406 193.535156 149.21875 193.320312 148.632812 193.078125 C 148.046875 192.835938 147.476562 192.566406 146.917969 192.265625 C 146.359375 191.96875 145.816406 191.640625 145.289062 191.289062 C 144.761719 190.9375 144.253906 190.5625 143.761719 190.160156 C 143.273438 189.757812 142.804688 189.332031 142.355469 188.882812 C 141.910156 188.4375 141.484375 187.964844 141.082031 187.476562 C 140.679688 186.988281 140.300781 186.476562 139.949219 185.953125 C 139.597656 185.425781 139.273438 184.882812 138.972656 184.324219 C 138.675781 183.765625 138.402344 183.191406 138.160156 182.605469 C 137.917969 182.019531 137.707031 181.425781 137.523438 180.816406 C 137.339844 180.210938 137.183594 179.597656 137.058594 178.976562 C 136.9375 178.355469 136.84375 177.726562 136.78125 177.097656 C 136.71875 176.464844 136.6875 175.835938 136.6875 175.199219 L 136.6875 158.269531 L 139.109375 158.269531 C 139.429688 158.269531 139.738281 158.207031 140.03125 158.085938 C 140.328125 157.960938 140.589844 157.785156 140.816406 157.558594 C 141.042969 157.332031 141.21875 157.070312 141.34375 156.777344 C 141.464844 156.480469 141.527344 156.171875 141.527344 155.851562 C 141.527344 155.527344 141.464844 155.21875 141.34375 154.925781 C 141.21875 154.628906 141.042969 154.367188 140.816406 154.140625 C 140.589844 153.914062 140.328125 153.738281 140.03125 153.613281 C 139.738281 153.492188 139.429688 153.429688 139.109375 153.429688 L 129.433594 153.429688 C 129.109375 153.429688 128.804688 153.492188 128.507812 153.613281 C 128.210938 153.738281 127.949219 153.914062 127.722656 154.140625 C 127.496094 154.367188 127.320312 154.628906 127.199219 154.925781 C 127.074219 155.21875 127.011719 155.527344 127.011719 155.851562 C 127.011719 156.171875 127.074219 156.480469 127.199219 156.777344 C 127.320312 157.070312 127.496094 157.332031 127.722656 157.558594 C 127.949219 157.785156 128.210938 157.960938 128.507812 158.085938 C 128.804688 158.207031 129.109375 158.269531 129.433594 158.269531 L 131.851562 158.269531 L 131.851562 175.199219 C 131.851562 175.992188 131.890625 176.785156 131.96875 177.570312 C 132.046875 178.359375 132.160156 179.144531 132.316406 179.917969 C 132.46875 180.695312 132.664062 181.464844 132.890625 182.222656 C 133.121094 182.980469 133.390625 183.726562 133.691406 184.457031 C 133.996094 185.1875 134.332031 185.90625 134.707031 186.601562 C 135.082031 187.300781 135.488281 187.980469 135.925781 188.640625 C 136.367188 189.296875 136.839844 189.933594 137.339844 190.546875 C 137.84375 191.160156 138.375 191.746094 138.9375 192.304688 C 139.496094 192.863281 140.082031 193.394531 140.695312 193.898438 C 141.308594 194.402344 141.941406 194.871094 142.601562 195.3125 C 143.261719 195.753906 143.9375 196.160156 144.636719 196.535156 C 145.335938 196.90625 146.050781 197.246094 146.78125 197.546875 C 147.515625 197.851562 148.261719 198.117188 149.019531 198.347656 C 149.777344 198.578125 150.542969 198.769531 151.320312 198.925781 C 152.097656 199.078125 152.878906 199.195312 153.667969 199.273438 C 154.457031 199.351562 155.246094 199.390625 156.039062 199.390625 C 156.832031 199.390625 157.621094 199.351562 158.410156 199.273438 C 159.199219 199.195312 159.980469 199.078125 160.757812 198.925781 C 161.535156 198.769531 162.304688 198.578125 163.0625 198.347656 C 163.820312 198.117188 164.5625 197.851562 165.296875 197.546875 C 166.027344 197.246094 166.742188 196.90625 167.441406 196.535156 C 168.140625 196.160156 168.820312 195.753906 169.476562 195.3125 C 170.136719 194.871094 170.773438 194.402344 171.382812 193.898438 C 171.996094 193.394531 172.582031 192.863281 173.144531 192.304688 C 173.703125 191.746094 174.234375 191.160156 174.738281 190.546875 C 175.242188 189.933594 175.710938 189.296875 176.152344 188.640625 C 176.59375 187.980469 177 187.300781 177.371094 186.601562 C 177.746094 185.90625 178.082031 185.1875 178.386719 184.457031 C 178.691406 183.726562 178.957031 182.980469 179.1875 182.222656 C 179.417969 181.464844 179.609375 180.695312 179.761719 179.917969 C 179.917969 179.144531 180.035156 178.359375 180.113281 177.570312 C 180.1875 176.785156 180.226562 175.992188 180.226562 175.199219 L 180.226562 158.269531 L 182.648438 158.269531 C 182.96875 158.269531 183.277344 158.207031 183.574219 158.085938 C 183.867188 157.960938 184.128906 157.785156 184.359375 157.558594 C 184.585938 157.332031 184.757812 157.070312 184.882812 156.777344 C 185.003906 156.480469 185.066406 156.171875 185.066406 155.851562 C 185.066406 155.527344 185.003906 155.21875 184.882812 154.925781 C 184.757812 154.628906 184.585938 154.367188 184.359375 154.140625 C 184.128906 153.914062 183.867188 153.738281 183.574219 153.613281 C 183.277344 153.492188 182.96875 153.429688 182.648438 153.429688 Z M 182.648438 153.429688 " clip-rule="nonzero"/></clipPath><linearGradient x1="51.442514" gradientTransform="matrix(0.302358, 0, 0, 0.302358, 110.081133, 78.446108)" y1="395.442485" x2="223.442512" gradientUnits="userSpaceOnUse" y2="223.442483" id="22c3dec50d"><stop stop-opacity="1" stop-color="rgb(0%, 43.119812%, 64.422607%)" offset="0"/><stop stop-opacity="1" stop-color="rgb(0%, 43.281555%, 64.512634%)" offset="0.0078125"/><stop stop-opacity="1" stop-color="rgb(0%, 43.608093%, 64.69574%)" offset="0.015625"/><stop stop-opacity="1" stop-color="rgb(0%, 43.933105%, 64.877319%)" offset="0.0234375"/><stop stop-opacity="1" stop-color="rgb(0%, 44.258118%, 65.060425%)" offset="0.03125"/><stop stop-opacity="1" stop-color="rgb(0%, 44.584656%, 65.24353%)" offset="0.0390625"/><stop stop-opacity="1" stop-color="rgb(0%, 44.909668%, 65.42511%)" offset="0.046875"/><stop stop-opacity="1" stop-color="rgb(0%, 45.23468%, 65.608215%)" offset="0.0546875"/><stop stop-opacity="1" stop-color="rgb(0%, 45.561218%, 65.789795%)" offset="0.0625"/><stop stop-opacity="1" stop-color="rgb(0%, 45.88623%, 65.9729%)" offset="0.0703125"/><stop stop-opacity="1" stop-color="rgb(0%, 46.211243%, 66.15448%)" offset="0.078125"/><stop stop-opacity="1" stop-color="rgb(0%, 46.537781%, 66.337585%)" offset="0.0859375"/><stop stop-opacity="1" stop-color="rgb(0%, 46.862793%, 66.519165%)" offset="0.09375"/><stop stop-opacity="1" stop-color="rgb(0%, 47.187805%, 66.702271%)" offset="0.101563"/><stop stop-opacity="1" stop-color="rgb(0%, 47.514343%, 66.88385%)" offset="0.109375"/><stop stop-opacity="1" stop-color="rgb(0%, 47.839355%, 67.066956%)" offset="0.117188"/><stop stop-opacity="1" stop-color="rgb(0%, 48.164368%, 67.250061%)" offset="0.125"/><stop stop-opacity="1" stop-color="rgb(0%, 48.490906%, 67.431641%)" offset="0.132813"/><stop stop-opacity="1" stop-color="rgb(0%, 48.815918%, 67.614746%)" offset="0.140625"/><stop stop-opacity="1" stop-color="rgb(0%, 49.14093%, 67.796326%)" offset="0.148438"/><stop stop-opacity="1" stop-color="rgb(0%, 49.467468%, 67.979431%)" offset="0.15625"/><stop stop-opacity="1" stop-color="rgb(0%, 49.79248%, 68.161011%)" offset="0.164063"/><stop stop-opacity="1" stop-color="rgb(0%, 50.117493%, 68.344116%)" offset="0.171875"/><stop stop-opacity="1" stop-color="rgb(0%, 50.444031%, 68.525696%)" offset="0.179688"/><stop stop-opacity="1" stop-color="rgb(0%, 50.769043%, 68.708801%)" offset="0.1875"/><stop stop-opacity="1" stop-color="rgb(0%, 51.094055%, 68.890381%)" offset="0.195313"/><stop stop-opacity="1" stop-color="rgb(0%, 51.420593%, 69.073486%)" offset="0.203125"/><stop stop-opacity="1" stop-color="rgb(0%, 51.745605%, 69.256592%)" offset="0.210938"/><stop stop-opacity="1" stop-color="rgb(0%, 52.070618%, 69.438171%)" offset="0.21875"/><stop stop-opacity="1" stop-color="rgb(0%, 52.397156%, 69.621277%)" offset="0.226563"/><stop stop-opacity="1" stop-color="rgb(0%, 52.722168%, 69.802856%)" offset="0.234375"/><stop stop-opacity="1" stop-color="rgb(0%, 53.04718%, 69.985962%)" offset="0.242188"/><stop stop-opacity="1" stop-color="rgb(0%, 53.373718%, 70.167542%)" offset="0.25"/><stop stop-opacity="1" stop-color="rgb(0%, 53.69873%, 70.350647%)" offset="0.257813"/><stop stop-opacity="1" stop-color="rgb(0%, 54.023743%, 70.532227%)" offset="0.265625"/><stop stop-opacity="1" stop-color="rgb(0%, 54.350281%, 70.715332%)" offset="0.273438"/><stop stop-opacity="1" stop-color="rgb(0%, 54.675293%, 70.898438%)" offset="0.28125"/><stop stop-opacity="1" stop-color="rgb(0%, 55.000305%, 71.080017%)" offset="0.289063"/><stop stop-opacity="1" stop-color="rgb(0%, 55.325317%, 71.263123%)" offset="0.296875"/><stop stop-opacity="1" stop-color="rgb(0%, 55.651855%, 71.444702%)" offset="0.304688"/><stop stop-opacity="1" stop-color="rgb(0%, 55.976868%, 71.627808%)" offset="0.3125"/><stop stop-opacity="1" stop-color="rgb(0%, 56.30188%, 71.809387%)" offset="0.320313"/><stop stop-opacity="1" stop-color="rgb(0%, 56.628418%, 71.992493%)" offset="0.328125"/><stop stop-opacity="1" stop-color="rgb(0%, 56.95343%, 72.174072%)" offset="0.335938"/><stop stop-opacity="1" stop-color="rgb(0%, 57.278442%, 72.357178%)" offset="0.34375"/><stop stop-opacity="1" stop-color="rgb(0%, 57.60498%, 72.538757%)" offset="0.351563"/><stop stop-opacity="1" stop-color="rgb(0%, 57.929993%, 72.721863%)" offset="0.359375"/><stop stop-opacity="1" stop-color="rgb(0%, 58.255005%, 72.904968%)" offset="0.367188"/><stop stop-opacity="1" stop-color="rgb(0%, 58.581543%, 73.086548%)" offset="0.375"/><stop stop-opacity="1" stop-color="rgb(0%, 58.906555%, 73.269653%)" offset="0.382813"/><stop stop-opacity="1" stop-color="rgb(0%, 59.231567%, 73.451233%)" offset="0.390625"/><stop stop-opacity="1" stop-color="rgb(0%, 59.558105%, 73.634338%)" offset="0.398438"/><stop stop-opacity="1" stop-color="rgb(0%, 59.883118%, 73.815918%)" offset="0.40625"/><stop stop-opacity="1" stop-color="rgb(0%, 60.20813%, 73.999023%)" offset="0.414063"/><stop stop-opacity="1" stop-color="rgb(0%, 60.534668%, 74.180603%)" offset="0.421875"/><stop stop-opacity="1" stop-color="rgb(0%, 60.85968%, 74.363708%)" offset="0.429688"/><stop stop-opacity="1" stop-color="rgb(0%, 61.184692%, 74.545288%)" offset="0.4375"/><stop stop-opacity="1" stop-color="rgb(0%, 61.51123%, 74.728394%)" offset="0.44186"/><stop stop-opacity="1" stop-color="rgb(0%, 61.6745%, 74.819946%)" offset="0.445312"/><stop stop-opacity="1" stop-color="rgb(0%, 61.836243%, 74.911499%)" offset="0.453125"/><stop stop-opacity="1" stop-color="rgb(0%, 62.161255%, 75.093079%)" offset="0.460938"/><stop stop-opacity="1" stop-color="rgb(0%, 62.487793%, 75.276184%)" offset="0.46875"/><stop stop-opacity="1" stop-color="rgb(0%, 62.812805%, 75.457764%)" offset="0.476563"/><stop stop-opacity="1" stop-color="rgb(0%, 63.137817%, 75.640869%)" offset="0.484375"/><stop stop-opacity="1" stop-color="rgb(0%, 63.464355%, 75.822449%)" offset="0.492188"/><stop stop-opacity="1" stop-color="rgb(0%, 63.789368%, 76.005554%)" offset="0.5"/><stop stop-opacity="1" stop-color="rgb(0%, 64.11438%, 76.187134%)" offset="0.507813"/><stop stop-opacity="1" stop-color="rgb(0%, 64.440918%, 76.370239%)" offset="0.515625"/><stop stop-opacity="1" stop-color="rgb(0%, 64.76593%, 76.551819%)" offset="0.523438"/><stop stop-opacity="1" stop-color="rgb(0%, 65.090942%, 76.734924%)" offset="0.53125"/><stop stop-opacity="1" stop-color="rgb(0%, 65.41748%, 76.91803%)" offset="0.539063"/><stop stop-opacity="1" stop-color="rgb(0%, 65.742493%, 77.099609%)" offset="0.546875"/><stop stop-opacity="1" stop-color="rgb(0%, 66.067505%, 77.282715%)" offset="0.554688"/><stop stop-opacity="1" stop-color="rgb(0%, 66.392517%, 77.464294%)" offset="0.55814"/><stop stop-opacity="1" stop-color="rgb(0%, 66.555786%, 77.555847%)" offset="0.5625"/><stop stop-opacity="1" stop-color="rgb(0%, 66.719055%, 77.6474%)" offset="0.570312"/><stop stop-opacity="1" stop-color="rgb(0%, 67.044067%, 77.828979%)" offset="0.578125"/><stop stop-opacity="1" stop-color="rgb(0%, 67.36908%, 78.012085%)" offset="0.585938"/><stop stop-opacity="1" stop-color="rgb(0%, 67.695618%, 78.193665%)" offset="0.59375"/><stop stop-opacity="1" stop-color="rgb(0%, 68.02063%, 78.37677%)" offset="0.601563"/><stop stop-opacity="1" stop-color="rgb(0%, 68.345642%, 78.55835%)" offset="0.609375"/><stop stop-opacity="1" stop-color="rgb(0%, 68.67218%, 78.741455%)" offset="0.617188"/><stop stop-opacity="1" stop-color="rgb(0%, 68.997192%, 78.924561%)" offset="0.625"/><stop stop-opacity="1" stop-color="rgb(0%, 69.322205%, 79.10614%)" offset="0.632813"/><stop stop-opacity="1" stop-color="rgb(0%, 69.648743%, 79.289246%)" offset="0.640625"/><stop stop-opacity="1" stop-color="rgb(0%, 69.973755%, 79.470825%)" offset="0.648438"/><stop stop-opacity="1" stop-color="rgb(0%, 70.298767%, 79.653931%)" offset="0.65625"/><stop stop-opacity="1" stop-color="rgb(0%, 70.625305%, 79.83551%)" offset="0.664063"/><stop stop-opacity="1" stop-color="rgb(0%, 70.950317%, 80.018616%)" offset="0.671875"/><stop stop-opacity="1" stop-color="rgb(0%, 71.27533%, 80.200195%)" offset="0.679688"/><stop stop-opacity="1" stop-color="rgb(0%, 71.601868%, 80.383301%)" offset="0.6875"/><stop stop-opacity="1" stop-color="rgb(0%, 71.92688%, 80.566406%)" offset="0.695312"/><stop stop-opacity="1" stop-color="rgb(0%, 72.251892%, 80.747986%)" offset="0.703125"/><stop stop-opacity="1" stop-color="rgb(0%, 72.57843%, 80.931091%)" offset="0.710938"/><stop stop-opacity="1" stop-color="rgb(0%, 72.903442%, 81.112671%)" offset="0.71875"/><stop stop-opacity="1" stop-color="rgb(0%, 73.228455%, 81.295776%)" offset="0.726563"/><stop stop-opacity="1" stop-color="rgb(0%, 73.554993%, 81.477356%)" offset="0.734375"/><stop stop-opacity="1" stop-color="rgb(0%, 73.880005%, 81.660461%)" offset="0.742187"/><stop stop-opacity="1" stop-color="rgb(0%, 74.205017%, 81.842041%)" offset="0.75"/><stop stop-opacity="1" stop-color="rgb(0%, 74.531555%, 82.025146%)" offset="0.757813"/><stop stop-opacity="1" stop-color="rgb(0%, 74.856567%, 82.206726%)" offset="0.765625"/><stop stop-opacity="1" stop-color="rgb(0%, 75.18158%, 82.389832%)" offset="0.773438"/><stop stop-opacity="1" stop-color="rgb(0%, 75.508118%, 82.572937%)" offset="0.78125"/><stop stop-opacity="1" stop-color="rgb(0%, 75.83313%, 82.754517%)" offset="0.789062"/><stop stop-opacity="1" stop-color="rgb(0%, 76.158142%, 82.937622%)" offset="0.796875"/><stop stop-opacity="1" stop-color="rgb(0%, 76.48468%, 83.119202%)" offset="0.804688"/><stop stop-opacity="1" stop-color="rgb(0%, 76.809692%, 83.302307%)" offset="0.8125"/><stop stop-opacity="1" stop-color="rgb(0%, 77.134705%, 83.483887%)" offset="0.820312"/><stop stop-opacity="1" stop-color="rgb(0%, 77.461243%, 83.666992%)" offset="0.828125"/><stop stop-opacity="1" stop-color="rgb(0%, 77.786255%, 83.848572%)" offset="0.835938"/><stop stop-opacity="1" stop-color="rgb(0%, 78.111267%, 84.031677%)" offset="0.84375"/><stop stop-opacity="1" stop-color="rgb(0%, 78.436279%, 84.213257%)" offset="0.851562"/><stop stop-opacity="1" stop-color="rgb(0%, 78.762817%, 84.396362%)" offset="0.859375"/><stop stop-opacity="1" stop-color="rgb(0%, 79.08783%, 84.579468%)" offset="0.867187"/><stop stop-opacity="1" stop-color="rgb(0%, 79.412842%, 84.761047%)" offset="0.875"/><stop stop-opacity="1" stop-color="rgb(0%, 79.73938%, 84.944153%)" offset="0.882813"/><stop stop-opacity="1" stop-color="rgb(0%, 80.064392%, 85.125732%)" offset="0.890625"/><stop stop-opacity="1" stop-color="rgb(0%, 80.389404%, 85.308838%)" offset="0.898438"/><stop stop-opacity="1" stop-color="rgb(0%, 80.715942%, 85.490417%)" offset="0.90625"/><stop stop-opacity="1" stop-color="rgb(0%, 81.040955%, 85.673523%)" offset="0.914062"/><stop stop-opacity="1" stop-color="rgb(0%, 81.365967%, 85.855103%)" offset="0.921875"/><stop stop-opacity="1" stop-color="rgb(0%, 81.692505%, 86.038208%)" offset="0.929688"/><stop stop-opacity="1" stop-color="rgb(0%, 82.017517%, 86.219788%)" offset="0.9375"/><stop stop-opacity="1" stop-color="rgb(0%, 82.342529%, 86.402893%)" offset="0.945312"/><stop stop-opacity="1" stop-color="rgb(0%, 82.669067%, 86.585999%)" offset="0.953125"/><stop stop-opacity="1" stop-color="rgb(0%, 82.99408%, 86.767578%)" offset="0.960937"/><stop stop-opacity="1" stop-color="rgb(0%, 83.319092%, 86.950684%)" offset="0.96875"/><stop stop-opacity="1" stop-color="rgb(0%, 83.64563%, 87.132263%)" offset="0.976562"/><stop stop-opacity="1" stop-color="rgb(0%, 83.970642%, 87.315369%)" offset="0.984375"/><stop stop-opacity="1" stop-color="rgb(0%, 84.034729%, 87.481689%)" offset="1"/></linearGradient><clipPath id="d4068b0323"><path d="M 112.5 80.910156 L 262.5 80.910156 L 262.5 230.910156 L 112.5 230.910156 Z M 112.5 80.910156 " clip-rule="nonzero"/></clipPath><clipPath id="8a5382d76c"><path d="M 257.628906 121.875 C 257.617188 121.566406 257.542969 121.269531 257.414062 120.984375 C 257.285156 120.703125 257.109375 120.453125 256.886719 120.238281 C 256.660156 120.019531 256.402344 119.855469 256.113281 119.738281 C 255.824219 119.625 255.523438 119.566406 255.214844 119.566406 L 235.863281 119.566406 L 235.863281 107.472656 C 235.863281 106.601562 235.820312 105.730469 235.734375 104.863281 C 235.648438 103.996094 235.519531 103.136719 235.351562 102.28125 C 235.179688 101.425781 234.96875 100.582031 234.714844 99.75 C 234.464844 98.914062 234.171875 98.09375 233.835938 97.289062 C 233.503906 96.484375 233.132812 95.699219 232.71875 94.929688 C 232.308594 94.160156 231.863281 93.414062 231.378906 92.691406 C 230.894531 91.964844 230.375 91.265625 229.824219 90.59375 C 229.269531 89.917969 228.683594 89.273438 228.070312 88.65625 C 227.453125 88.042969 226.808594 87.457031 226.132812 86.90625 C 225.460938 86.351562 224.761719 85.832031 224.035156 85.347656 C 223.3125 84.863281 222.566406 84.417969 221.796875 84.007812 C 221.027344 83.597656 220.242188 83.222656 219.4375 82.890625 C 218.632812 82.558594 217.8125 82.261719 216.976562 82.011719 C 216.144531 81.757812 215.300781 81.546875 214.445312 81.375 C 213.589844 81.207031 212.730469 81.078125 211.863281 80.992188 C 210.996094 80.90625 210.125 80.863281 209.253906 80.863281 C 208.382812 80.863281 207.515625 80.90625 206.648438 80.992188 C 205.78125 81.078125 204.917969 81.207031 204.0625 81.375 C 203.210938 81.546875 202.363281 81.757812 201.53125 82.011719 C 200.695312 82.261719 199.878906 82.558594 199.074219 82.890625 C 198.265625 83.222656 197.480469 83.597656 196.710938 84.007812 C 195.945312 84.417969 195.195312 84.863281 194.472656 85.347656 C 193.746094 85.832031 193.046875 86.351562 192.375 86.90625 C 191.703125 87.457031 191.054688 88.042969 190.441406 88.65625 C 189.824219 89.273438 189.238281 89.917969 188.6875 90.59375 C 188.132812 91.265625 187.617188 91.964844 187.132812 92.691406 C 186.648438 93.414062 186.199219 94.160156 185.789062 94.929688 C 185.378906 95.699219 185.007812 96.484375 184.671875 97.289062 C 184.339844 98.09375 184.046875 98.914062 183.792969 99.75 C 183.539062 100.582031 183.328125 101.425781 183.160156 102.28125 C 182.988281 103.136719 182.859375 103.996094 182.773438 104.863281 C 182.691406 105.730469 182.648438 106.601562 182.648438 107.472656 L 182.648438 119.566406 L 163.296875 119.566406 C 162.984375 119.566406 162.683594 119.625 162.394531 119.742188 C 162.105469 119.859375 161.847656 120.023438 161.621094 120.242188 C 161.394531 120.457031 161.21875 120.707031 161.089844 120.992188 C 160.964844 121.277344 160.894531 121.578125 160.878906 121.890625 L 160.09375 141.335938 L 114.917969 141.335938 C 114.597656 141.335938 114.289062 141.398438 113.992188 141.519531 C 113.695312 141.644531 113.433594 141.816406 113.207031 142.046875 C 112.980469 142.273438 112.808594 142.535156 112.683594 142.828125 C 112.5625 143.125 112.5 143.433594 112.5 143.753906 L 112.5 222.367188 C 112.5 222.925781 112.554688 223.476562 112.664062 224.019531 C 112.773438 224.566406 112.933594 225.09375 113.148438 225.605469 C 113.359375 226.121094 113.621094 226.609375 113.929688 227.070312 C 114.238281 227.53125 114.589844 227.960938 114.980469 228.351562 C 115.375 228.746094 115.804688 229.097656 116.265625 229.40625 C 116.726562 229.714844 117.214844 229.976562 117.726562 230.1875 C 118.242188 230.402344 118.769531 230.5625 119.316406 230.671875 C 119.859375 230.78125 120.410156 230.835938 120.964844 230.835938 L 260.050781 230.835938 C 260.382812 230.835938 260.699219 230.769531 261 230.640625 C 261.304688 230.511719 261.570312 230.324219 261.800781 230.085938 C 262.027344 229.847656 262.199219 229.574219 262.316406 229.265625 C 262.429688 228.957031 262.480469 228.636719 262.464844 228.308594 Z M 187.484375 107.472656 C 187.484375 106.757812 187.519531 106.046875 187.589844 105.339844 C 187.660156 104.628906 187.765625 103.925781 187.902344 103.226562 C 188.042969 102.527344 188.214844 101.835938 188.421875 101.152344 C 188.628906 100.472656 188.867188 99.800781 189.140625 99.140625 C 189.414062 98.484375 189.71875 97.839844 190.054688 97.210938 C 190.390625 96.582031 190.757812 95.96875 191.152344 95.378906 C 191.550781 94.785156 191.972656 94.214844 192.425781 93.660156 C 192.878906 93.109375 193.355469 92.582031 193.859375 92.078125 C 194.367188 91.574219 194.894531 91.097656 195.445312 90.644531 C 195.996094 90.191406 196.566406 89.769531 197.160156 89.371094 C 197.753906 88.976562 198.363281 88.609375 198.992188 88.273438 C 199.621094 87.9375 200.265625 87.632812 200.921875 87.359375 C 201.582031 87.085938 202.253906 86.847656 202.933594 86.640625 C 203.617188 86.433594 204.308594 86.261719 205.007812 86.121094 C 205.707031 85.980469 206.410156 85.878906 207.121094 85.808594 C 207.832031 85.738281 208.542969 85.703125 209.253906 85.703125 C 209.96875 85.703125 210.679688 85.738281 211.386719 85.808594 C 212.097656 85.878906 212.800781 85.980469 213.5 86.121094 C 214.199219 86.261719 214.890625 86.433594 215.574219 86.640625 C 216.257812 86.847656 216.925781 87.085938 217.585938 87.359375 C 218.246094 87.632812 218.886719 87.9375 219.515625 88.273438 C 220.144531 88.609375 220.757812 88.976562 221.347656 89.371094 C 221.941406 89.769531 222.515625 90.191406 223.066406 90.644531 C 223.617188 91.097656 224.144531 91.574219 224.648438 92.078125 C 225.152344 92.582031 225.628906 93.109375 226.082031 93.660156 C 226.535156 94.214844 226.960938 94.785156 227.355469 95.378906 C 227.75 95.96875 228.117188 96.582031 228.453125 97.210938 C 228.789062 97.839844 229.09375 98.484375 229.367188 99.140625 C 229.640625 99.800781 229.878906 100.472656 230.085938 101.152344 C 230.292969 101.835938 230.46875 102.527344 230.605469 103.226562 C 230.746094 103.925781 230.851562 104.628906 230.917969 105.339844 C 230.988281 106.046875 231.023438 106.757812 231.023438 107.472656 L 231.023438 119.566406 L 187.484375 119.566406 Z M 194.742188 222.367188 C 194.742188 222.851562 194.648438 223.3125 194.464844 223.757812 C 194.28125 224.199219 194.019531 224.59375 193.679688 224.933594 C 193.335938 225.273438 192.945312 225.535156 192.5 225.71875 C 192.058594 225.902344 191.59375 225.996094 191.113281 225.996094 L 120.964844 225.996094 C 120.484375 225.996094 120.023438 225.902344 119.578125 225.71875 C 119.132812 225.535156 118.742188 225.273438 118.402344 224.933594 C 118.0625 224.59375 117.800781 224.199219 117.613281 223.757812 C 117.429688 223.3125 117.339844 222.851562 117.335938 222.367188 L 117.335938 146.175781 L 194.742188 146.175781 Z M 198.761719 225.996094 C 199.308594 224.851562 199.582031 223.640625 199.578125 222.367188 L 199.578125 143.753906 C 199.578125 143.433594 199.519531 143.125 199.394531 142.828125 C 199.273438 142.535156 199.097656 142.273438 198.871094 142.046875 C 198.644531 141.816406 198.382812 141.644531 198.085938 141.519531 C 197.789062 141.398438 197.480469 141.335938 197.160156 141.335938 L 164.933594 141.335938 L 165.617188 124.40625 L 182.648438 124.40625 L 182.648438 129.242188 L 180.226562 129.242188 C 179.90625 129.242188 179.597656 129.304688 179.300781 129.425781 C 179.007812 129.550781 178.746094 129.722656 178.519531 129.949219 C 178.292969 130.175781 178.117188 130.4375 177.992188 130.734375 C 177.871094 131.03125 177.808594 131.339844 177.808594 131.660156 C 177.808594 131.980469 177.871094 132.289062 177.992188 132.585938 C 178.117188 132.882812 178.292969 133.144531 178.519531 133.371094 C 178.746094 133.597656 179.007812 133.773438 179.300781 133.894531 C 179.597656 134.019531 179.90625 134.078125 180.226562 134.078125 L 189.902344 134.078125 C 190.222656 134.078125 190.53125 134.019531 190.828125 133.894531 C 191.125 133.773438 191.386719 133.597656 191.613281 133.371094 C 191.839844 133.144531 192.015625 132.882812 192.136719 132.585938 C 192.261719 132.289062 192.324219 131.980469 192.324219 131.660156 C 192.324219 131.339844 192.261719 131.03125 192.136719 130.734375 C 192.015625 130.4375 191.839844 130.175781 191.613281 129.949219 C 191.386719 129.722656 191.125 129.550781 190.828125 129.425781 C 190.53125 129.304688 190.222656 129.242188 189.902344 129.242188 L 187.484375 129.242188 L 187.484375 124.40625 L 231.023438 124.40625 L 231.023438 129.242188 L 228.605469 129.242188 C 228.285156 129.242188 227.976562 129.304688 227.679688 129.425781 C 227.382812 129.550781 227.121094 129.722656 226.894531 129.949219 C 226.667969 130.175781 226.492188 130.4375 226.371094 130.734375 C 226.25 131.03125 226.1875 131.339844 226.1875 131.660156 C 226.1875 131.980469 226.25 132.289062 226.371094 132.585938 C 226.492188 132.882812 226.667969 133.144531 226.894531 133.371094 C 227.121094 133.597656 227.382812 133.773438 227.679688 133.894531 C 227.976562 134.019531 228.285156 134.078125 228.605469 134.078125 L 238.28125 134.078125 C 238.601562 134.078125 238.910156 134.019531 239.207031 133.894531 C 239.503906 133.773438 239.765625 133.597656 239.992188 133.371094 C 240.21875 133.144531 240.394531 132.882812 240.515625 132.585938 C 240.636719 132.289062 240.699219 131.980469 240.699219 131.660156 C 240.699219 131.339844 240.636719 131.03125 240.515625 130.734375 C 240.394531 130.4375 240.21875 130.175781 239.992188 129.949219 C 239.765625 129.722656 239.503906 129.550781 239.207031 129.425781 C 238.910156 129.304688 238.601562 129.242188 238.28125 129.242188 L 235.863281 129.242188 L 235.863281 124.40625 L 252.902344 124.40625 L 257.519531 225.996094 Z M 198.761719 225.996094 " clip-rule="nonzero"/></clipPath><linearGradient x1="57.999524" gradientTransform="matrix(0.302358, 0, 0, 0.302358, 110.081133, 78.446108)" y1="553.999488" x2="553.944077" gradientUnits="userSpaceOnUse" y2="58.054926" id="37672a4e62"><stop stop-opacity="1" stop-color="rgb(0%, 24.710083%, 54.104614%)" offset="0"/><stop stop-opacity="1" stop-color="rgb(0%, 25.178528%, 54.367065%)" offset="0.00390625"/><stop stop-opacity="1" stop-color="rgb(0%, 25.648499%, 54.631042%)" offset="0.0078125"/><stop stop-opacity="1" stop-color="rgb(0%, 26.116943%, 54.893494%)" offset="0.0117188"/><stop stop-opacity="1" stop-color="rgb(0%, 26.586914%, 55.157471%)" offset="0.015625"/><stop stop-opacity="1" stop-color="rgb(0%, 27.055359%, 55.419922%)" offset="0.0195313"/><stop stop-opacity="1" stop-color="rgb(0%, 27.52533%, 55.683899%)" offset="0.0234375"/><stop stop-opacity="1" stop-color="rgb(0%, 27.993774%, 55.94635%)" offset="0.0273438"/><stop stop-opacity="1" stop-color="rgb(0%, 28.463745%, 56.208801%)" offset="0.03125"/><stop stop-opacity="1" stop-color="rgb(0%, 28.93219%, 56.471252%)" offset="0.0351563"/><stop stop-opacity="1" stop-color="rgb(0%, 29.402161%, 56.735229%)" offset="0.0390625"/><stop stop-opacity="1" stop-color="rgb(0%, 29.872131%, 56.997681%)" offset="0.0429688"/><stop stop-opacity="1" stop-color="rgb(0%, 30.342102%, 57.261658%)" offset="0.046875"/><stop stop-opacity="1" stop-color="rgb(0%, 30.810547%, 57.524109%)" offset="0.0507813"/><stop stop-opacity="1" stop-color="rgb(0%, 31.280518%, 57.78656%)" offset="0.0546875"/><stop stop-opacity="1" stop-color="rgb(0%, 31.748962%, 58.049011%)" offset="0.0585938"/><stop stop-opacity="1" stop-color="rgb(0%, 32.218933%, 58.312988%)" offset="0.0625"/><stop stop-opacity="1" stop-color="rgb(0%, 32.687378%, 58.575439%)" offset="0.0664063"/><stop stop-opacity="1" stop-color="rgb(0%, 33.157349%, 58.839417%)" offset="0.0703125"/><stop stop-opacity="1" stop-color="rgb(0%, 33.625793%, 59.101868%)" offset="0.0742188"/><stop stop-opacity="1" stop-color="rgb(0%, 34.095764%, 59.364319%)" offset="0.078125"/><stop stop-opacity="1" stop-color="rgb(0%, 34.564209%, 59.62677%)" offset="0.0820313"/><stop stop-opacity="1" stop-color="rgb(0%, 35.03418%, 59.890747%)" offset="0.0859375"/><stop stop-opacity="1" stop-color="rgb(0%, 35.502625%, 60.153198%)" offset="0.0898438"/><stop stop-opacity="1" stop-color="rgb(0%, 35.972595%, 60.417175%)" offset="0.09375"/><stop stop-opacity="1" stop-color="rgb(0%, 36.44104%, 60.679626%)" offset="0.0976563"/><stop stop-opacity="1" stop-color="rgb(0%, 36.911011%, 60.943604%)" offset="0.101563"/><stop stop-opacity="1" stop-color="rgb(0%, 37.379456%, 61.206055%)" offset="0.105469"/><stop stop-opacity="1" stop-color="rgb(0%, 37.849426%, 61.468506%)" offset="0.109375"/><stop stop-opacity="1" stop-color="rgb(0%, 38.317871%, 61.730957%)" offset="0.113281"/><stop stop-opacity="1" stop-color="rgb(0%, 38.787842%, 61.994934%)" offset="0.117188"/><stop stop-opacity="1" stop-color="rgb(0%, 39.257812%, 62.257385%)" offset="0.121094"/><stop stop-opacity="1" stop-color="rgb(0%, 39.727783%, 62.521362%)" offset="0.125"/><stop stop-opacity="1" stop-color="rgb(0%, 40.196228%, 62.783813%)" offset="0.128906"/><stop stop-opacity="1" stop-color="rgb(0%, 40.666199%, 63.046265%)" offset="0.132813"/><stop stop-opacity="1" stop-color="rgb(0%, 41.134644%, 63.308716%)" offset="0.136719"/><stop stop-opacity="1" stop-color="rgb(0%, 41.604614%, 63.572693%)" offset="0.140625"/><stop stop-opacity="1" stop-color="rgb(0%, 42.073059%, 63.835144%)" offset="0.144531"/><stop stop-opacity="1" stop-color="rgb(0%, 42.54303%, 64.099121%)" offset="0.148438"/><stop stop-opacity="1" stop-color="rgb(0%, 43.011475%, 64.361572%)" offset="0.152344"/><stop stop-opacity="1" stop-color="rgb(0%, 43.481445%, 64.624023%)" offset="0.15625"/><stop stop-opacity="1" stop-color="rgb(0%, 43.94989%, 64.886475%)" offset="0.160156"/><stop stop-opacity="1" stop-color="rgb(0%, 44.419861%, 65.150452%)" offset="0.164063"/><stop stop-opacity="1" stop-color="rgb(0%, 44.888306%, 65.412903%)" offset="0.167969"/><stop stop-opacity="1" stop-color="rgb(0%, 45.358276%, 65.67688%)" offset="0.171875"/><stop stop-opacity="1" stop-color="rgb(0%, 45.826721%, 65.939331%)" offset="0.175781"/><stop stop-opacity="1" stop-color="rgb(0%, 46.296692%, 66.203308%)" offset="0.179688"/><stop stop-opacity="1" stop-color="rgb(0%, 46.765137%, 66.465759%)" offset="0.183594"/><stop stop-opacity="1" stop-color="rgb(0%, 47.235107%, 66.72821%)" offset="0.1875"/><stop stop-opacity="1" stop-color="rgb(0%, 47.703552%, 66.990662%)" offset="0.191406"/><stop stop-opacity="1" stop-color="rgb(0%, 48.173523%, 67.254639%)" offset="0.195313"/><stop stop-opacity="1" stop-color="rgb(0%, 48.643494%, 67.51709%)" offset="0.199219"/><stop stop-opacity="1" stop-color="rgb(0%, 49.113464%, 67.781067%)" offset="0.203125"/><stop stop-opacity="1" stop-color="rgb(0%, 49.581909%, 68.043518%)" offset="0.207031"/><stop stop-opacity="1" stop-color="rgb(0%, 50.05188%, 68.305969%)" offset="0.210938"/><stop stop-opacity="1" stop-color="rgb(0%, 50.520325%, 68.56842%)" offset="0.214844"/><stop stop-opacity="1" stop-color="rgb(0%, 50.990295%, 68.832397%)" offset="0.21875"/><stop stop-opacity="1" stop-color="rgb(0%, 51.45874%, 69.094849%)" offset="0.222656"/><stop stop-opacity="1" stop-color="rgb(0%, 51.928711%, 69.358826%)" offset="0.226563"/><stop stop-opacity="1" stop-color="rgb(0%, 52.397156%, 69.621277%)" offset="0.230469"/><stop stop-opacity="1" stop-color="rgb(0%, 52.867126%, 69.885254%)" offset="0.234375"/><stop stop-opacity="1" stop-color="rgb(0%, 53.335571%, 70.147705%)" offset="0.238281"/><stop stop-opacity="1" stop-color="rgb(0%, 53.805542%, 70.410156%)" offset="0.242187"/><stop stop-opacity="1" stop-color="rgb(0%, 54.273987%, 70.672607%)" offset="0.246094"/><stop stop-opacity="1" stop-color="rgb(0%, 54.743958%, 70.936584%)" offset="0.25"/><stop stop-opacity="1" stop-color="rgb(0%, 55.212402%, 71.199036%)" offset="0.253906"/><stop stop-opacity="1" stop-color="rgb(0%, 55.682373%, 71.463013%)" offset="0.257812"/><stop stop-opacity="1" stop-color="rgb(0%, 56.150818%, 71.725464%)" offset="0.261719"/><stop stop-opacity="1" stop-color="rgb(0%, 56.620789%, 71.987915%)" offset="0.265625"/><stop stop-opacity="1" stop-color="rgb(0%, 57.089233%, 72.250366%)" offset="0.269531"/><stop stop-opacity="1" stop-color="rgb(0%, 57.559204%, 72.514343%)" offset="0.273438"/><stop stop-opacity="1" stop-color="rgb(0%, 58.027649%, 72.776794%)" offset="0.277344"/><stop stop-opacity="1" stop-color="rgb(0%, 58.49762%, 73.040771%)" offset="0.28125"/><stop stop-opacity="1" stop-color="rgb(0%, 58.96759%, 73.303223%)" offset="0.285156"/><stop stop-opacity="1" stop-color="rgb(0%, 59.437561%, 73.565674%)" offset="0.289062"/><stop stop-opacity="1" stop-color="rgb(0%, 59.906006%, 73.828125%)" offset="0.292969"/><stop stop-opacity="1" stop-color="rgb(0%, 60.375977%, 74.092102%)" offset="0.296875"/><stop stop-opacity="1" stop-color="rgb(0%, 60.844421%, 74.354553%)" offset="0.300781"/><stop stop-opacity="1" stop-color="rgb(0%, 61.314392%, 74.61853%)" offset="0.304688"/><stop stop-opacity="1" stop-color="rgb(0%, 61.782837%, 74.880981%)" offset="0.308594"/><stop stop-opacity="1" stop-color="rgb(0%, 62.252808%, 75.144958%)" offset="0.3125"/><stop stop-opacity="1" stop-color="rgb(0%, 62.721252%, 75.40741%)" offset="0.316406"/><stop stop-opacity="1" stop-color="rgb(0%, 63.191223%, 75.669861%)" offset="0.320312"/><stop stop-opacity="1" stop-color="rgb(0%, 63.659668%, 75.932312%)" offset="0.324219"/><stop stop-opacity="1" stop-color="rgb(0%, 64.129639%, 76.196289%)" offset="0.328125"/><stop stop-opacity="1" stop-color="rgb(0%, 64.598083%, 76.45874%)" offset="0.332031"/><stop stop-opacity="1" stop-color="rgb(0%, 65.068054%, 76.722717%)" offset="0.335938"/><stop stop-opacity="1" stop-color="rgb(0%, 65.536499%, 76.985168%)" offset="0.339844"/><stop stop-opacity="1" stop-color="rgb(0%, 66.00647%, 77.24762%)" offset="0.34375"/><stop stop-opacity="1" stop-color="rgb(0%, 66.474915%, 77.510071%)" offset="0.347656"/><stop stop-opacity="1" stop-color="rgb(0%, 66.944885%, 77.774048%)" offset="0.351562"/><stop stop-opacity="1" stop-color="rgb(0%, 67.41333%, 78.036499%)" offset="0.355469"/><stop stop-opacity="1" stop-color="rgb(0%, 67.883301%, 78.300476%)" offset="0.359375"/><stop stop-opacity="1" stop-color="rgb(0%, 68.353271%, 78.562927%)" offset="0.363281"/><stop stop-opacity="1" stop-color="rgb(0%, 68.823242%, 78.825378%)" offset="0.367188"/><stop stop-opacity="1" stop-color="rgb(0%, 69.291687%, 79.08783%)" offset="0.371094"/><stop stop-opacity="1" stop-color="rgb(0%, 69.761658%, 79.351807%)" offset="0.375"/><stop stop-opacity="1" stop-color="rgb(0%, 70.230103%, 79.614258%)" offset="0.378906"/><stop stop-opacity="1" stop-color="rgb(0%, 70.700073%, 79.878235%)" offset="0.382812"/><stop stop-opacity="1" stop-color="rgb(0%, 71.168518%, 80.140686%)" offset="0.386719"/><stop stop-opacity="1" stop-color="rgb(0%, 71.638489%, 80.404663%)" offset="0.390625"/><stop stop-opacity="1" stop-color="rgb(0%, 72.106934%, 80.667114%)" offset="0.394531"/><stop stop-opacity="1" stop-color="rgb(0%, 72.576904%, 80.929565%)" offset="0.398438"/><stop stop-opacity="1" stop-color="rgb(0%, 73.045349%, 81.192017%)" offset="0.402344"/><stop stop-opacity="1" stop-color="rgb(0%, 73.51532%, 81.455994%)" offset="0.40625"/><stop stop-opacity="1" stop-color="rgb(0%, 73.983765%, 81.718445%)" offset="0.410156"/><stop stop-opacity="1" stop-color="rgb(0%, 74.453735%, 81.982422%)" offset="0.414062"/><stop stop-opacity="1" stop-color="rgb(0%, 74.92218%, 82.244873%)" offset="0.417969"/><stop stop-opacity="1" stop-color="rgb(0%, 75.392151%, 82.507324%)" offset="0.421875"/><stop stop-opacity="1" stop-color="rgb(0%, 75.860596%, 82.769775%)" offset="0.425781"/><stop stop-opacity="1" stop-color="rgb(0%, 76.330566%, 83.033752%)" offset="0.429688"/><stop stop-opacity="1" stop-color="rgb(0%, 76.799011%, 83.296204%)" offset="0.433594"/><stop stop-opacity="1" stop-color="rgb(0%, 77.268982%, 83.560181%)" offset="0.4375"/><stop stop-opacity="1" stop-color="rgb(0%, 77.738953%, 83.822632%)" offset="0.441406"/><stop stop-opacity="1" stop-color="rgb(0%, 78.208923%, 84.085083%)" offset="0.445312"/><stop stop-opacity="1" stop-color="rgb(0%, 78.677368%, 84.347534%)" offset="0.449219"/><stop stop-opacity="1" stop-color="rgb(0%, 79.147339%, 84.611511%)" offset="0.453125"/><stop stop-opacity="1" stop-color="rgb(0%, 79.615784%, 84.873962%)" offset="0.457031"/><stop stop-opacity="1" stop-color="rgb(0%, 80.085754%, 85.137939%)" offset="0.460938"/><stop stop-opacity="1" stop-color="rgb(0%, 80.554199%, 85.400391%)" offset="0.464844"/><stop stop-opacity="1" stop-color="rgb(0%, 81.02417%, 85.664368%)" offset="0.46875"/><stop stop-opacity="1" stop-color="rgb(0%, 81.492615%, 85.926819%)" offset="0.472656"/><stop stop-opacity="1" stop-color="rgb(0%, 81.962585%, 86.18927%)" offset="0.476562"/><stop stop-opacity="1" stop-color="rgb(0%, 82.43103%, 86.451721%)" offset="0.480469"/><stop stop-opacity="1" stop-color="rgb(0%, 82.901001%, 86.715698%)" offset="0.484375"/><stop stop-opacity="1" stop-color="rgb(0%, 83.369446%, 86.978149%)" offset="0.488281"/><stop stop-opacity="1" stop-color="rgb(0%, 83.839417%, 87.242126%)" offset="0.492188"/><stop stop-opacity="1" stop-color="rgb(0%, 83.889771%, 87.399292%)" offset="0.496094"/><stop stop-opacity="1" stop-color="rgb(0%, 83.940125%, 87.556458%)" offset="0.5"/><stop stop-opacity="1" stop-color="rgb(0%, 83.587646%, 87.611389%)" offset="0.503906"/><stop stop-opacity="1" stop-color="rgb(0%, 83.236694%, 87.667847%)" offset="0.507812"/><stop stop-opacity="1" stop-color="rgb(0%, 82.884216%, 87.722778%)" offset="0.511719"/><stop stop-opacity="1" stop-color="rgb(0%, 82.531738%, 87.779236%)" offset="0.515625"/><stop stop-opacity="1" stop-color="rgb(0%, 82.17926%, 87.834167%)" offset="0.519531"/><stop stop-opacity="1" stop-color="rgb(0%, 81.828308%, 87.890625%)" offset="0.523438"/><stop stop-opacity="1" stop-color="rgb(0%, 81.47583%, 87.947083%)" offset="0.527344"/><stop stop-opacity="1" stop-color="rgb(0%, 81.123352%, 88.00354%)" offset="0.53125"/><stop stop-opacity="1" stop-color="rgb(0%, 80.770874%, 88.058472%)" offset="0.535156"/><stop stop-opacity="1" stop-color="rgb(0%, 80.419922%, 88.114929%)" offset="0.539062"/><stop stop-opacity="1" stop-color="rgb(0%, 80.067444%, 88.169861%)" offset="0.542969"/><stop stop-opacity="1" stop-color="rgb(0%, 79.716492%, 88.226318%)" offset="0.546875"/><stop stop-opacity="1" stop-color="rgb(0%, 79.364014%, 88.28125%)" offset="0.550781"/><stop stop-opacity="1" stop-color="rgb(0%, 79.011536%, 88.337708%)" offset="0.554688"/><stop stop-opacity="1" stop-color="rgb(0%, 78.659058%, 88.392639%)" offset="0.558594"/><stop stop-opacity="1" stop-color="rgb(0%, 78.308105%, 88.449097%)" offset="0.5625"/><stop stop-opacity="1" stop-color="rgb(0%, 77.955627%, 88.505554%)" offset="0.566406"/><stop stop-opacity="1" stop-color="rgb(0%, 77.603149%, 88.562012%)" offset="0.570312"/><stop stop-opacity="1" stop-color="rgb(0%, 77.250671%, 88.616943%)" offset="0.574219"/><stop stop-opacity="1" stop-color="rgb(0%, 76.899719%, 88.673401%)" offset="0.578125"/><stop stop-opacity="1" stop-color="rgb(0%, 76.547241%, 88.728333%)" offset="0.582031"/><stop stop-opacity="1" stop-color="rgb(0%, 76.196289%, 88.78479%)" offset="0.585938"/><stop stop-opacity="1" stop-color="rgb(0%, 75.843811%, 88.839722%)" offset="0.589844"/><stop stop-opacity="1" stop-color="rgb(0%, 75.491333%, 88.896179%)" offset="0.59375"/><stop stop-opacity="1" stop-color="rgb(0%, 75.138855%, 88.951111%)" offset="0.597656"/><stop stop-opacity="1" stop-color="rgb(0%, 74.787903%, 89.007568%)" offset="0.601562"/><stop stop-opacity="1" stop-color="rgb(0%, 74.435425%, 89.064026%)" offset="0.605469"/><stop stop-opacity="1" stop-color="rgb(0%, 74.082947%, 89.120483%)" offset="0.609375"/><stop stop-opacity="1" stop-color="rgb(0%, 73.730469%, 89.175415%)" offset="0.613281"/><stop stop-opacity="1" stop-color="rgb(0%, 73.379517%, 89.231873%)" offset="0.617188"/><stop stop-opacity="1" stop-color="rgb(0%, 73.027039%, 89.286804%)" offset="0.621094"/><stop stop-opacity="1" stop-color="rgb(0%, 72.676086%, 89.343262%)" offset="0.625"/><stop stop-opacity="1" stop-color="rgb(0%, 72.323608%, 89.398193%)" offset="0.628906"/><stop stop-opacity="1" stop-color="rgb(0%, 71.97113%, 89.454651%)" offset="0.632812"/><stop stop-opacity="1" stop-color="rgb(0%, 71.618652%, 89.509583%)" offset="0.636719"/><stop stop-opacity="1" stop-color="rgb(0%, 71.2677%, 89.56604%)" offset="0.640625"/><stop stop-opacity="1" stop-color="rgb(0%, 70.915222%, 89.622498%)" offset="0.644531"/><stop stop-opacity="1" stop-color="rgb(0%, 70.562744%, 89.678955%)" offset="0.648438"/><stop stop-opacity="1" stop-color="rgb(0%, 70.210266%, 89.733887%)" offset="0.652344"/><stop stop-opacity="1" stop-color="rgb(0%, 69.859314%, 89.790344%)" offset="0.65625"/><stop stop-opacity="1" stop-color="rgb(0%, 69.506836%, 89.845276%)" offset="0.660156"/><stop stop-opacity="1" stop-color="rgb(0%, 69.155884%, 89.901733%)" offset="0.664062"/><stop stop-opacity="1" stop-color="rgb(0%, 68.803406%, 89.956665%)" offset="0.667969"/><stop stop-opacity="1" stop-color="rgb(0%, 68.450928%, 90.013123%)" offset="0.671875"/><stop stop-opacity="1" stop-color="rgb(0%, 68.09845%, 90.06958%)" offset="0.675781"/><stop stop-opacity="1" stop-color="rgb(0%, 67.747498%, 90.126038%)" offset="0.679688"/><stop stop-opacity="1" stop-color="rgb(0%, 67.39502%, 90.180969%)" offset="0.683594"/><stop stop-opacity="1" stop-color="rgb(0%, 67.042542%, 90.237427%)" offset="0.6875"/><stop stop-opacity="1" stop-color="rgb(0%, 66.690063%, 90.292358%)" offset="0.691406"/><stop stop-opacity="1" stop-color="rgb(0%, 66.339111%, 90.348816%)" offset="0.695312"/><stop stop-opacity="1" stop-color="rgb(0%, 65.986633%, 90.403748%)" offset="0.699219"/><stop stop-opacity="1" stop-color="rgb(0%, 65.635681%, 90.460205%)" offset="0.703125"/><stop stop-opacity="1" stop-color="rgb(0%, 65.283203%, 90.515137%)" offset="0.707031"/><stop stop-opacity="1" stop-color="rgb(0%, 64.930725%, 90.571594%)" offset="0.710938"/><stop stop-opacity="1" stop-color="rgb(0%, 64.578247%, 90.628052%)" offset="0.714844"/><stop stop-opacity="1" stop-color="rgb(0%, 64.227295%, 90.684509%)" offset="0.71875"/><stop stop-opacity="1" stop-color="rgb(0%, 63.874817%, 90.739441%)" offset="0.722656"/><stop stop-opacity="1" stop-color="rgb(0%, 63.522339%, 90.795898%)" offset="0.726562"/><stop stop-opacity="1" stop-color="rgb(0%, 63.169861%, 90.85083%)" offset="0.730469"/><stop stop-opacity="1" stop-color="rgb(0%, 62.818909%, 90.907288%)" offset="0.734375"/><stop stop-opacity="1" stop-color="rgb(0%, 62.466431%, 90.962219%)" offset="0.738281"/><stop stop-opacity="1" stop-color="rgb(0%, 62.115479%, 91.018677%)" offset="0.742188"/><stop stop-opacity="1" stop-color="rgb(0%, 61.763%, 91.073608%)" offset="0.746094"/><stop stop-opacity="1" stop-color="rgb(0%, 61.410522%, 91.130066%)" offset="0.75"/><stop stop-opacity="1" stop-color="rgb(0%, 61.058044%, 91.186523%)" offset="0.753906"/><stop stop-opacity="1" stop-color="rgb(0%, 60.707092%, 91.242981%)" offset="0.757812"/><stop stop-opacity="1" stop-color="rgb(0%, 60.354614%, 91.297913%)" offset="0.761719"/><stop stop-opacity="1" stop-color="rgb(0%, 60.002136%, 91.35437%)" offset="0.765625"/><stop stop-opacity="1" stop-color="rgb(0%, 59.649658%, 91.409302%)" offset="0.769531"/><stop stop-opacity="1" stop-color="rgb(0%, 59.298706%, 91.465759%)" offset="0.773438"/><stop stop-opacity="1" stop-color="rgb(0%, 58.946228%, 91.520691%)" offset="0.777344"/><stop stop-opacity="1" stop-color="rgb(0%, 58.595276%, 91.577148%)" offset="0.78125"/><stop stop-opacity="1" stop-color="rgb(0%, 58.242798%, 91.63208%)" offset="0.785156"/><stop stop-opacity="1" stop-color="rgb(0%, 57.89032%, 91.688538%)" offset="0.789062"/><stop stop-opacity="1" stop-color="rgb(0%, 57.537842%, 91.744995%)" offset="0.792969"/><stop stop-opacity="1" stop-color="rgb(0%, 57.18689%, 91.801453%)" offset="0.796875"/><stop stop-opacity="1" stop-color="rgb(0%, 56.834412%, 91.856384%)" offset="0.800781"/><stop stop-opacity="1" stop-color="rgb(0%, 56.481934%, 91.912842%)" offset="0.804688"/><stop stop-opacity="1" stop-color="rgb(0%, 56.129456%, 91.967773%)" offset="0.808594"/><stop stop-opacity="1" stop-color="rgb(0%, 55.778503%, 92.024231%)" offset="0.8125"/><stop stop-opacity="1" stop-color="rgb(0%, 55.426025%, 92.079163%)" offset="0.816406"/><stop stop-opacity="1" stop-color="rgb(0%, 55.075073%, 92.13562%)" offset="0.820312"/><stop stop-opacity="1" stop-color="rgb(0%, 54.722595%, 92.190552%)" offset="0.824219"/><stop stop-opacity="1" stop-color="rgb(0%, 54.370117%, 92.247009%)" offset="0.828125"/><stop stop-opacity="1" stop-color="rgb(0%, 54.017639%, 92.303467%)" offset="0.832031"/><stop stop-opacity="1" stop-color="rgb(0%, 53.666687%, 92.359924%)" offset="0.835938"/><stop stop-opacity="1" stop-color="rgb(0%, 53.314209%, 92.414856%)" offset="0.839844"/><stop stop-opacity="1" stop-color="rgb(0%, 52.961731%, 92.471313%)" offset="0.84375"/><stop stop-opacity="1" stop-color="rgb(0%, 52.609253%, 92.526245%)" offset="0.847656"/><stop stop-opacity="1" stop-color="rgb(0%, 52.258301%, 92.582703%)" offset="0.851562"/><stop stop-opacity="1" stop-color="rgb(0%, 51.905823%, 92.637634%)" offset="0.855469"/><stop stop-opacity="1" stop-color="rgb(0%, 51.554871%, 92.694092%)" offset="0.859375"/><stop stop-opacity="1" stop-color="rgb(0%, 51.202393%, 92.749023%)" offset="0.863281"/><stop stop-opacity="1" stop-color="rgb(0%, 50.849915%, 92.805481%)" offset="0.867188"/><stop stop-opacity="1" stop-color="rgb(0%, 50.497437%, 92.861938%)" offset="0.871094"/><stop stop-opacity="1" stop-color="rgb(0%, 50.146484%, 92.918396%)" offset="0.875"/><stop stop-opacity="1" stop-color="rgb(0%, 49.794006%, 92.973328%)" offset="0.878906"/><stop stop-opacity="1" stop-color="rgb(0%, 49.441528%, 93.029785%)" offset="0.882812"/><stop stop-opacity="1" stop-color="rgb(0%, 49.08905%, 93.084717%)" offset="0.886719"/><stop stop-opacity="1" stop-color="rgb(0%, 48.738098%, 93.141174%)" offset="0.890625"/><stop stop-opacity="1" stop-color="rgb(0%, 48.38562%, 93.196106%)" offset="0.894531"/><stop stop-opacity="1" stop-color="rgb(0%, 48.034668%, 93.252563%)" offset="0.898438"/><stop stop-opacity="1" stop-color="rgb(0%, 47.68219%, 93.307495%)" offset="0.902344"/><stop stop-opacity="1" stop-color="rgb(0%, 47.329712%, 93.363953%)" offset="0.90625"/><stop stop-opacity="1" stop-color="rgb(0%, 46.977234%, 93.42041%)" offset="0.910156"/><stop stop-opacity="1" stop-color="rgb(0%, 46.626282%, 93.476868%)" offset="0.914062"/><stop stop-opacity="1" stop-color="rgb(0%, 46.273804%, 93.531799%)" offset="0.917969"/><stop stop-opacity="1" stop-color="rgb(0%, 45.922852%, 93.588257%)" offset="0.921875"/><stop stop-opacity="1" stop-color="rgb(0%, 45.570374%, 93.643188%)" offset="0.925781"/><stop stop-opacity="1" stop-color="rgb(0%, 45.217896%, 93.699646%)" offset="0.929688"/><stop stop-opacity="1" stop-color="rgb(0%, 44.865417%, 93.754578%)" offset="0.933594"/><stop stop-opacity="1" stop-color="rgb(0%, 44.514465%, 93.811035%)" offset="0.9375"/><stop stop-opacity="1" stop-color="rgb(0%, 44.161987%, 93.865967%)" offset="0.941406"/><stop stop-opacity="1" stop-color="rgb(0%, 43.809509%, 93.922424%)" offset="0.945312"/><stop stop-opacity="1" stop-color="rgb(0%, 43.457031%, 93.978882%)" offset="0.949219"/><stop stop-opacity="1" stop-color="rgb(0%, 43.106079%, 94.035339%)" offset="0.953125"/><stop stop-opacity="1" stop-color="rgb(0%, 42.901611%, 94.067383%)" offset="0.957031"/><stop stop-opacity="1" stop-color="rgb(0%, 42.698669%, 94.099426%)" offset="0.960937"/><stop stop-opacity="1" stop-color="rgb(0%, 42.698669%, 94.099426%)" offset="0.96875"/><stop stop-opacity="1" stop-color="rgb(0%, 42.698669%, 94.099426%)" offset="1"/></linearGradient><clipPath id="7c6216e01f"><path d="M 248.847656 190.890625 L 293.375 190.890625 L 293.375 229.5 L 248.847656 229.5 Z M 248.847656 190.890625 " clip-rule="nonzero"/></clipPath><clipPath id="31dfa54e3e"><path d="M 252 187.5 L 255 187.5 L 255 195 L 252 195 Z M 252 187.5 " clip-rule="nonzero"/></clipPath><clipPath id="a8863ab377"><path d="M 240.90625 198 L 248 198 L 248 202 L 240.90625 202 Z M 240.90625 198 " clip-rule="nonzero"/></clipPath></defs><path fill="#006df0" d="M 187.5 375 C 84.144531 375 0 290.855469 0 187.5 C 0 84.144531 84.144531 0 187.5 0 C 290.855469 0 375 84.144531 375 187.5 C 375 290.855469 290.855469 375 187.5 375 Z M 187.5 2.769531 C 85.621094 2.769531 2.769531 85.621094 2.769531 187.5 C 2.769531 289.378906 85.621094 372.230469 187.5 372.230469 C 289.378906 372.230469 372.230469 289.378906 372.230469 187.5 C 372.230469 85.621094 289.378906 2.769531 187.5 2.769531 Z M 187.5 2.769531 " fill-opacity="1" fill-rule="nonzero"/><g clip-path="url(#ba06bd0f81)"><g clip-path="url(#ba509ec015)"><path fill="url(#22c3dec50d)" d="M 127.011719 153.429688 L 127.011719 199.390625 L 185.066406 199.390625 L 185.066406 153.429688 Z M 127.011719 153.429688 " fill-rule="nonzero"/></g></g><g clip-path="url(#d4068b0323)"><g clip-path="url(#8a5382d76c)"><path fill="url(#37672a4e62)" d="M 112.5 80.910156 L 112.5 230.835938 L 262.480469 230.835938 L 262.480469 80.910156 Z M 112.5 80.910156 " fill-rule="nonzero"/></g></g><g fill="#00d7df" fill-opacity="1"><g transform="translate(54.802838, 291.584923)"><g><path d="M 7.5625 0.296875 C 6.851562 0.296875 6.207031 0.222656 5.625 0.078125 C 5.050781 -0.0664062 4.492188 -0.316406 3.953125 -0.671875 C 3.421875 -1.035156 2.976562 -1.515625 2.625 -2.109375 C 1.820312 -3.398438 1.421875 -5.300781 1.421875 -7.8125 C 1.421875 -10.96875 2.03125 -13.125 3.25 -14.28125 C 3.84375 -14.84375 4.484375 -15.242188 5.171875 -15.484375 C 5.859375 -15.722656 6.65625 -15.84375 7.5625 -15.84375 C 8.46875 -15.84375 9.265625 -15.722656 9.953125 -15.484375 C 10.640625 -15.242188 11.28125 -14.84375 11.875 -14.28125 C 13.09375 -13.125 13.703125 -10.96875 13.703125 -7.8125 C 13.703125 -4.207031 12.859375 -1.828125 11.171875 -0.671875 C 10.222656 -0.0234375 9.019531 0.296875 7.5625 0.296875 Z M 5.359375 -2.59375 C 5.660156 -2.375 5.976562 -2.222656 6.3125 -2.140625 C 6.644531 -2.066406 7.148438 -2.03125 7.828125 -2.03125 C 8.515625 -2.03125 9.078125 -2.15625 9.515625 -2.40625 C 10.492188 -2.945312 10.984375 -4.726562 10.984375 -7.75 C 10.984375 -8.988281 10.925781 -9.984375 10.8125 -10.734375 C 10.695312 -11.492188 10.484375 -12.082031 10.171875 -12.5 C 9.867188 -12.914062 9.519531 -13.191406 9.125 -13.328125 C 8.738281 -13.460938 8.21875 -13.53125 7.5625 -13.53125 C 6.914062 -13.53125 6.394531 -13.460938 6 -13.328125 C 5.613281 -13.191406 5.269531 -12.914062 4.96875 -12.5 C 4.664062 -12.082031 4.453125 -11.492188 4.328125 -10.734375 C 4.210938 -9.984375 4.15625 -9.046875 4.15625 -7.921875 C 4.15625 -6.804688 4.195312 -5.90625 4.28125 -5.21875 C 4.375 -4.539062 4.503906 -3.988281 4.671875 -3.5625 C 4.835938 -3.144531 5.066406 -2.820312 5.359375 -2.59375 Z M 5.359375 -2.59375 "/></g></g></g><g fill="#00d7df" fill-opacity="1"><g transform="translate(80.808737, 291.584923)"><g><path d="M 2.15625 0 L 2.15625 -15.546875 L 5.5625 -15.546875 L 11.140625 -3 L 11.265625 -3 L 10.953125 -15.546875 L 13.421875 -15.546875 L 13.421875 0 L 10.015625 0 L 4.453125 -12.53125 L 4.34375 -12.53125 L 4.625 0 Z M 2.15625 0 "/></g></g></g><g fill="#00d7df" fill-opacity="1"><g transform="translate(107.237232, 291.584923)"><g><path d="M 2.15625 0 L 2.15625 -15.546875 L 4.765625 -15.546875 L 4.65625 -2.265625 L 10.328125 -2.3125 L 10.328125 0 Z M 2.15625 0 "/></g></g></g><g fill="#00d7df" fill-opacity="1"><g transform="translate(128.505554, 291.584923)"><g><path d="M 2.15625 0.015625 L 2.25 -7.140625 L 2.15625 -15.546875 L 4.78125 -15.546875 L 4.6875 -8.65625 L 4.78125 0.015625 Z M 2.15625 0.015625 "/></g></g></g><g fill="#00d7df" fill-opacity="1"><g transform="translate(146.348585, 291.584923)"><g><path d="M 2.15625 0 L 2.15625 -15.546875 L 5.5625 -15.546875 L 11.140625 -3 L 11.265625 -3 L 10.953125 -15.546875 L 13.421875 -15.546875 L 13.421875 0 L 10.015625 0 L 4.453125 -12.53125 L 4.34375 -12.53125 L 4.625 0 Z M 2.15625 0 "/></g></g></g><g fill="#00d7df" fill-opacity="1"><g transform="translate(172.777077, 291.584923)"><g><path d="M 2.15625 0 L 2.15625 -15.546875 L 10.5625 -15.546875 L 10.5625 -13.28125 L 4.765625 -13.34375 L 4.65625 -8.984375 L 10.015625 -8.984375 L 10.015625 -6.78125 L 4.65625 -6.78125 L 4.765625 -2.21875 L 10.5625 -2.265625 L 10.5625 0 Z M 2.15625 0 "/></g></g></g><g fill="#00d7df" fill-opacity="1"><g transform="translate(195.557868, 291.584923)"><g/></g></g><g fill="#00d7df" fill-opacity="1"><g transform="translate(211.666021, 291.584923)"><g><path d="M 6.296875 -2.046875 C 7.597656 -2.046875 8.25 -2.757812 8.25 -4.1875 C 8.25 -4.789062 8.003906 -5.300781 7.515625 -5.71875 C 7.023438 -6.132812 6.347656 -6.535156 5.484375 -6.921875 C 4.617188 -7.316406 4.125 -7.546875 4 -7.609375 C 3.875 -7.679688 3.644531 -7.804688 3.3125 -7.984375 C 2.988281 -8.160156 2.765625 -8.304688 2.640625 -8.421875 C 2.515625 -8.546875 2.332031 -8.722656 2.09375 -8.953125 C 1.863281 -9.179688 1.707031 -9.414062 1.625 -9.65625 C 1.375 -10.289062 1.25 -10.914062 1.25 -11.53125 C 1.25 -12.789062 1.679688 -13.820312 2.546875 -14.625 C 3.410156 -15.4375 4.644531 -15.84375 6.25 -15.84375 C 7.425781 -15.84375 8.582031 -15.679688 9.71875 -15.359375 L 10.328125 -15.203125 L 9.90625 -13.015625 C 8.28125 -13.328125 7.039062 -13.484375 6.1875 -13.484375 C 5.34375 -13.484375 4.753906 -13.34375 4.421875 -13.0625 C 4.097656 -12.789062 3.9375 -12.351562 3.9375 -11.75 C 3.9375 -11.15625 4.140625 -10.691406 4.546875 -10.359375 C 4.953125 -10.023438 5.425781 -9.726562 5.96875 -9.46875 C 6.507812 -9.207031 6.945312 -9.003906 7.28125 -8.859375 C 7.613281 -8.710938 7.863281 -8.597656 8.03125 -8.515625 C 8.207031 -8.429688 8.441406 -8.300781 8.734375 -8.125 C 9.035156 -7.957031 9.265625 -7.800781 9.421875 -7.65625 C 9.585938 -7.519531 9.78125 -7.335938 10 -7.109375 C 10.226562 -6.878906 10.394531 -6.644531 10.5 -6.40625 C 10.78125 -5.832031 10.921875 -5.207031 10.921875 -4.53125 C 10.921875 -3.09375 10.453125 -1.925781 9.515625 -1.03125 C 8.585938 -0.144531 7.367188 0.296875 5.859375 0.296875 C 5.078125 0.296875 4.269531 0.1875 3.4375 -0.03125 C 2.601562 -0.257812 1.960938 -0.488281 1.515625 -0.71875 L 0.828125 -1.0625 C 0.960938 -1.46875 1.070312 -1.789062 1.15625 -2.03125 C 1.25 -2.28125 1.320312 -2.488281 1.375 -2.65625 C 1.4375 -2.832031 1.503906 -3.015625 1.578125 -3.203125 C 3.285156 -2.429688 4.859375 -2.046875 6.296875 -2.046875 Z M 6.296875 -2.046875 "/></g></g></g><g fill="#00d7df" fill-opacity="1"><g transform="translate(234.602497, 291.584923)"><g><path d="M -0.09375 -15.546875 L 11.0625 -15.546875 L 11.0625 -13.265625 L 6.71875 -13.328125 L 6.765625 0 L 4.1875 0 L 4.25 -13.328125 L -0.09375 -13.265625 Z M -0.09375 -15.546875 "/></g></g></g><g fill="#00d7df" fill-opacity="1"><g transform="translate(256.560332, 291.584923)"><g><path d="M 7.5625 0.296875 C 6.851562 0.296875 6.207031 0.222656 5.625 0.078125 C 5.050781 -0.0664062 4.492188 -0.316406 3.953125 -0.671875 C 3.421875 -1.035156 2.976562 -1.515625 2.625 -2.109375 C 1.820312 -3.398438 1.421875 -5.300781 1.421875 -7.8125 C 1.421875 -10.96875 2.03125 -13.125 3.25 -14.28125 C 3.84375 -14.84375 4.484375 -15.242188 5.171875 -15.484375 C 5.859375 -15.722656 6.65625 -15.84375 7.5625 -15.84375 C 8.46875 -15.84375 9.265625 -15.722656 9.953125 -15.484375 C 10.640625 -15.242188 11.28125 -14.84375 11.875 -14.28125 C 13.09375 -13.125 13.703125 -10.96875 13.703125 -7.8125 C 13.703125 -4.207031 12.859375 -1.828125 11.171875 -0.671875 C 10.222656 -0.0234375 9.019531 0.296875 7.5625 0.296875 Z M 5.359375 -2.59375 C 5.660156 -2.375 5.976562 -2.222656 6.3125 -2.140625 C 6.644531 -2.066406 7.148438 -2.03125 7.828125 -2.03125 C 8.515625 -2.03125 9.078125 -2.15625 9.515625 -2.40625 C 10.492188 -2.945312 10.984375 -4.726562 10.984375 -7.75 C 10.984375 -8.988281 10.925781 -9.984375 10.8125 -10.734375 C 10.695312 -11.492188 10.484375 -12.082031 10.171875 -12.5 C 9.867188 -12.914062 9.519531 -13.191406 9.125 -13.328125 C 8.738281 -13.460938 8.21875 -13.53125 7.5625 -13.53125 C 6.914062 -13.53125 6.394531 -13.460938 6 -13.328125 C 5.613281 -13.191406 5.269531 -12.914062 4.96875 -12.5 C 4.664062 -12.082031 4.453125 -11.492188 4.328125 -10.734375 C 4.210938 -9.984375 4.15625 -9.046875 4.15625 -7.921875 C 4.15625 -6.804688 4.195312 -5.90625 4.28125 -5.21875 C 4.375 -4.539062 4.503906 -3.988281 4.671875 -3.5625 C 4.835938 -3.144531 5.066406 -2.820312 5.359375 -2.59375 Z M 5.359375 -2.59375 "/></g></g></g><g fill="#00d7df" fill-opacity="1"><g transform="translate(282.566228, 291.584923)"><g><path d="M 7.5625 -15.84375 C 11.132812 -15.84375 12.921875 -14.171875 12.921875 -10.828125 C 12.921875 -8.367188 11.835938 -6.835938 9.671875 -6.234375 L 9.671875 -6.125 L 13.3125 0 L 10.25 0 L 7.234375 -5.875 L 4.78125 -5.96875 L 4.78125 0 L 2.15625 0 L 2.265625 -7.296875 L 2.203125 -15.53125 C 3.859375 -15.738281 5.644531 -15.84375 7.5625 -15.84375 Z M 4.765625 -8.1875 C 5.929688 -8.050781 6.957031 -7.984375 7.84375 -7.984375 C 8.726562 -7.984375 9.34375 -8.203125 9.6875 -8.640625 C 10.039062 -9.078125 10.21875 -9.863281 10.21875 -11 C 10.21875 -12.132812 10.035156 -12.90625 9.671875 -13.3125 C 9.367188 -13.632812 8.726562 -13.796875 7.75 -13.796875 C 6.78125 -13.796875 5.789062 -13.726562 4.78125 -13.59375 Z M 4.765625 -8.1875 "/></g></g></g><g fill="#00d7df" fill-opacity="1"><g transform="translate(308.282977, 291.584923)"><g><path d="M 2.15625 0 L 2.15625 -15.546875 L 10.5625 -15.546875 L 10.5625 -13.28125 L 4.765625 -13.34375 L 4.65625 -8.984375 L 10.015625 -8.984375 L 10.015625 -6.78125 L 4.65625 -6.78125 L 4.765625 -2.21875 L 10.5625 -2.265625 L 10.5625 0 Z M 2.15625 0 "/></g></g></g><path fill="#ffffff" d="M 275.632812 228.308594 C 273.460938 228.308594 271.28125 227.792969 269.328125 226.820312 L 264.582031 224.457031 L 259.453125 221.824219 C 257.71875 220.9375 257.023438 218.792969 257.90625 217.046875 C 258.078125 216.710938 258.292969 216.414062 258.546875 216.15625 C 259.207031 215.488281 260.121094 215.105469 261.054688 215.105469 C 261.609375 215.105469 262.160156 215.238281 262.65625 215.492188 L 265.273438 216.832031 L 251.089844 202.675781 C 249.710938 201.296875 249.699219 199.046875 251.0625 197.65625 C 251.074219 197.644531 251.117188 197.601562 251.117188 197.601562 C 251.765625 196.96875 252.628906 196.617188 253.550781 196.617188 C 254.503906 196.617188 255.441406 197.003906 256.121094 197.683594 L 261.824219 203.378906 C 261.363281 202.121094 261.628906 200.648438 262.625 199.636719 L 262.675781 199.589844 C 263.324219 198.953125 264.1875 198.605469 265.105469 198.605469 C 266.0625 198.605469 267 198.992188 267.675781 199.671875 L 267.910156 199.902344 C 267.4375 198.644531 267.671875 197.179688 268.628906 196.171875 L 268.675781 196.125 C 269.34375 195.445312 270.234375 195.074219 271.183594 195.074219 C 272.121094 195.074219 273.003906 195.4375 273.671875 196.101562 L 274.539062 196.96875 C 274.066406 195.710938 274.300781 194.246094 275.257812 193.238281 C 275.277344 193.21875 275.296875 193.199219 275.3125 193.179688 C 275.980469 192.507812 276.867188 192.140625 277.8125 192.140625 C 278.75 192.140625 279.632812 192.503906 280.300781 193.167969 L 287.722656 200.578125 L 288.160156 201.015625 C 288.167969 201.023438 288.695312 201.5625 288.9375 201.878906 C 291.914062 205.449219 292.894531 210.074219 291.6875 214.90625 C 291.242188 216.703125 290.476562 218.375 289.421875 219.878906 C 288.953125 220.554688 288.40625 221.210938 287.808594 221.816406 L 285.453125 224.210938 C 285.34375 224.320312 285.238281 224.425781 285.128906 224.527344 C 282.578125 226.964844 279.207031 228.308594 275.632812 228.308594 " fill-opacity="1" fill-rule="nonzero"/><g clip-path="url(#7c6216e01f)"><path fill="#000000" d="M 277.8125 190.949219 C 276.554688 190.949219 275.375 191.4375 274.484375 192.332031 C 274.445312 192.367188 274.417969 192.398438 274.402344 192.414062 C 273.871094 192.976562 273.492188 193.648438 273.289062 194.378906 C 272.644531 194.054688 271.925781 193.882812 271.183594 193.882812 C 269.917969 193.882812 268.726562 194.378906 267.835938 195.285156 L 267.820312 195.296875 L 267.808594 195.3125 L 267.773438 195.347656 C 267.160156 195.996094 266.753906 196.785156 266.582031 197.648438 C 266.105469 197.492188 265.609375 197.414062 265.105469 197.414062 C 263.882812 197.414062 262.730469 197.878906 261.859375 198.726562 C 261.851562 198.734375 261.84375 198.742188 261.832031 198.75 L 261.785156 198.796875 C 261.277344 199.3125 260.910156 199.917969 260.6875 200.5625 L 256.953125 196.835938 C 256.054688 195.941406 254.8125 195.425781 253.550781 195.425781 C 252.320312 195.425781 251.164062 195.894531 250.292969 196.746094 L 250.261719 196.777344 L 250.25 196.785156 C 250.242188 196.796875 250.230469 196.808594 250.21875 196.820312 C 248.398438 198.675781 248.414062 201.683594 250.257812 203.523438 L 260.683594 213.929688 C 259.566406 214.019531 258.496094 214.511719 257.707031 215.316406 C 257.367188 215.660156 257.082031 216.058594 256.859375 216.492188 L 256.855469 216.5 L 256.851562 216.503906 C 255.671875 218.835938 256.597656 221.699219 258.914062 222.886719 L 264.046875 225.515625 L 264.070312 225.53125 L 268.800781 227.886719 C 270.917969 228.941406 273.277344 229.5 275.632812 229.5 C 279.511719 229.5 283.171875 228.039062 285.941406 225.394531 L 285.949219 225.386719 C 286.0625 225.277344 286.179688 225.164062 286.285156 225.054688 L 286.289062 225.050781 L 286.292969 225.050781 L 288.648438 222.65625 C 289.292969 222.003906 289.878906 221.296875 290.390625 220.5625 C 291.53125 218.9375 292.355469 217.132812 292.835938 215.199219 C 294.132812 209.988281 293.078125 204.996094 289.855469 201.128906 C 289.546875 200.726562 289.003906 200.179688 288.996094 200.171875 L 288.554688 199.730469 L 286.859375 198.039062 L 281.132812 192.324219 C 280.246094 191.4375 279.066406 190.949219 277.8125 190.949219 Z M 277.8125 193.332031 C 278.410156 193.332031 279.007812 193.558594 279.464844 194.015625 L 285.191406 199.730469 L 286.886719 201.425781 L 287.328125 201.863281 C 287.472656 202.007812 287.890625 202.457031 288.007812 202.621094 C 290.933594 206.105469 291.585938 210.414062 290.539062 214.617188 C 290.136719 216.230469 289.445312 217.785156 288.453125 219.191406 C 288.019531 219.820312 287.523438 220.417969 286.96875 220.980469 L 284.609375 223.371094 C 284.511719 223.472656 284.414062 223.570312 284.3125 223.664062 C 281.925781 225.949219 278.800781 227.117188 275.632812 227.117188 C 273.667969 227.117188 271.6875 226.664062 269.851562 225.753906 L 265.121094 223.394531 L 259.988281 220.765625 C 258.832031 220.171875 258.375 218.75 258.960938 217.585938 C 259.078125 217.363281 259.222656 217.164062 259.390625 216.992188 C 259.832031 216.542969 260.4375 216.296875 261.054688 216.296875 C 261.414062 216.296875 261.777344 216.378906 262.121094 216.554688 L 266.433594 218.765625 L 266.675781 218.886719 C 266.808594 218.957031 266.945312 218.988281 267.070312 218.988281 C 267.296875 218.988281 267.5 218.890625 267.652344 218.734375 C 267.949219 218.429688 268.035156 217.910156 267.652344 217.527344 L 251.921875 201.828125 C 251.003906 200.910156 250.996094 199.414062 251.910156 198.488281 C 251.921875 198.476562 251.929688 198.46875 251.941406 198.457031 C 252.386719 198.019531 252.964844 197.808594 253.550781 197.808594 C 254.175781 197.808594 254.808594 198.054688 255.285156 198.527344 L 268.351562 211.570312 C 268.550781 211.769531 268.8125 211.867188 269.074219 211.867188 C 269.324219 211.867188 269.570312 211.773438 269.765625 211.589844 C 269.773438 211.582031 269.78125 211.574219 269.792969 211.566406 C 270.191406 211.160156 270.15625 210.480469 269.753906 210.074219 L 263.480469 203.816406 C 262.5625 202.898438 262.554688 201.398438 263.46875 200.472656 C 263.476562 200.464844 263.488281 200.453125 263.5 200.441406 C 263.945312 200.007812 264.523438 199.796875 265.105469 199.796875 C 265.734375 199.796875 266.367188 200.039062 266.84375 200.515625 L 273.964844 207.621094 C 274.164062 207.824219 274.425781 207.921875 274.6875 207.921875 C 274.9375 207.917969 275.1875 207.828125 275.382812 207.640625 C 275.390625 207.636719 275.398438 207.628906 275.40625 207.617188 C 275.804688 207.214844 275.769531 206.535156 275.367188 206.128906 L 269.585938 200.359375 C 268.667969 199.441406 268.59375 197.933594 269.484375 196.996094 C 269.496094 196.984375 269.507812 196.972656 269.515625 196.960938 C 269.976562 196.496094 270.578125 196.265625 271.183594 196.265625 C 271.78125 196.265625 272.378906 196.492188 272.835938 196.949219 L 279.722656 203.820312 C 279.921875 204.019531 280.179688 204.121094 280.441406 204.121094 C 280.703125 204.121094 280.96875 204.019531 281.167969 203.816406 C 281.5625 203.414062 281.5625 202.761719 281.160156 202.363281 L 276.214844 197.425781 C 275.296875 196.511719 275.222656 195 276.113281 194.0625 C 276.125 194.050781 276.136719 194.039062 276.144531 194.03125 C 276.605469 193.5625 277.210938 193.332031 277.8125 193.332031 " fill-opacity="1" fill-rule="nonzero"/></g><path fill="#000000" d="M 245.578125 190.929688 C 245.257812 190.929688 244.953125 191.058594 244.722656 191.289062 C 244.722656 191.289062 244.722656 191.289062 244.71875 191.292969 C 244.25 191.769531 244.25 192.546875 244.726562 193.023438 L 247.949219 196.222656 C 248.179688 196.453125 248.488281 196.578125 248.8125 196.578125 C 249.136719 196.578125 249.441406 196.449219 249.667969 196.21875 C 249.667969 196.21875 249.671875 196.21875 249.671875 196.214844 C 249.902344 195.984375 250.027344 195.675781 250.023438 195.347656 C 250.023438 195.019531 249.894531 194.714844 249.664062 194.484375 L 246.441406 191.285156 C 246.210938 191.054688 245.90625 190.925781 245.578125 190.929688 " fill-opacity="1" fill-rule="nonzero"/><g clip-path="url(#31dfa54e3e)"><path fill="#000000" d="M 254.621094 188.71875 C 254.621094 188.042969 254.070312 187.496094 253.402344 187.5 C 252.730469 187.503906 252.1875 188.054688 252.1875 188.730469 L 252.21875 192.902344 C 252.222656 193.578125 252.769531 194.125 253.441406 194.125 C 253.773438 194.121094 254.078125 193.984375 254.296875 193.765625 C 254.519531 193.542969 254.65625 193.234375 254.652344 192.894531 L 254.621094 188.71875 " fill-opacity="1" fill-rule="nonzero"/></g><g clip-path="url(#a8863ab377)"><path fill="#000000" d="M 242.152344 198.832031 C 241.480469 198.828125 240.929688 199.375 240.929688 200.050781 C 240.925781 200.726562 241.46875 201.277344 242.140625 201.28125 L 246.289062 201.3125 C 246.625 201.3125 246.933594 201.175781 247.152344 200.953125 C 247.371094 200.730469 247.507812 200.429688 247.511719 200.09375 C 247.511719 199.417969 246.96875 198.863281 246.300781 198.863281 L 242.152344 198.832031 " fill-opacity="1" fill-rule="nonzero"/></g><path fill="#000000" d="M 261.769531 189.613281 C 261.441406 189.613281 261.140625 189.742188 260.910156 189.972656 L 257.730469 193.21875 C 257.5 193.449219 257.375 193.757812 257.375 194.085938 C 257.378906 194.410156 257.503906 194.71875 257.734375 194.949219 C 258.210938 195.421875 258.980469 195.421875 259.453125 194.945312 C 259.457031 194.945312 259.457031 194.941406 259.457031 194.941406 L 262.636719 191.699219 C 263.109375 191.21875 263.105469 190.441406 262.628906 189.964844 C 262.398438 189.738281 262.09375 189.609375 261.769531 189.613281 " fill-opacity="1" fill-rule="nonzero"/><path fill="#000000" d="M 246.753906 204.339844 C 246.753906 204.339844 246.753906 204.34375 246.75 204.34375 L 243.570312 207.585938 C 243.34375 207.820312 243.21875 208.125 243.21875 208.453125 C 243.21875 208.78125 243.347656 209.089844 243.578125 209.320312 C 243.808594 209.550781 244.117188 209.675781 244.441406 209.671875 C 244.765625 209.671875 245.070312 209.546875 245.296875 209.316406 C 245.296875 209.3125 245.300781 209.3125 245.300781 209.3125 L 248.480469 206.066406 C 248.710938 205.835938 248.835938 205.527344 248.832031 205.199219 C 248.832031 204.875 248.703125 204.566406 248.472656 204.335938 C 248.242188 204.105469 247.9375 203.980469 247.609375 203.980469 C 247.289062 203.980469 246.984375 204.109375 246.753906 204.339844 " fill-opacity="1" fill-rule="nonzero"/><path stroke-linecap="butt" transform="matrix(0.75, 0, 0, 0.75, 107.89151, 235.946836)" fill="none" stroke-linejoin="miter" d="M 15.675904 16.992762 C 14.764446 16.992762 14.056112 17.164637 13.556112 17.513595 C 13.056112 17.857345 12.806112 18.445887 12.806112 19.27922 C 12.806112 20.107345 13.160279 20.794845 13.863404 21.336512 C 14.571737 21.867762 15.352987 22.341721 16.212362 22.742762 C 17.071738 23.143804 17.837363 23.487554 18.514446 23.779221 C 19.196738 24.070887 19.717571 24.305262 20.076946 24.487554 C 20.436321 24.664637 20.925904 24.919846 21.545696 25.258387 C 22.170696 25.591721 22.655071 25.904221 22.998821 26.190679 C 23.34778 26.482346 23.75403 26.857346 24.207155 27.320888 C 24.665488 27.774013 25.00403 28.237554 25.227988 28.706304 C 25.811321 29.899013 26.102988 31.169846 26.102988 32.524013 C 26.102988 35.211513 25.139446 37.388597 23.212363 39.055263 C 21.285279 40.711513 18.774863 41.539638 15.675904 41.539638 C 14.092571 41.539638 12.457154 41.326097 10.769654 40.899013 C 9.082154 40.466722 7.785279 40.029222 6.863403 39.591722 L 5.493612 38.961513 C 5.545695 38.742763 5.644653 38.456305 5.790487 38.091722 C 5.951945 37.59693 6.394653 36.154221 7.118612 33.768805 C 10.524862 35.12818 13.655071 35.805263 16.509237 35.805263 C 17.306113 35.805263 17.993613 35.62818 18.576946 35.268805 C 19.160279 34.90943 19.446738 34.081305 19.446738 32.774013 C 19.446738 32.164638 19.285279 31.701096 18.951946 31.383388 C 18.618613 31.065679 18.342571 30.815679 18.118613 30.633388 C 17.905071 30.451096 17.587363 30.253179 17.165488 30.034429 C 16.754029 29.815679 16.394654 29.633388 16.092571 29.487554 C 15.451946 29.185471 14.290487 28.638596 12.613404 27.857346 C 10.941529 27.065679 9.733195 26.367762 8.983195 25.758387 C 7.076945 24.263596 6.12382 22.242762 6.12382 19.690679 C 6.12382 17.143804 7.014445 15.102137 8.800904 13.565678 C 10.587362 12.024012 13.123821 11.253178 16.415487 11.253178 C 17.613404 11.253178 18.931113 11.367761 20.373821 11.59172 C 21.811321 11.81047 23.373821 12.159428 25.056113 12.62297 L 24.024863 17.945887 C 20.696738 17.31047 17.915488 16.992762 15.675904 16.992762 Z M 31.243613 40.997972 L 31.243613 11.800053 L 37.764447 11.800053 L 37.644656 23.383387 L 47.280073 23.383387 L 47.160281 11.800053 L 53.681115 11.800053 L 53.681115 40.997972 L 47.160281 40.997972 L 47.280073 28.951096 L 37.644656 28.951096 L 37.764447 40.997972 Z M 76.498825 40.87818 C 75.097783 41.31568 73.4832 41.539638 71.649866 41.539638 C 69.826949 41.539638 68.212366 41.31568 66.816532 40.87818 C 65.420699 40.430263 64.129032 39.669847 62.931116 38.586513 C 60.441532 36.372971 59.19674 32.289638 59.19674 26.336512 C 59.19674 19.633387 60.91549 15.201095 64.347782 13.039637 C 66.201949 11.852137 68.639449 11.253178 71.660283 11.253178 C 76.394658 11.253178 79.743617 12.753178 81.712367 15.74797 C 83.316534 18.180262 84.113409 21.711512 84.113409 26.336512 C 84.113409 32.289638 82.873825 36.372971 80.384242 38.586513 C 79.191533 39.669847 77.899866 40.430263 76.498825 40.87818 Z M 68.358199 17.664637 C 67.592574 18.102137 66.998824 19.008387 66.582157 20.383387 C 66.170699 21.74797 65.962366 23.753179 65.962366 26.393804 C 65.962366 29.039638 66.175907 31.055263 66.602991 32.44068 C 67.035282 33.826096 67.634241 34.737555 68.394658 35.169846 C 69.160283 35.59693 70.243616 35.805263 71.649866 35.805263 C 73.066533 35.805263 74.144658 35.586513 74.894658 35.138596 C 76.535283 34.195888 77.352991 31.289638 77.352991 26.414637 C 77.352991 21.487554 76.561325 18.565679 74.977991 17.65422 C 74.207158 17.21672 73.102991 16.992762 71.660283 16.992762 C 70.222783 16.992762 69.118616 17.21672 68.358199 17.664637 Z M 89.639451 11.84172 C 94.092576 11.451095 97.858201 11.253178 100.936326 11.253178 C 104.014452 11.253178 106.36341 12.117762 107.993618 13.852137 C 109.629035 15.581303 110.451952 18.138595 110.451952 21.518804 C 110.451952 25.617762 109.352994 28.482346 107.165493 30.117763 C 105.285285 31.503179 102.915493 32.195888 100.066535 32.195888 L 96.160284 32.065679 L 96.160284 40.997972 L 89.639451 40.997972 L 89.800909 27.378179 Z M 102.80091 17.117762 C 102.415493 16.721928 101.504035 16.52922 100.066535 16.52922 C 98.623826 16.52922 97.321743 16.596928 96.160284 16.742762 L 96.160284 26.414637 C 97.321743 26.612554 98.61341 26.711512 100.024868 26.711512 C 101.436326 26.711512 102.405076 26.471929 102.936326 25.992762 C 103.462368 25.503179 103.727993 24.044846 103.727993 21.607345 C 103.727993 19.169845 103.420702 17.669845 102.80091 17.117762 Z M 115.431119 11.84172 C 119.884244 11.451095 123.649869 11.253178 126.727995 11.253178 C 129.80612 11.253178 132.155078 12.117762 133.785287 13.852137 C 135.420704 15.581303 136.238412 18.138595 136.238412 21.518804 C 136.238412 25.617762 135.144662 28.482346 132.957162 30.117763 C 131.076953 31.503179 128.707161 32.195888 125.852995 32.195888 L 121.951953 32.065679 L 121.951953 40.997972 L 115.431119 40.997972 L 115.592577 27.378179 Z M 128.592578 17.117762 C 128.207161 16.721928 127.295703 16.52922 125.852995 16.52922 C 124.415495 16.52922 123.113411 16.596928 121.951953 16.742762 L 121.951953 26.414637 C 123.113411 26.612554 124.39987 26.711512 125.816536 26.711512 C 127.227995 26.711512 128.196745 26.471929 128.727995 25.992762 C 129.254037 25.503179 129.514453 24.044846 129.514453 21.607345 C 129.514453 19.169845 129.207162 17.669845 128.592578 17.117762 Z M 147.660288 24.805262 L 147.780079 40.997972 L 141.222787 40.997972 L 141.384246 27.539638 L 141.222787 11.800053 L 147.780079 11.800053 Z M 154.675913 11.800053 L 162.821747 11.800053 L 171.837373 32.524013 L 172.082164 32.524013 L 171.582164 11.800053 L 177.608206 11.800053 L 177.608206 40.997972 L 169.462373 40.997972 L 160.446747 20.268804 L 160.201955 20.268804 L 160.701955 40.997972 L 154.675913 40.997972 Z M 191.602999 17.774012 C 190.441541 18.831304 189.858207 21.675054 189.858207 26.315679 C 189.858207 30.951096 190.467582 33.87818 191.686332 35.09693 C 192.399874 35.768805 193.576957 36.102138 195.212374 36.102138 C 196.852999 36.102138 198.056124 36.018805 198.826958 35.84693 L 198.826958 29.581304 L 194.587374 29.284429 L 194.587374 24.591721 L 205.181125 24.591721 L 205.181125 39.633388 C 203.993625 40.133388 202.478 40.576097 200.629041 40.961513 C 198.790499 41.34693 197.113416 41.539638 195.587374 41.539638 C 194.066541 41.539638 192.733207 41.419847 191.582166 41.180263 C 190.436332 40.951097 189.311332 40.497972 188.217582 39.826097 C 187.123832 39.138597 186.196749 38.258388 185.446749 37.175055 C 183.84779 34.742763 183.045707 31.117763 183.045707 26.294846 C 183.045707 20.258387 184.259248 16.18547 186.696749 14.086512 C 187.946749 13.003178 189.311332 12.263595 190.790499 11.862553 C 192.274874 11.456303 194.300916 11.253178 196.879041 11.253178 C 199.451958 11.253178 202.207166 11.617761 205.144667 12.34172 L 204.394666 17.612554 C 200.655083 17.201095 197.738416 16.992762 195.649874 16.992762 C 193.561332 16.992762 192.212374 17.253179 191.602999 17.774012 Z M 191.602999 17.774012 " stroke="#000000" stroke-width="6.2313" stroke-opacity="1" stroke-miterlimit="4"/><g fill="#ffffff" fill-opacity="1"><g transform="translate(110.98526, 266.696834)"><g><path d="M 8.65625 -18.015625 C 7.976562 -18.015625 7.453125 -17.882812 7.078125 -17.625 C 6.703125 -17.363281 6.515625 -16.921875 6.515625 -16.296875 C 6.515625 -15.671875 6.773438 -15.15625 7.296875 -14.75 C 7.828125 -14.34375 8.414062 -13.988281 9.0625 -13.6875 C 9.707031 -13.382812 10.285156 -13.125 10.796875 -12.90625 C 11.304688 -12.695312 11.695312 -12.523438 11.96875 -12.390625 C 12.238281 -12.253906 12.601562 -12.0625 13.0625 -11.8125 C 13.53125 -11.5625 13.894531 -11.328125 14.15625 -11.109375 C 14.414062 -10.890625 14.71875 -10.609375 15.0625 -10.265625 C 15.40625 -9.921875 15.660156 -9.570312 15.828125 -9.21875 C 16.265625 -8.320312 16.484375 -7.367188 16.484375 -6.359375 C 16.484375 -4.335938 15.757812 -2.703125 14.3125 -1.453125 C 12.875 -0.210938 10.988281 0.40625 8.65625 0.40625 C 7.476562 0.40625 6.253906 0.242188 4.984375 -0.078125 C 3.710938 -0.398438 2.738281 -0.726562 2.0625 -1.0625 L 1.03125 -1.53125 C 1.070312 -1.695312 1.144531 -1.914062 1.25 -2.1875 C 1.375 -2.550781 1.707031 -3.628906 2.25 -5.421875 C 4.800781 -4.398438 7.144531 -3.890625 9.28125 -3.890625 C 9.882812 -3.890625 10.40625 -4.023438 10.84375 -4.296875 C 11.28125 -4.566406 11.5 -5.191406 11.5 -6.171875 C 11.5 -6.628906 11.375 -6.976562 11.125 -7.21875 C 10.875 -7.457031 10.664062 -7.640625 10.5 -7.765625 C 10.332031 -7.898438 10.09375 -8.050781 9.78125 -8.21875 C 9.46875 -8.382812 9.195312 -8.519531 8.96875 -8.625 C 8.488281 -8.851562 7.617188 -9.265625 6.359375 -9.859375 C 5.109375 -10.453125 4.203125 -10.976562 3.640625 -11.4375 C 2.210938 -12.550781 1.5 -14.0625 1.5 -15.96875 C 1.5 -17.882812 2.164062 -19.421875 3.5 -20.578125 C 4.84375 -21.734375 6.75 -22.3125 9.21875 -22.3125 C 10.113281 -22.3125 11.097656 -22.226562 12.171875 -22.0625 C 13.253906 -21.894531 14.429688 -21.632812 15.703125 -21.28125 L 14.921875 -17.296875 C 12.429688 -17.773438 10.34375 -18.015625 8.65625 -18.015625 Z M 8.65625 -18.015625 "/></g></g></g><g fill="#ffffff" fill-opacity="1"><g transform="translate(128.739898, 266.696834)"><g><path d="M 2.59375 0 L 2.59375 -21.90625 L 7.484375 -21.90625 L 7.390625 -13.203125 L 14.609375 -13.203125 L 14.515625 -21.90625 L 19.40625 -21.90625 L 19.40625 0 L 14.515625 0 L 14.609375 -9.03125 L 7.390625 -9.03125 L 7.484375 0 Z M 2.59375 0 "/></g></g></g><g fill="#ffffff" fill-opacity="1"><g transform="translate(150.730737, 266.696834)"><g><path d="M 14.53125 -0.09375 C 13.488281 0.238281 12.28125 0.40625 10.90625 0.40625 C 9.53125 0.40625 8.316406 0.238281 7.265625 -0.09375 C 6.222656 -0.425781 5.253906 -1 4.359375 -1.8125 C 2.492188 -3.46875 1.5625 -6.53125 1.5625 -11 C 1.5625 -16.019531 2.847656 -19.34375 5.421875 -20.96875 C 6.816406 -21.863281 8.644531 -22.3125 10.90625 -22.3125 C 14.457031 -22.3125 16.96875 -21.1875 18.4375 -18.9375 C 19.644531 -17.113281 20.25 -14.46875 20.25 -11 C 20.25 -6.53125 19.316406 -3.46875 17.453125 -1.8125 C 16.554688 -1 15.582031 -0.425781 14.53125 -0.09375 Z M 8.421875 -17.515625 C 7.859375 -17.179688 7.421875 -16.5 7.109375 -15.46875 C 6.796875 -14.4375 6.640625 -12.925781 6.640625 -10.9375 C 6.640625 -8.957031 6.800781 -7.445312 7.125 -6.40625 C 7.445312 -5.375 7.890625 -4.695312 8.453125 -4.375 C 9.023438 -4.050781 9.84375 -3.890625 10.90625 -3.890625 C 11.96875 -3.890625 12.773438 -4.054688 13.328125 -4.390625 C 14.554688 -5.097656 15.171875 -7.28125 15.171875 -10.9375 C 15.171875 -14.632812 14.578125 -16.828125 13.390625 -17.515625 C 12.816406 -17.847656 11.988281 -18.015625 10.90625 -18.015625 C 9.820312 -18.015625 8.992188 -17.847656 8.421875 -17.515625 Z M 8.421875 -17.515625 "/></g></g></g><g fill="#ffffff" fill-opacity="1"><g transform="translate(172.534683, 266.696834)"><g><path d="M 2.59375 -21.875 C 5.9375 -22.164062 8.757812 -22.3125 11.0625 -22.3125 C 13.363281 -22.3125 15.125 -21.660156 16.34375 -20.359375 C 17.570312 -19.054688 18.1875 -17.140625 18.1875 -14.609375 C 18.1875 -11.535156 17.367188 -9.382812 15.734375 -8.15625 C 14.316406 -7.125 12.539062 -6.609375 10.40625 -6.609375 L 7.484375 -6.703125 L 7.484375 0 L 2.59375 0 L 2.703125 -10.21875 Z M 12.46875 -17.921875 C 12.175781 -18.203125 11.488281 -18.34375 10.40625 -18.34375 C 9.320312 -18.34375 8.347656 -18.289062 7.484375 -18.1875 L 7.484375 -10.9375 C 8.347656 -10.789062 9.3125 -10.71875 10.375 -10.71875 C 11.4375 -10.71875 12.160156 -10.898438 12.546875 -11.265625 C 12.941406 -11.628906 13.140625 -12.722656 13.140625 -14.546875 C 13.140625 -16.378906 12.914062 -17.503906 12.46875 -17.921875 Z M 12.46875 -17.921875 "/></g></g></g><g fill="#ffffff" fill-opacity="1"><g transform="translate(191.877898, 266.696834)"><g><path d="M 2.59375 -21.875 C 5.9375 -22.164062 8.757812 -22.3125 11.0625 -22.3125 C 13.363281 -22.3125 15.125 -21.660156 16.34375 -20.359375 C 17.570312 -19.054688 18.1875 -17.140625 18.1875 -14.609375 C 18.1875 -11.535156 17.367188 -9.382812 15.734375 -8.15625 C 14.316406 -7.125 12.539062 -6.609375 10.40625 -6.609375 L 7.484375 -6.703125 L 7.484375 0 L 2.59375 0 L 2.703125 -10.21875 Z M 12.46875 -17.921875 C 12.175781 -18.203125 11.488281 -18.34375 10.40625 -18.34375 C 9.320312 -18.34375 8.347656 -18.289062 7.484375 -18.1875 L 7.484375 -10.9375 C 8.347656 -10.789062 9.3125 -10.71875 10.375 -10.71875 C 11.4375 -10.71875 12.160156 -10.898438 12.546875 -11.265625 C 12.941406 -11.628906 13.140625 -12.722656 13.140625 -14.546875 C 13.140625 -16.378906 12.914062 -17.503906 12.46875 -17.921875 Z M 12.46875 -17.921875 "/></g></g></g><g fill="#ffffff" fill-opacity="1"><g transform="translate(211.221113, 266.696834)"><g><path d="M 7.421875 -12.15625 L 7.515625 0 L 2.59375 0 L 2.703125 -10.09375 L 2.59375 -21.90625 L 7.515625 -21.90625 Z M 7.421875 -12.15625 "/></g></g></g><g fill="#ffffff" fill-opacity="1"><g transform="translate(221.313222, 266.696834)"><g><path d="M 2.59375 -21.90625 L 8.6875 -21.90625 L 15.453125 -6.359375 L 15.640625 -6.359375 L 15.265625 -21.90625 L 19.78125 -21.90625 L 19.78125 0 L 13.671875 0 L 6.921875 -15.546875 L 6.734375 -15.546875 L 7.109375 0 L 2.59375 0 Z M 2.59375 -21.90625 "/></g></g></g><g fill="#ffffff" fill-opacity="1"><g transform="translate(243.615547, 266.696834)"><g><path d="M 7.96875 -17.421875 C 7.101562 -16.628906 6.671875 -14.492188 6.671875 -11.015625 C 6.671875 -7.535156 7.125 -5.335938 8.03125 -4.421875 C 8.570312 -3.921875 9.457031 -3.671875 10.6875 -3.671875 C 11.914062 -3.671875 12.816406 -3.734375 13.390625 -3.859375 L 13.390625 -8.5625 L 10.21875 -8.78125 L 10.21875 -12.3125 L 18.171875 -12.3125 L 18.171875 -1.03125 C 17.273438 -0.65625 16.132812 -0.320312 14.75 -0.03125 C 13.375 0.257812 12.113281 0.40625 10.96875 0.40625 C 9.820312 0.40625 8.816406 0.316406 7.953125 0.140625 C 7.097656 -0.0351562 6.257812 -0.378906 5.4375 -0.890625 C 4.613281 -1.398438 3.921875 -2.054688 3.359375 -2.859375 C 2.160156 -4.691406 1.5625 -7.414062 1.5625 -11.03125 C 1.5625 -15.5625 2.472656 -18.613281 4.296875 -20.1875 C 5.234375 -21 6.253906 -21.554688 7.359375 -21.859375 C 8.472656 -22.160156 9.992188 -22.3125 11.921875 -22.3125 C 13.859375 -22.3125 15.929688 -22.039062 18.140625 -21.5 L 17.578125 -17.546875 C 14.765625 -17.859375 12.570312 -18.015625 11 -18.015625 C 9.4375 -18.015625 8.425781 -17.816406 7.96875 -17.421875 Z M 7.96875 -17.421875 "/></g></g></g></svg>